G04 #@! TF.GenerationSoftware,KiCad,Pcbnew,5.0.2-bee76a0~70~ubuntu18.04.1*
G04 #@! TF.CreationDate,2019-05-15T21:37:27+02:00*
G04 #@! TF.ProjectId,networkScanner,6e657477-6f72-46b5-9363-616e6e65722e,rev?*
G04 #@! TF.SameCoordinates,Original*
G04 #@! TF.FileFunction,Legend,Bot*
G04 #@! TF.FilePolarity,Positive*
%FSLAX46Y46*%
G04 Gerber Fmt 4.6, Leading zero omitted, Abs format (unit mm)*
G04 Created by KiCad (PCBNEW 5.0.2-bee76a0~70~ubuntu18.04.1) date Mi 15 Mai 2019 21:37:27 CEST*
%MOMM*%
%LPD*%
G01*
G04 APERTURE LIST*
%ADD10C,0.300000*%
%ADD11C,0.120000*%
%ADD12C,0.150000*%
G04 APERTURE END LIST*
D10*
X84447857Y-58178571D02*
X84447857Y-56678571D01*
X83947857Y-57750000D01*
X83447857Y-56678571D01*
X83447857Y-58178571D01*
X82090714Y-58178571D02*
X82090714Y-57392857D01*
X82162142Y-57250000D01*
X82305000Y-57178571D01*
X82590714Y-57178571D01*
X82733571Y-57250000D01*
X82090714Y-58107142D02*
X82233571Y-58178571D01*
X82590714Y-58178571D01*
X82733571Y-58107142D01*
X82805000Y-57964285D01*
X82805000Y-57821428D01*
X82733571Y-57678571D01*
X82590714Y-57607142D01*
X82233571Y-57607142D01*
X82090714Y-57535714D01*
X81590714Y-57178571D02*
X81019285Y-57178571D01*
X81376428Y-56678571D02*
X81376428Y-57964285D01*
X81305000Y-58107142D01*
X81162142Y-58178571D01*
X81019285Y-58178571D01*
X80733571Y-57178571D02*
X80162142Y-57178571D01*
X80519285Y-56678571D02*
X80519285Y-57964285D01*
X80447857Y-58107142D01*
X80305000Y-58178571D01*
X80162142Y-58178571D01*
X79662142Y-58178571D02*
X79662142Y-56678571D01*
X79019285Y-58178571D02*
X79019285Y-57392857D01*
X79090714Y-57250000D01*
X79233571Y-57178571D01*
X79447857Y-57178571D01*
X79590714Y-57250000D01*
X79662142Y-57321428D01*
X78305000Y-58178571D02*
X78305000Y-57178571D01*
X78305000Y-56678571D02*
X78376428Y-56750000D01*
X78305000Y-56821428D01*
X78233571Y-56750000D01*
X78305000Y-56678571D01*
X78305000Y-56821428D01*
X76947857Y-58178571D02*
X76947857Y-57392857D01*
X77019285Y-57250000D01*
X77162142Y-57178571D01*
X77447857Y-57178571D01*
X77590714Y-57250000D01*
X76947857Y-58107142D02*
X77090714Y-58178571D01*
X77447857Y-58178571D01*
X77590714Y-58107142D01*
X77662142Y-57964285D01*
X77662142Y-57821428D01*
X77590714Y-57678571D01*
X77447857Y-57607142D01*
X77090714Y-57607142D01*
X76947857Y-57535714D01*
X76305000Y-58107142D02*
X76162142Y-58178571D01*
X75876428Y-58178571D01*
X75733571Y-58107142D01*
X75662142Y-57964285D01*
X75662142Y-57892857D01*
X75733571Y-57750000D01*
X75876428Y-57678571D01*
X76090714Y-57678571D01*
X76233571Y-57607142D01*
X76305000Y-57464285D01*
X76305000Y-57392857D01*
X76233571Y-57250000D01*
X76090714Y-57178571D01*
X75876428Y-57178571D01*
X75733571Y-57250000D01*
X73876428Y-58178571D02*
X73876428Y-56678571D01*
X73019285Y-58178571D01*
X73019285Y-56678571D01*
X72305000Y-58178571D02*
X72305000Y-57178571D01*
X72305000Y-56678571D02*
X72376428Y-56750000D01*
X72305000Y-56821428D01*
X72233571Y-56750000D01*
X72305000Y-56678571D01*
X72305000Y-56821428D01*
X71019285Y-58107142D02*
X71162142Y-58178571D01*
X71447857Y-58178571D01*
X71590714Y-58107142D01*
X71662142Y-57964285D01*
X71662142Y-57392857D01*
X71590714Y-57250000D01*
X71447857Y-57178571D01*
X71162142Y-57178571D01*
X71019285Y-57250000D01*
X70947857Y-57392857D01*
X70947857Y-57535714D01*
X71662142Y-57678571D01*
X69662142Y-58178571D02*
X69662142Y-56678571D01*
X69662142Y-58107142D02*
X69805000Y-58178571D01*
X70090714Y-58178571D01*
X70233571Y-58107142D01*
X70305000Y-58035714D01*
X70376428Y-57892857D01*
X70376428Y-57464285D01*
X70305000Y-57321428D01*
X70233571Y-57250000D01*
X70090714Y-57178571D01*
X69805000Y-57178571D01*
X69662142Y-57250000D01*
X68376428Y-58107142D02*
X68519285Y-58178571D01*
X68805000Y-58178571D01*
X68947857Y-58107142D01*
X69019285Y-57964285D01*
X69019285Y-57392857D01*
X68947857Y-57250000D01*
X68805000Y-57178571D01*
X68519285Y-57178571D01*
X68376428Y-57250000D01*
X68305000Y-57392857D01*
X68305000Y-57535714D01*
X69019285Y-57678571D01*
X67662142Y-58178571D02*
X67662142Y-57178571D01*
X67662142Y-57464285D02*
X67590714Y-57321428D01*
X67519285Y-57250000D01*
X67376428Y-57178571D01*
X67233571Y-57178571D01*
X66733571Y-58178571D02*
X66733571Y-57178571D01*
X66733571Y-57321428D02*
X66662142Y-57250000D01*
X66519285Y-57178571D01*
X66305000Y-57178571D01*
X66162142Y-57250000D01*
X66090714Y-57392857D01*
X66090714Y-58178571D01*
X66090714Y-57392857D02*
X66019285Y-57250000D01*
X65876428Y-57178571D01*
X65662142Y-57178571D01*
X65519285Y-57250000D01*
X65447857Y-57392857D01*
X65447857Y-58178571D01*
X64090714Y-58178571D02*
X64090714Y-57392857D01*
X64162142Y-57250000D01*
X64305000Y-57178571D01*
X64590714Y-57178571D01*
X64733571Y-57250000D01*
X64090714Y-58107142D02*
X64233571Y-58178571D01*
X64590714Y-58178571D01*
X64733571Y-58107142D01*
X64805000Y-57964285D01*
X64805000Y-57821428D01*
X64733571Y-57678571D01*
X64590714Y-57607142D01*
X64233571Y-57607142D01*
X64090714Y-57535714D01*
X63376428Y-58178571D02*
X63376428Y-57178571D01*
X63376428Y-56678571D02*
X63447857Y-56750000D01*
X63376428Y-56821428D01*
X63305000Y-56750000D01*
X63376428Y-56678571D01*
X63376428Y-56821428D01*
X62090714Y-58107142D02*
X62233571Y-58178571D01*
X62519285Y-58178571D01*
X62662142Y-58107142D01*
X62733571Y-57964285D01*
X62733571Y-57392857D01*
X62662142Y-57250000D01*
X62519285Y-57178571D01*
X62233571Y-57178571D01*
X62090714Y-57250000D01*
X62019285Y-57392857D01*
X62019285Y-57535714D01*
X62733571Y-57678571D01*
X61376428Y-58178571D02*
X61376428Y-57178571D01*
X61376428Y-57464285D02*
X61305000Y-57321428D01*
X61233571Y-57250000D01*
X61090714Y-57178571D01*
X60947857Y-57178571D01*
D11*
G04 #@! TO.C,J1*
X113870000Y-93670000D02*
X111270000Y-93670000D01*
X113870000Y-93670000D02*
X113870000Y-144590000D01*
X113870000Y-144590000D02*
X108670000Y-144590000D01*
X108670000Y-96270000D02*
X108670000Y-144590000D01*
X111270000Y-96270000D02*
X108670000Y-96270000D01*
X111270000Y-93670000D02*
X111270000Y-96270000D01*
X108670000Y-93670000D02*
X108670000Y-95000000D01*
X110000000Y-93670000D02*
X108670000Y-93670000D01*
G04 #@! TO.C,J2*
X193000000Y-93670000D02*
X191670000Y-93670000D01*
X191670000Y-93670000D02*
X191670000Y-95000000D01*
X194270000Y-93670000D02*
X194270000Y-96270000D01*
X194270000Y-96270000D02*
X191670000Y-96270000D01*
X191670000Y-96270000D02*
X191670000Y-144590000D01*
X196870000Y-144590000D02*
X191670000Y-144590000D01*
X196870000Y-93670000D02*
X196870000Y-144590000D01*
X196870000Y-93670000D02*
X194270000Y-93670000D01*
G04 #@! TO.C,J1*
D12*
X111603333Y-91682380D02*
X111603333Y-92396666D01*
X111650952Y-92539523D01*
X111746190Y-92634761D01*
X111889047Y-92682380D01*
X111984285Y-92682380D01*
X110603333Y-92682380D02*
X111174761Y-92682380D01*
X110889047Y-92682380D02*
X110889047Y-91682380D01*
X110984285Y-91825238D01*
X111079523Y-91920476D01*
X111174761Y-91968095D01*
G04 #@! TO.C,J2*
X194603333Y-91682380D02*
X194603333Y-92396666D01*
X194650952Y-92539523D01*
X194746190Y-92634761D01*
X194889047Y-92682380D01*
X194984285Y-92682380D01*
X194174761Y-91777619D02*
X194127142Y-91730000D01*
X194031904Y-91682380D01*
X193793809Y-91682380D01*
X193698571Y-91730000D01*
X193650952Y-91777619D01*
X193603333Y-91872857D01*
X193603333Y-91968095D01*
X193650952Y-92110952D01*
X194222380Y-92682380D01*
X193603333Y-92682380D01*
G04 #@! TD*
M02*
