G04 #@! TF.GenerationSoftware,KiCad,Pcbnew,5.0.2-bee76a0~70~ubuntu18.04.1*
G04 #@! TF.CreationDate,2019-05-15T21:37:28+02:00*
G04 #@! TF.ProjectId,networkScanner,6e657477-6f72-46b5-9363-616e6e65722e,rev?*
G04 #@! TF.SameCoordinates,Original*
G04 #@! TF.FileFunction,Profile,NP*
%FSLAX46Y46*%
G04 Gerber Fmt 4.6, Leading zero omitted, Abs format (unit mm)*
G04 Created by KiCad (PCBNEW 5.0.2-bee76a0~70~ubuntu18.04.1) date Mi 15 Mai 2019 21:37:28 CEST*
%MOMM*%
%LPD*%
G01*
G04 APERTURE LIST*
%ADD10C,0.150000*%
G04 APERTURE END LIST*
D10*
X187500000Y-147500000D02*
G75*
G02X190000000Y-149960320I0J-2500320D01*
G01*
X150039680Y-150000000D02*
G75*
G02X152500000Y-147500000I2500320J0D01*
G01*
X105000000Y-147500000D02*
G75*
G02X107500000Y-149960320I0J-2500320D01*
G01*
X67500000Y-150000000D02*
G75*
G02X69960320Y-147500000I2500320J0D01*
G01*
X126200000Y-85865000D02*
G75*
G02X133820000Y-85865000I3810000J0D01*
G01*
X133820000Y-112535000D02*
G75*
G02X126200000Y-112535000I-3810000J0D01*
G01*
X210000000Y-147500000D02*
X207500000Y-150000000D01*
X52500000Y-150000000D02*
X50000000Y-147500000D01*
X135000000Y-150000000D02*
X150000000Y-150000000D01*
X107500000Y-150000000D02*
X125000000Y-150000000D01*
X152500000Y-147500000D02*
X187500000Y-147500000D01*
X70000000Y-147500000D02*
X105000000Y-147500000D01*
X133820000Y-112535000D02*
X133820000Y-85865000D01*
X126200000Y-85865000D02*
X126200000Y-112535000D01*
X200000000Y-50000000D02*
X135000000Y-50000000D01*
X135000000Y-50000000D02*
G75*
G02X125000000Y-50000000I-5000000J0D01*
G01*
X207500000Y-150000000D02*
X190000000Y-150000000D01*
X125000000Y-150000000D02*
G75*
G02X135000000Y-150000000I5000000J0D01*
G01*
X146800000Y-148000000D02*
G75*
G03X146800000Y-148000000I-1500000J0D01*
G01*
X50000000Y-60000000D02*
G75*
G02X60000000Y-50000000I10000000J0D01*
G01*
X200000000Y-50000000D02*
G75*
G02X210000000Y-60000000I0J-10000000D01*
G01*
X51666666Y-150000000D02*
G75*
G03X51666666Y-150000000I-1666666J0D01*
G01*
X47500000Y-150000000D02*
X52500000Y-150000000D01*
X50000000Y-147500000D02*
X50000000Y-152500000D01*
X52500000Y-150000000D02*
X67500000Y-150000000D01*
X60000000Y-50000000D02*
X125000000Y-50000000D01*
X210000000Y-60000000D02*
X210000000Y-147500000D01*
X50000000Y-60000000D02*
X50000000Y-147500000D01*
M02*
