M48
;DRILL file {KiCad 5.0.2-bee76a0~70~ubuntu18.04.1} date Mi 15 Mai 2019 21:37:24 CEST
;FORMAT={-:-/ absolute / inch / decimal}
FMAT,2
INCH,TZ
T1C0.0157
T2C0.0394
%
G90
G05
T1
X2.0035Y-4.8555
X2.0035Y-4.9905
X2.4185Y-4.8555
X2.4185Y-4.9905
X2.5685Y-4.8555
X2.5685Y-4.9905
X2.7185Y-4.0055
X2.8185Y-4.3055
X2.8185Y-4.4055
X2.8185Y-4.5055
X2.8185Y-4.6055
X2.9085Y-4.0455
X2.9135Y-4.1405
X2.9185Y-3.9055
X2.9185Y-3.9555
X3.0185Y-5.0055
X3.0185Y-5.1555
X3.0185Y-5.3055
X3.0535Y-4.4405
X3.0685Y-3.7555
X3.0685Y-4.0555
X3.0685Y-5.0055
X3.0685Y-5.1555
X3.0685Y-5.3055
X3.1185Y-4.3555
X3.1185Y-5.0055
X3.1185Y-5.1555
X3.1185Y-5.3055
X3.1531Y-3.8402
X3.1935Y-4.4055
X3.1985Y-4.4605
X3.2185Y-3.7055
X3.2685Y-3.6055
X3.3061Y-4.4228
X3.3185Y-4.7305
X3.3435Y-4.4555
X3.3435Y-4.6305
X3.3455Y-4.3305
X3.372Y-4.5305
X3.3721Y-4.3595
X3.4185Y-4.3055
X3.4435Y-3.9655
X3.4535Y-3.7855
X3.4685Y-3.7055
X3.4685Y-4.3555
X3.4685Y-4.6055
X3.4685Y-4.7055
X3.4685Y-4.8055
X3.4685Y-4.9055
X3.4685Y-5.2555
X3.4685Y-5.3555
X3.4685Y-5.4555
X3.4685Y-5.5555
X3.5185Y-4.5555
X3.6185Y-3.7055
X3.6185Y-3.9555
X3.6185Y-4.3055
X3.6685Y-3.9055
X3.6735Y-4.0305
X3.6835Y-5.2062
X3.7185Y-4.0305
X3.7685Y-4.0305
X3.8185Y-4.0305
X3.8185Y-4.9555
X3.8185Y-5.0555
X3.8185Y-5.315
X3.8756Y-4.7841
X3.8935Y-4.1055
X3.915Y-3.9555
X3.9185Y-4.7841
X3.9185Y-4.8555
X3.9185Y-5.1055
X4.5185Y-2.3805
X4.5185Y-2.4805
X4.5185Y-3.0055
X4.5185Y-3.1055
X4.6185Y-2.3805
X4.6185Y-2.4805
X4.6185Y-3.0055
X4.6185Y-3.1055
X4.8185Y-4.8055
X4.8185Y-4.9055
X4.8185Y-5.0555
X4.8185Y-5.1555
X5.1935Y-4.8555
X5.1935Y-5.0055
X5.3185Y-2.9055
X5.3435Y-2.8555
X5.3685Y-2.8055
X5.3685Y-3.0555
X5.3935Y-2.7555
X5.4185Y-2.7055
X5.4185Y-3.0555
X5.4435Y-2.6574
X5.4685Y-2.6092
X5.4685Y-3.0555
X5.4935Y-2.5609
X5.5185Y-3.0555
X5.5685Y-3.0555
X5.5735Y-4.8555
X5.6185Y-3.0555
X5.6685Y-3.0555
X5.7185Y-3.0555
X6.0185Y-2.7055
X6.0185Y-2.8055
X6.0185Y-3.1555
X6.0185Y-3.2555
X6.0685Y-4.0055
X6.1185Y-2.7055
X6.1185Y-2.8055
X6.1185Y-3.1555
X6.1185Y-3.2555
X6.1685Y-4.3055
X6.1685Y-4.4055
X6.1685Y-4.5055
X6.1685Y-4.6055
X6.1935Y-4.9555
X6.2685Y-3.9055
X6.2685Y-3.9555
X6.2685Y-4.0555
X6.2685Y-4.1555
X6.3685Y-5.0055
X6.3685Y-5.1555
X6.3685Y-5.3055
X6.4035Y-4.4455
X6.4185Y-3.7555
X6.4185Y-4.0555
X6.4185Y-5.0055
X6.4185Y-5.1555
X6.4185Y-5.3055
X6.4685Y-5.0055
X6.4685Y-5.1555
X6.4685Y-5.3055
X6.4885Y-3.8405
X6.5185Y-4.3555
X6.5685Y-3.7055
X6.6185Y-3.7555
X6.6935Y-4.3555
X6.7329Y-4.3555
X6.7435Y-5.2555
X6.7435Y-5.3555
X6.7435Y-5.4555
X6.7435Y-5.5555
X6.7559Y-5.2181
X6.7685Y-4.3055
X6.7846Y-5.149
X6.7885Y-3.9655
X6.7935Y-4.6055
X6.7935Y-4.7055
X6.7935Y-4.8055
X6.7935Y-4.9055
X6.7985Y-3.7905
X6.8185Y-3.7055
X6.8185Y-4.3555
X6.8185Y-5.0805
X6.8685Y-4.9805
X6.89Y-5.1555
X6.89Y-5.2691
X6.8935Y-4.2055
X6.9185Y-4.9305
X6.9185Y-5.1055
X6.9185Y-5.3805
X6.9435Y-4.2055
X6.9435Y-5.4555
X6.9676Y-4.8006
X6.9685Y-3.9555
X6.9685Y-4.3055
X6.9685Y-5.1055
X6.9935Y-4.2055
X7.0185Y-2.6055
X7.0185Y-3.7555
X7.0185Y-3.9055
X7.0359Y-4.2055
X7.065Y-4.3055
X7.0685Y-4.9555
X7.0685Y-5.0555
X7.1935Y-3.4055
X7.2185Y-4.3055
X7.3435Y-2.9305
X7.4185Y-3.0305
X7.4185Y-3.0805
X7.4935Y-2.5555
X7.4935Y-3.0305
X7.4935Y-3.0805
X7.8435Y-2.9805
X7.8435Y-3.0555
X7.8435Y-3.1305
X7.8435Y-3.2055
X7.8435Y-3.2805
X7.8935Y-2.7055
X7.8935Y-3.4055
X7.9435Y-2.9805
X7.9435Y-3.0555
X7.9435Y-3.1305
X7.9435Y-3.2055
X7.9435Y-3.2805
X8.0435Y-2.9805
X8.0435Y-3.0555
X8.0435Y-3.1305
X8.0435Y-3.2055
X8.0435Y-3.2805
X8.0685Y-4.8055
X8.0685Y-4.9055
X8.0685Y-5.0555
X8.0685Y-5.1555
X8.1435Y-2.9805
X8.1435Y-3.0555
X8.1435Y-3.1305
X8.1435Y-3.2055
X8.1435Y-3.2805
T2
X4.0354Y-5.2405
X4.0354Y-5.3405
X4.0354Y-5.4405
X4.0354Y-5.5405
X4.0354Y-5.6405
X4.1354Y-5.2405
X4.1354Y-5.3405
X4.1354Y-5.4405
X4.1354Y-5.5405
X4.1354Y-5.6405
X6.5435Y-2.9805
X6.6435Y-2.9805
X4.6685Y-3.6555
X4.6685Y-3.7555
X2.4606Y-3.7402
X2.4606Y-3.8402
X2.4606Y-3.9402
X2.4606Y-4.0402
X2.4606Y-4.1402
X2.4606Y-4.2402
X7.3819Y-4.0354
X7.3819Y-4.1354
X7.3819Y-4.2354
X2.7185Y-2.7055
X2.7185Y-2.8055
X2.8185Y-2.7055
X2.8185Y-2.8055
X5.9843Y-5.5512
X6.0843Y-5.5512
X6.1843Y-5.5512
X6.2843Y-5.5512
X6.5435Y-3.2555
X6.6435Y-3.2555
X5.7087Y-4.4055
X5.7087Y-4.5055
X5.7087Y-4.6055
X7.9685Y-3.6555
X7.9685Y-3.7555
X4.3307Y-3.7402
X4.3307Y-3.8402
X4.3307Y-3.9402
X4.3307Y-4.0402
X4.3307Y-4.1402
X4.3307Y-4.2402
X4.3307Y-4.3402
X4.3307Y-4.4402
X4.3307Y-4.5402
X4.3307Y-4.6402
X4.3307Y-4.7402
X4.3307Y-4.8402
X4.3307Y-4.9402
X4.3307Y-5.0402
X4.3307Y-5.1402
X4.3307Y-5.2402
X4.3307Y-5.3402
X4.3307Y-5.4402
X4.3307Y-5.5402
X4.3307Y-5.6402
X4.4307Y-3.7402
X4.4307Y-3.8402
X4.4307Y-3.9402
X4.4307Y-4.0402
X4.4307Y-4.1402
X4.4307Y-4.2402
X4.4307Y-4.3402
X4.4307Y-4.4402
X4.4307Y-4.5402
X4.4307Y-4.6402
X4.4307Y-4.7402
X4.4307Y-4.8402
X4.4307Y-4.9402
X4.4307Y-5.0402
X4.4307Y-5.1402
X4.4307Y-5.2402
X4.4307Y-5.3402
X4.4307Y-5.4402
X4.4307Y-5.5402
X4.4307Y-5.6402
X7.2819Y-4.4405
X7.2819Y-4.5405
X7.2819Y-4.6405
X7.2819Y-4.7405
X7.2819Y-4.8405
X7.3819Y-4.4405
X7.3819Y-4.5405
X7.3819Y-4.6405
X7.3819Y-4.7405
X7.3819Y-4.8405
X2.4606Y-4.4055
X2.4606Y-4.5055
X2.4606Y-4.6055
X4.1339Y-4.0354
X4.1339Y-4.1354
X4.1339Y-4.2354
X7.2835Y-5.2405
X7.2835Y-5.3405
X7.2835Y-5.4405
X7.2835Y-5.5405
X7.2835Y-5.6405
X7.3835Y-5.2405
X7.3835Y-5.3405
X7.3835Y-5.4405
X7.3835Y-5.5405
X7.3835Y-5.6405
X2.7165Y-5.5512
X2.8165Y-5.5512
X2.9165Y-5.5512
X3.0165Y-5.5512
X5.7087Y-3.7402
X5.7087Y-3.8402
X5.7087Y-3.9402
X5.7087Y-4.0402
X5.7087Y-4.1402
X5.7087Y-4.2402
X4.0535Y-4.4405
X4.0535Y-4.5405
X4.0535Y-4.6405
X4.0535Y-4.7405
X4.0535Y-4.8405
X4.1535Y-4.4405
X4.1535Y-4.5405
X4.1535Y-4.6405
X4.1535Y-4.7405
X4.1535Y-4.8405
X7.5984Y-3.7402
X7.5984Y-3.8402
X7.5984Y-3.9402
X7.5984Y-4.0402
X7.5984Y-4.1402
X7.5984Y-4.2402
X7.5984Y-4.3402
X7.5984Y-4.4402
X7.5984Y-4.5402
X7.5984Y-4.6402
X7.5984Y-4.7402
X7.5984Y-4.8402
X7.5984Y-4.9402
X7.5984Y-5.0402
X7.5984Y-5.1402
X7.5984Y-5.2402
X7.5984Y-5.3402
X7.5984Y-5.4402
X7.5984Y-5.5402
X7.5984Y-5.6402
X7.6984Y-3.7402
X7.6984Y-3.8402
X7.6984Y-3.9402
X7.6984Y-4.0402
X7.6984Y-4.1402
X7.6984Y-4.2402
X7.6984Y-4.3402
X7.6984Y-4.4402
X7.6984Y-4.5402
X7.6984Y-4.6402
X7.6984Y-4.7402
X7.6984Y-4.8402
X7.6984Y-4.9402
X7.6984Y-5.0402
X7.6984Y-5.1402
X7.6984Y-5.2402
X7.6984Y-5.3402
X7.6984Y-5.4402
X7.6984Y-5.5402
X7.6984Y-5.6402
T2
X7.0079Y-2.1161G85X7.0079Y-2.0571
G05
X7.2106Y-2.126G85X7.1594Y-2.126
G05
X7.2244Y-2.3622G85X7.1457Y-2.3622
G05
X7.3622Y-2.1161G85X7.3622Y-2.0571
G05
X7.5Y-2.1161G85X7.5Y-2.0571
G05
X7.7028Y-2.126G85X7.6516Y-2.126
G05
X7.7165Y-2.3622G85X7.6378Y-2.3622
G05
X7.8543Y-2.1161G85X7.8543Y-2.0571
G05
T0
M30
