G04 #@! TF.GenerationSoftware,KiCad,Pcbnew,5.0.2-bee76a0~70~ubuntu18.04.1*
G04 #@! TF.CreationDate,2019-05-15T21:37:28+02:00*
G04 #@! TF.ProjectId,networkScanner,6e657477-6f72-46b5-9363-616e6e65722e,rev?*
G04 #@! TF.SameCoordinates,Original*
G04 #@! TF.FileFunction,Other,User*
%FSLAX46Y46*%
G04 Gerber Fmt 4.6, Leading zero omitted, Abs format (unit mm)*
G04 Created by KiCad (PCBNEW 5.0.2-bee76a0~70~ubuntu18.04.1) date Mi 15 Mai 2019 21:37:28 CEST*
%MOMM*%
%LPD*%
G01*
G04 APERTURE LIST*
%ADD10C,0.050000*%
G04 APERTURE END LIST*
D10*
G04 #@! TO.C,REF\002A\002A*
X148606000Y-90234000D02*
G75*
G03X148606000Y-90234000I-3450000J0D01*
G01*
X197628000Y-148146000D02*
G75*
G03X197628000Y-148146000I-3450000J0D01*
G01*
X148606000Y-148146000D02*
G75*
G03X148606000Y-148146000I-3450000J0D01*
G01*
X197628000Y-90107000D02*
G75*
G03X197628000Y-90107000I-3450000J0D01*
G01*
X208296000Y-55182000D02*
G75*
G03X208296000Y-55182000I-3450000J0D01*
G01*
X208423000Y-145225000D02*
G75*
G03X208423000Y-145225000I-3450000J0D01*
G01*
X65675000Y-90234000D02*
G75*
G03X65675000Y-90234000I-3450000J0D01*
G01*
X114570000Y-90234000D02*
G75*
G03X114570000Y-90234000I-3450000J0D01*
G01*
X114697000Y-148222000D02*
G75*
G03X114697000Y-148222000I-3450000J0D01*
G01*
X65675000Y-148222000D02*
G75*
G03X65675000Y-148222000I-3450000J0D01*
G01*
X58356000Y-145178000D02*
G75*
G03X58356000Y-145178000I-3450000J0D01*
G01*
X206250000Y-140000000D02*
G75*
G03X206250000Y-140000000I-1250000J0D01*
G01*
X56250000Y-60000000D02*
G75*
G03X56250000Y-60000000I-1250000J0D01*
G01*
G04 #@! TO.C,U1*
X88130000Y-106250000D02*
X88750000Y-106250000D01*
X88750000Y-105630000D02*
X88750000Y-106250000D01*
X88130000Y-107750000D02*
X88130000Y-106250000D01*
X79750000Y-99370000D02*
X79750000Y-105630000D01*
X90250000Y-99370000D02*
X90250000Y-105630000D01*
X81870000Y-97250000D02*
X88130000Y-97250000D01*
X81870000Y-107750000D02*
X88130000Y-107750000D01*
X88750000Y-105630000D02*
X90250000Y-105630000D01*
X88750000Y-99370000D02*
X90250000Y-99370000D01*
X88130000Y-98750000D02*
X88130000Y-97250000D01*
X81870000Y-98750000D02*
X81870000Y-97250000D01*
X81250000Y-99370000D02*
X79750000Y-99370000D01*
X81250000Y-105630000D02*
X79750000Y-105630000D01*
X81870000Y-106250000D02*
X81870000Y-107750000D01*
X88130000Y-98750000D02*
X88750000Y-98750000D01*
X88750000Y-99370000D02*
X88750000Y-98750000D01*
X81250000Y-105630000D02*
X81250000Y-106250000D01*
X81870000Y-106250000D02*
X81250000Y-106250000D01*
X81250000Y-99370000D02*
X81250000Y-98750000D01*
X81870000Y-98750000D02*
X81250000Y-98750000D01*
G04 #@! TO.C,U2*
X173130000Y-106290000D02*
X173750000Y-106290000D01*
X173750000Y-105670000D02*
X173750000Y-106290000D01*
X173130000Y-107790000D02*
X173130000Y-106290000D01*
X164750000Y-99410000D02*
X164750000Y-105670000D01*
X175250000Y-99410000D02*
X175250000Y-105670000D01*
X166870000Y-97290000D02*
X173130000Y-97290000D01*
X166870000Y-107790000D02*
X173130000Y-107790000D01*
X173750000Y-105670000D02*
X175250000Y-105670000D01*
X173750000Y-99410000D02*
X175250000Y-99410000D01*
X173130000Y-98790000D02*
X173130000Y-97290000D01*
X166870000Y-98790000D02*
X166870000Y-97290000D01*
X166250000Y-99410000D02*
X164750000Y-99410000D01*
X166250000Y-105670000D02*
X164750000Y-105670000D01*
X166870000Y-106290000D02*
X166870000Y-107790000D01*
X173130000Y-98790000D02*
X173750000Y-98790000D01*
X173750000Y-99410000D02*
X173750000Y-98790000D01*
X166250000Y-105670000D02*
X166250000Y-106290000D01*
X166870000Y-106290000D02*
X166250000Y-106290000D01*
X166250000Y-99410000D02*
X166250000Y-98790000D01*
X166870000Y-98790000D02*
X166250000Y-98790000D01*
G04 #@! TO.C,J3*
X67200000Y-142800000D02*
X67200000Y-139250000D01*
X67200000Y-139250000D02*
X78400000Y-139250000D01*
X78400000Y-139250000D02*
X78400000Y-142800000D01*
X78400000Y-142800000D02*
X67200000Y-142800000D01*
G04 #@! TO.C,J4*
X161400000Y-142800000D02*
X150200000Y-142800000D01*
X161400000Y-139250000D02*
X161400000Y-142800000D01*
X150200000Y-139250000D02*
X161400000Y-139250000D01*
X150200000Y-142800000D02*
X150200000Y-139250000D01*
G04 #@! TO.C,J5*
X188500000Y-61500000D02*
X188500000Y-47500000D01*
X188500000Y-47500000D02*
X176500000Y-47500000D01*
X176500000Y-47500000D02*
X176500000Y-61500000D01*
X176500000Y-61500000D02*
X188500000Y-61500000D01*
G04 #@! TO.C,J6*
X189000000Y-61500000D02*
X201000000Y-61500000D01*
X189000000Y-47500000D02*
X189000000Y-61500000D01*
X201000000Y-47500000D02*
X189000000Y-47500000D01*
X201000000Y-61500000D02*
X201000000Y-47500000D01*
G04 #@! TO.C,U3*
X191540000Y-73230000D02*
X191540000Y-84530000D01*
X191540000Y-84530000D02*
X208180000Y-84530000D01*
X208180000Y-84530000D02*
X208180000Y-73230000D01*
X208180000Y-73230000D02*
X191540000Y-73230000D01*
G04 #@! TO.C,D1*
X181650000Y-69820000D02*
X172350000Y-69820000D01*
X172350000Y-69820000D02*
X172350000Y-67620000D01*
X172350000Y-67620000D02*
X181650000Y-67620000D01*
X181650000Y-67620000D02*
X181650000Y-69820000D01*
G04 #@! TO.C,D2*
X194350000Y-67620000D02*
X194350000Y-69820000D01*
X185050000Y-67620000D02*
X194350000Y-67620000D01*
X185050000Y-69820000D02*
X185050000Y-67620000D01*
X194350000Y-69820000D02*
X185050000Y-69820000D01*
G04 #@! TO.C,D3*
X182250000Y-84800000D02*
X182250000Y-75500000D01*
X182250000Y-75500000D02*
X184450000Y-75500000D01*
X184450000Y-75500000D02*
X184450000Y-84800000D01*
X184450000Y-84800000D02*
X182250000Y-84800000D01*
G04 #@! TO.C,Q1*
X179110000Y-63160000D02*
X182510000Y-63160000D01*
X182510000Y-63160000D02*
X182510000Y-66660000D01*
X182510000Y-66660000D02*
X179110000Y-66660000D01*
X179110000Y-66660000D02*
X179110000Y-63160000D01*
G04 #@! TO.C,Q2*
X191810000Y-63160000D02*
X195210000Y-63160000D01*
X195210000Y-63160000D02*
X195210000Y-66660000D01*
X195210000Y-66660000D02*
X191810000Y-66660000D01*
X191810000Y-66660000D02*
X191810000Y-63160000D01*
G04 #@! TO.C,Q3*
X185460000Y-83805000D02*
X185460000Y-80305000D01*
X188860000Y-83805000D02*
X185460000Y-83805000D01*
X188860000Y-80305000D02*
X188860000Y-83805000D01*
X185460000Y-80305000D02*
X188860000Y-80305000D01*
G04 #@! TO.C,R1*
X184080000Y-64135000D02*
X184080000Y-67435000D01*
X182620000Y-64135000D02*
X184080000Y-64135000D01*
X182620000Y-67435000D02*
X182620000Y-64135000D01*
X184080000Y-67435000D02*
X182620000Y-67435000D01*
G04 #@! TO.C,R2*
X177380000Y-66910000D02*
X174080000Y-66910000D01*
X177380000Y-65450000D02*
X177380000Y-66910000D01*
X174080000Y-65450000D02*
X177380000Y-65450000D01*
X174080000Y-66910000D02*
X174080000Y-65450000D01*
G04 #@! TO.C,R3*
X196780000Y-67435000D02*
X195320000Y-67435000D01*
X195320000Y-67435000D02*
X195320000Y-64135000D01*
X195320000Y-64135000D02*
X196780000Y-64135000D01*
X196780000Y-64135000D02*
X196780000Y-67435000D01*
G04 #@! TO.C,R4*
X186780000Y-66910000D02*
X186780000Y-65450000D01*
X186780000Y-65450000D02*
X190080000Y-65450000D01*
X190080000Y-65450000D02*
X190080000Y-66910000D01*
X190080000Y-66910000D02*
X186780000Y-66910000D01*
G04 #@! TO.C,R5*
X185510000Y-85325000D02*
X185510000Y-83865000D01*
X185510000Y-83865000D02*
X188810000Y-83865000D01*
X188810000Y-83865000D02*
X188810000Y-85325000D01*
X188810000Y-85325000D02*
X185510000Y-85325000D01*
G04 #@! TO.C,R6*
X185635000Y-75165000D02*
X182335000Y-75165000D01*
X185635000Y-73705000D02*
X185635000Y-75165000D01*
X182335000Y-73705000D02*
X185635000Y-73705000D01*
X182335000Y-75165000D02*
X182335000Y-73705000D01*
G04 #@! TO.C,REF\002A\002A*
X56250000Y-140000000D02*
G75*
G03X56250000Y-140000000I-1250000J0D01*
G01*
G04 #@! TO.C,C1*
X199770000Y-69840000D02*
X194870000Y-69840000D01*
X199770000Y-67600000D02*
X199770000Y-69840000D01*
X194870000Y-67600000D02*
X199770000Y-67600000D01*
X194870000Y-69840000D02*
X194870000Y-67600000D01*
G04 #@! TO.C,C2*
X194870000Y-87620000D02*
X194870000Y-85380000D01*
X194870000Y-85380000D02*
X199770000Y-85380000D01*
X199770000Y-85380000D02*
X199770000Y-87620000D01*
X199770000Y-87620000D02*
X194870000Y-87620000D01*
G04 #@! TO.C,C3*
X74670000Y-102120000D02*
X74670000Y-98820000D01*
X76130000Y-102120000D02*
X74670000Y-102120000D01*
X76130000Y-98820000D02*
X76130000Y-102120000D01*
X74670000Y-98820000D02*
X76130000Y-98820000D01*
G04 #@! TO.C,C4*
X87720000Y-110090000D02*
X87720000Y-108630000D01*
X87720000Y-108630000D02*
X91020000Y-108630000D01*
X91020000Y-108630000D02*
X91020000Y-110090000D01*
X91020000Y-110090000D02*
X87720000Y-110090000D01*
G04 #@! TO.C,C5*
X92640000Y-95885000D02*
X92640000Y-99185000D01*
X91180000Y-95885000D02*
X92640000Y-95885000D01*
X91180000Y-99185000D02*
X91180000Y-95885000D01*
X92640000Y-99185000D02*
X91180000Y-99185000D01*
G04 #@! TO.C,C6*
X79211000Y-94660000D02*
X82511000Y-94660000D01*
X79211000Y-96120000D02*
X79211000Y-94660000D01*
X82511000Y-96120000D02*
X79211000Y-96120000D01*
X82511000Y-94660000D02*
X82511000Y-96120000D01*
G04 #@! TO.C,C7*
X74670000Y-102630000D02*
X76130000Y-102630000D01*
X76130000Y-102630000D02*
X76130000Y-105930000D01*
X76130000Y-105930000D02*
X74670000Y-105930000D01*
X74670000Y-105930000D02*
X74670000Y-102630000D01*
G04 #@! TO.C,C8*
X159760000Y-102120000D02*
X159760000Y-98820000D01*
X161220000Y-102120000D02*
X159760000Y-102120000D01*
X161220000Y-98820000D02*
X161220000Y-102120000D01*
X159760000Y-98820000D02*
X161220000Y-98820000D01*
G04 #@! TO.C,C9*
X176110000Y-110090000D02*
X172810000Y-110090000D01*
X176110000Y-108630000D02*
X176110000Y-110090000D01*
X172810000Y-108630000D02*
X176110000Y-108630000D01*
X172810000Y-110090000D02*
X172810000Y-108630000D01*
G04 #@! TO.C,C10*
X177730000Y-99580000D02*
X176270000Y-99580000D01*
X176270000Y-99580000D02*
X176270000Y-96280000D01*
X176270000Y-96280000D02*
X177730000Y-96280000D01*
X177730000Y-96280000D02*
X177730000Y-99580000D01*
G04 #@! TO.C,C11*
X164315000Y-94660000D02*
X167615000Y-94660000D01*
X164315000Y-96120000D02*
X164315000Y-94660000D01*
X167615000Y-96120000D02*
X164315000Y-96120000D01*
X167615000Y-94660000D02*
X167615000Y-96120000D01*
G04 #@! TO.C,C12*
X159760000Y-102630000D02*
X161220000Y-102630000D01*
X161220000Y-102630000D02*
X161220000Y-105930000D01*
X161220000Y-105930000D02*
X159760000Y-105930000D01*
X159760000Y-105930000D02*
X159760000Y-102630000D01*
G04 #@! TO.C,D4*
X101380000Y-126820000D02*
X97680000Y-126820000D01*
X101380000Y-124920000D02*
X101380000Y-126820000D01*
X97680000Y-124920000D02*
X101380000Y-124920000D01*
X97680000Y-126820000D02*
X97680000Y-124920000D01*
G04 #@! TO.C,D5*
X97680000Y-129360000D02*
X97680000Y-127460000D01*
X97680000Y-127460000D02*
X101380000Y-127460000D01*
X101380000Y-127460000D02*
X101380000Y-129360000D01*
X101380000Y-129360000D02*
X97680000Y-129360000D01*
G04 #@! TO.C,D6*
X180475000Y-126820000D02*
X180475000Y-124920000D01*
X180475000Y-124920000D02*
X184175000Y-124920000D01*
X184175000Y-124920000D02*
X184175000Y-126820000D01*
X184175000Y-126820000D02*
X180475000Y-126820000D01*
G04 #@! TO.C,D7*
X184184000Y-129360000D02*
X180484000Y-129360000D01*
X184184000Y-127460000D02*
X184184000Y-129360000D01*
X180484000Y-127460000D02*
X184184000Y-127460000D01*
X180484000Y-129360000D02*
X180484000Y-127460000D01*
G04 #@! TO.C,D8*
X55415000Y-124280000D02*
X51715000Y-124280000D01*
X55415000Y-122380000D02*
X55415000Y-124280000D01*
X51715000Y-122380000D02*
X55415000Y-122380000D01*
X51715000Y-124280000D02*
X51715000Y-122380000D01*
G04 #@! TO.C,D9*
X51706000Y-127709000D02*
X51706000Y-125809000D01*
X51706000Y-125809000D02*
X55406000Y-125809000D01*
X55406000Y-125809000D02*
X55406000Y-127709000D01*
X55406000Y-127709000D02*
X51706000Y-127709000D01*
G04 #@! TO.C,D10*
X136940000Y-124280000D02*
X133240000Y-124280000D01*
X136940000Y-122380000D02*
X136940000Y-124280000D01*
X133240000Y-122380000D02*
X136940000Y-122380000D01*
X133240000Y-124280000D02*
X133240000Y-122380000D01*
G04 #@! TO.C,D11*
X133240000Y-128090000D02*
X133240000Y-126190000D01*
X133240000Y-126190000D02*
X136940000Y-126190000D01*
X136940000Y-126190000D02*
X136940000Y-128090000D01*
X136940000Y-128090000D02*
X133240000Y-128090000D01*
G04 #@! TO.C,J8*
X103200000Y-100700000D02*
X103200000Y-109350000D01*
X103200000Y-109350000D02*
X106800000Y-109350000D01*
X106800000Y-109350000D02*
X106800000Y-100700000D01*
X106800000Y-100700000D02*
X103200000Y-100700000D01*
G04 #@! TO.C,J9*
X164405000Y-77505000D02*
X170555000Y-77505000D01*
X170555000Y-77505000D02*
X170555000Y-73905000D01*
X170555000Y-73905000D02*
X164405000Y-73905000D01*
X164405000Y-73905000D02*
X164405000Y-77505000D01*
G04 #@! TO.C,J11*
X164405000Y-80890000D02*
X164405000Y-84490000D01*
X170555000Y-80890000D02*
X164405000Y-80890000D01*
X170555000Y-84490000D02*
X170555000Y-80890000D01*
X164405000Y-84490000D02*
X170555000Y-84490000D01*
G04 #@! TO.C,J13*
X185700000Y-100700000D02*
X185700000Y-109350000D01*
X185700000Y-109350000D02*
X189300000Y-109350000D01*
X189300000Y-109350000D02*
X189300000Y-100700000D01*
X189300000Y-100700000D02*
X185700000Y-100700000D01*
G04 #@! TO.C,J17*
X60700000Y-118780000D02*
X64300000Y-118780000D01*
X60700000Y-110130000D02*
X60700000Y-118780000D01*
X64300000Y-110130000D02*
X60700000Y-110130000D01*
X64300000Y-118780000D02*
X64300000Y-110130000D01*
G04 #@! TO.C,J18*
X143200000Y-118780000D02*
X146800000Y-118780000D01*
X143200000Y-110130000D02*
X143200000Y-118780000D01*
X146800000Y-110130000D02*
X143200000Y-110130000D01*
X146800000Y-118780000D02*
X146800000Y-110130000D01*
G04 #@! TO.C,R7*
X121500000Y-129140000D02*
X118200000Y-129140000D01*
X121500000Y-127680000D02*
X121500000Y-129140000D01*
X118200000Y-127680000D02*
X121500000Y-127680000D01*
X118200000Y-129140000D02*
X118200000Y-127680000D01*
G04 #@! TO.C,R8*
X121500000Y-131680000D02*
X118200000Y-131680000D01*
X121500000Y-130220000D02*
X121500000Y-131680000D01*
X118200000Y-130220000D02*
X121500000Y-130220000D01*
X118200000Y-131680000D02*
X118200000Y-130220000D01*
G04 #@! TO.C,R9*
X121500000Y-122790000D02*
X118200000Y-122790000D01*
X121500000Y-121330000D02*
X121500000Y-122790000D01*
X118200000Y-121330000D02*
X121500000Y-121330000D01*
X118200000Y-122790000D02*
X118200000Y-121330000D01*
G04 #@! TO.C,R10*
X118200000Y-125330000D02*
X118200000Y-123870000D01*
X118200000Y-123870000D02*
X121500000Y-123870000D01*
X121500000Y-123870000D02*
X121500000Y-125330000D01*
X121500000Y-125330000D02*
X118200000Y-125330000D01*
G04 #@! TO.C,R11*
X106260000Y-126600000D02*
X102960000Y-126600000D01*
X106260000Y-125140000D02*
X106260000Y-126600000D01*
X102960000Y-125140000D02*
X106260000Y-125140000D01*
X102960000Y-126600000D02*
X102960000Y-125140000D01*
G04 #@! TO.C,R12*
X102960000Y-129140000D02*
X102960000Y-127680000D01*
X102960000Y-127680000D02*
X106260000Y-127680000D01*
X106260000Y-127680000D02*
X106260000Y-129140000D01*
X106260000Y-129140000D02*
X102960000Y-129140000D01*
G04 #@! TO.C,R13*
X190870000Y-85770000D02*
X190870000Y-87230000D01*
X190870000Y-87230000D02*
X187570000Y-87230000D01*
X187570000Y-87230000D02*
X187570000Y-85770000D01*
X187570000Y-85770000D02*
X190870000Y-85770000D01*
G04 #@! TO.C,R14*
X183365000Y-85770000D02*
X186665000Y-85770000D01*
X183365000Y-87230000D02*
X183365000Y-85770000D01*
X186665000Y-87230000D02*
X183365000Y-87230000D01*
X186665000Y-85770000D02*
X186665000Y-87230000D01*
G04 #@! TO.C,R15*
X200750000Y-131680000D02*
X200750000Y-130220000D01*
X200750000Y-130220000D02*
X204050000Y-130220000D01*
X204050000Y-130220000D02*
X204050000Y-131680000D01*
X204050000Y-131680000D02*
X200750000Y-131680000D01*
G04 #@! TO.C,R16*
X200750000Y-129140000D02*
X200750000Y-127680000D01*
X200750000Y-127680000D02*
X204050000Y-127680000D01*
X204050000Y-127680000D02*
X204050000Y-129140000D01*
X204050000Y-129140000D02*
X200750000Y-129140000D01*
G04 #@! TO.C,R17*
X200750000Y-125330000D02*
X200750000Y-123870000D01*
X200750000Y-123870000D02*
X204050000Y-123870000D01*
X204050000Y-123870000D02*
X204050000Y-125330000D01*
X204050000Y-125330000D02*
X200750000Y-125330000D01*
G04 #@! TO.C,R18*
X204050000Y-122790000D02*
X200750000Y-122790000D01*
X204050000Y-121330000D02*
X204050000Y-122790000D01*
X200750000Y-121330000D02*
X204050000Y-121330000D01*
X200750000Y-122790000D02*
X200750000Y-121330000D01*
G04 #@! TO.C,R19*
X188810000Y-126600000D02*
X185510000Y-126600000D01*
X188810000Y-125140000D02*
X188810000Y-126600000D01*
X185510000Y-125140000D02*
X188810000Y-125140000D01*
X185510000Y-126600000D02*
X185510000Y-125140000D01*
G04 #@! TO.C,R20*
X185510000Y-129140000D02*
X185510000Y-127680000D01*
X185510000Y-127680000D02*
X188810000Y-127680000D01*
X188810000Y-127680000D02*
X188810000Y-129140000D01*
X188810000Y-129140000D02*
X185510000Y-129140000D01*
G04 #@! TO.C,R21*
X69940000Y-101010000D02*
X73240000Y-101010000D01*
X69940000Y-102470000D02*
X69940000Y-101010000D01*
X73240000Y-102470000D02*
X69940000Y-102470000D01*
X73240000Y-101010000D02*
X73240000Y-102470000D01*
G04 #@! TO.C,R22*
X59270000Y-124060000D02*
X55970000Y-124060000D01*
X59270000Y-122600000D02*
X59270000Y-124060000D01*
X55970000Y-122600000D02*
X59270000Y-122600000D01*
X55970000Y-124060000D02*
X55970000Y-122600000D01*
G04 #@! TO.C,R23*
X55970000Y-127489000D02*
X55970000Y-126029000D01*
X55970000Y-126029000D02*
X59270000Y-126029000D01*
X59270000Y-126029000D02*
X59270000Y-127489000D01*
X59270000Y-127489000D02*
X55970000Y-127489000D01*
G04 #@! TO.C,R24*
X83910000Y-94850000D02*
X83910000Y-93390000D01*
X83910000Y-93390000D02*
X87210000Y-93390000D01*
X87210000Y-93390000D02*
X87210000Y-94850000D01*
X87210000Y-94850000D02*
X83910000Y-94850000D01*
G04 #@! TO.C,R25*
X155030000Y-101010000D02*
X158330000Y-101010000D01*
X155030000Y-102470000D02*
X155030000Y-101010000D01*
X158330000Y-102470000D02*
X155030000Y-102470000D01*
X158330000Y-101010000D02*
X158330000Y-102470000D01*
G04 #@! TO.C,R26*
X141820000Y-124060000D02*
X138520000Y-124060000D01*
X141820000Y-122600000D02*
X141820000Y-124060000D01*
X138520000Y-122600000D02*
X141820000Y-122600000D01*
X138520000Y-124060000D02*
X138520000Y-122600000D01*
G04 #@! TO.C,R27*
X138520000Y-127870000D02*
X138520000Y-126410000D01*
X138520000Y-126410000D02*
X141820000Y-126410000D01*
X141820000Y-126410000D02*
X141820000Y-127870000D01*
X141820000Y-127870000D02*
X138520000Y-127870000D01*
G04 #@! TO.C,R28*
X169000000Y-94850000D02*
X169000000Y-93390000D01*
X169000000Y-93390000D02*
X172300000Y-93390000D01*
X172300000Y-93390000D02*
X172300000Y-94850000D01*
X172300000Y-94850000D02*
X169000000Y-94850000D01*
G04 #@! TO.C,R29*
X72480000Y-110090000D02*
X72480000Y-108630000D01*
X72480000Y-108630000D02*
X75780000Y-108630000D01*
X75780000Y-108630000D02*
X75780000Y-110090000D01*
X75780000Y-110090000D02*
X72480000Y-110090000D01*
G04 #@! TO.C,R30*
X75780000Y-112630000D02*
X72480000Y-112630000D01*
X75780000Y-111170000D02*
X75780000Y-112630000D01*
X72480000Y-111170000D02*
X75780000Y-111170000D01*
X72480000Y-112630000D02*
X72480000Y-111170000D01*
G04 #@! TO.C,R31*
X72480000Y-115170000D02*
X72480000Y-113710000D01*
X72480000Y-113710000D02*
X75780000Y-113710000D01*
X75780000Y-113710000D02*
X75780000Y-115170000D01*
X75780000Y-115170000D02*
X72480000Y-115170000D01*
G04 #@! TO.C,R32*
X75780000Y-117710000D02*
X72480000Y-117710000D01*
X75780000Y-116250000D02*
X75780000Y-117710000D01*
X72480000Y-116250000D02*
X75780000Y-116250000D01*
X72480000Y-117710000D02*
X72480000Y-116250000D01*
G04 #@! TO.C,R33*
X157570000Y-110090000D02*
X157570000Y-108630000D01*
X157570000Y-108630000D02*
X160870000Y-108630000D01*
X160870000Y-108630000D02*
X160870000Y-110090000D01*
X160870000Y-110090000D02*
X157570000Y-110090000D01*
G04 #@! TO.C,R34*
X160870000Y-112630000D02*
X157570000Y-112630000D01*
X160870000Y-111170000D02*
X160870000Y-112630000D01*
X157570000Y-111170000D02*
X160870000Y-111170000D01*
X157570000Y-112630000D02*
X157570000Y-111170000D01*
G04 #@! TO.C,R35*
X157570000Y-115170000D02*
X157570000Y-113710000D01*
X157570000Y-113710000D02*
X160870000Y-113710000D01*
X160870000Y-113710000D02*
X160870000Y-115170000D01*
X160870000Y-115170000D02*
X157570000Y-115170000D01*
G04 #@! TO.C,R36*
X160870000Y-117710000D02*
X157570000Y-117710000D01*
X160870000Y-116250000D02*
X160870000Y-117710000D01*
X157570000Y-116250000D02*
X160870000Y-116250000D01*
X157570000Y-117710000D02*
X157570000Y-116250000D01*
G04 #@! TO.C,J15*
X60700000Y-93200000D02*
X60700000Y-109500000D01*
X60700000Y-109500000D02*
X64300000Y-109500000D01*
X64300000Y-109500000D02*
X64300000Y-93200000D01*
X64300000Y-93200000D02*
X60700000Y-93200000D01*
G04 #@! TO.C,J16*
X146800000Y-93200000D02*
X143200000Y-93200000D01*
X146800000Y-109500000D02*
X146800000Y-93200000D01*
X143200000Y-109500000D02*
X146800000Y-109500000D01*
X143200000Y-93200000D02*
X143200000Y-109500000D01*
G04 #@! TO.C,R37*
X92322914Y-134744462D02*
X89989462Y-137077914D01*
X91290538Y-133712086D02*
X92322914Y-134744462D01*
X88957086Y-136045538D02*
X91290538Y-133712086D01*
X89989462Y-137077914D02*
X88957086Y-136045538D01*
G04 #@! TO.C,R38*
X92322914Y-137284462D02*
X89989462Y-139617914D01*
X91290538Y-136252086D02*
X92322914Y-137284462D01*
X88957086Y-138585538D02*
X91290538Y-136252086D01*
X89989462Y-139617914D02*
X88957086Y-138585538D01*
G04 #@! TO.C,R39*
X92322914Y-139824462D02*
X89989462Y-142157914D01*
X91290538Y-138792086D02*
X92322914Y-139824462D01*
X88957086Y-141125538D02*
X91290538Y-138792086D01*
X89989462Y-142157914D02*
X88957086Y-141125538D01*
G04 #@! TO.C,R40*
X89989462Y-123107914D02*
X88957086Y-122075538D01*
X88957086Y-122075538D02*
X91290538Y-119742086D01*
X91290538Y-119742086D02*
X92322914Y-120774462D01*
X92322914Y-120774462D02*
X89989462Y-123107914D01*
G04 #@! TO.C,R41*
X92322914Y-118234462D02*
X89989462Y-120567914D01*
X91290538Y-117202086D02*
X92322914Y-118234462D01*
X88957086Y-119535538D02*
X91290538Y-117202086D01*
X89989462Y-120567914D02*
X88957086Y-119535538D01*
G04 #@! TO.C,R42*
X89989462Y-118027914D02*
X88957086Y-116995538D01*
X88957086Y-116995538D02*
X91290538Y-114662086D01*
X91290538Y-114662086D02*
X92322914Y-115694462D01*
X92322914Y-115694462D02*
X89989462Y-118027914D01*
G04 #@! TO.C,R43*
X175507914Y-134744462D02*
X173174462Y-137077914D01*
X174475538Y-133712086D02*
X175507914Y-134744462D01*
X172142086Y-136045538D02*
X174475538Y-133712086D01*
X173174462Y-137077914D02*
X172142086Y-136045538D01*
G04 #@! TO.C,R44*
X173809462Y-139617914D02*
X172777086Y-138585538D01*
X172777086Y-138585538D02*
X175110538Y-136252086D01*
X175110538Y-136252086D02*
X176142914Y-137284462D01*
X176142914Y-137284462D02*
X173809462Y-139617914D01*
G04 #@! TO.C,R45*
X176142914Y-139824462D02*
X173809462Y-142157914D01*
X175110538Y-138792086D02*
X176142914Y-139824462D01*
X172777086Y-141125538D02*
X175110538Y-138792086D01*
X173809462Y-142157914D02*
X172777086Y-141125538D01*
G04 #@! TO.C,R46*
X173809462Y-123107914D02*
X172777086Y-122075538D01*
X172777086Y-122075538D02*
X175110538Y-119742086D01*
X175110538Y-119742086D02*
X176142914Y-120774462D01*
X176142914Y-120774462D02*
X173809462Y-123107914D01*
G04 #@! TO.C,R47*
X173809462Y-120567914D02*
X172777086Y-119535538D01*
X172777086Y-119535538D02*
X175110538Y-117202086D01*
X175110538Y-117202086D02*
X176142914Y-118234462D01*
X176142914Y-118234462D02*
X173809462Y-120567914D01*
G04 #@! TO.C,R48*
X173809462Y-118027914D02*
X172777086Y-116995538D01*
X172777086Y-116995538D02*
X175110538Y-114662086D01*
X175110538Y-114662086D02*
X176142914Y-115694462D01*
X176142914Y-115694462D02*
X173809462Y-118027914D01*
G04 #@! TO.C,J19*
X67250000Y-66920000D02*
X67250000Y-73070000D01*
X67250000Y-73070000D02*
X73400000Y-73070000D01*
X73400000Y-73070000D02*
X73400000Y-66920000D01*
X73400000Y-66920000D02*
X67250000Y-66920000D01*
G04 #@! TO.C,J20*
X120380000Y-97190000D02*
X120380000Y-91040000D01*
X120380000Y-91040000D02*
X116780000Y-91040000D01*
X116780000Y-91040000D02*
X116780000Y-97190000D01*
X116780000Y-97190000D02*
X120380000Y-97190000D01*
G04 #@! TO.C,J21*
X204200000Y-91050000D02*
X200600000Y-91050000D01*
X204200000Y-97200000D02*
X204200000Y-91050000D01*
X200600000Y-97200000D02*
X204200000Y-97200000D01*
X200600000Y-91050000D02*
X200600000Y-97200000D01*
G04 #@! TO.C,R49*
X123120000Y-96165000D02*
X121660000Y-96165000D01*
X121660000Y-96165000D02*
X121660000Y-92865000D01*
X121660000Y-92865000D02*
X123120000Y-92865000D01*
X123120000Y-92865000D02*
X123120000Y-96165000D01*
G04 #@! TO.C,R50*
X208210000Y-92470000D02*
X208210000Y-95770000D01*
X206750000Y-92470000D02*
X208210000Y-92470000D01*
X206750000Y-95770000D02*
X206750000Y-92470000D01*
X208210000Y-95770000D02*
X206750000Y-95770000D01*
G04 #@! TO.C,REF\002A\002A*
X58530000Y-55004000D02*
G75*
G03X58530000Y-55004000I-3450000J0D01*
G01*
G04 #@! TO.C,J7*
X106850000Y-131309000D02*
X100700000Y-131309000D01*
X106850000Y-145059000D02*
X106850000Y-131309000D01*
X100700000Y-145059000D02*
X106850000Y-145059000D01*
X100700000Y-131309000D02*
X100700000Y-145059000D01*
G04 #@! TO.C,J10*
X107299000Y-124749000D02*
X107299000Y-110999000D01*
X107299000Y-110999000D02*
X101149000Y-110999000D01*
X101149000Y-110999000D02*
X101149000Y-124749000D01*
X101149000Y-124749000D02*
X107299000Y-124749000D01*
G04 #@! TO.C,J12*
X183201000Y-131309000D02*
X183201000Y-145059000D01*
X183201000Y-145059000D02*
X189351000Y-145059000D01*
X189351000Y-145059000D02*
X189351000Y-131309000D01*
X189351000Y-131309000D02*
X183201000Y-131309000D01*
G04 #@! TO.C,J14*
X183150000Y-124749000D02*
X189300000Y-124749000D01*
X183150000Y-110999000D02*
X183150000Y-124749000D01*
X189300000Y-110999000D02*
X183150000Y-110999000D01*
X189300000Y-124749000D02*
X189300000Y-110999000D01*
G04 #@! TO.C,R51*
X92322914Y-123203744D02*
X89989462Y-125537196D01*
X91290538Y-122171368D02*
X92322914Y-123203744D01*
X88957086Y-124504820D02*
X91290538Y-122171368D01*
X89989462Y-125537196D02*
X88957086Y-124504820D01*
G04 #@! TO.C,R52*
X89989462Y-134537914D02*
X88957086Y-133505538D01*
X88957086Y-133505538D02*
X91290538Y-131172086D01*
X91290538Y-131172086D02*
X92322914Y-132204462D01*
X92322914Y-132204462D02*
X89989462Y-134537914D01*
G04 #@! TO.C,R53*
X173809462Y-125647914D02*
X172777086Y-124615538D01*
X172777086Y-124615538D02*
X175110538Y-122282086D01*
X175110538Y-122282086D02*
X176142914Y-123314462D01*
X176142914Y-123314462D02*
X173809462Y-125647914D01*
G04 #@! TO.C,R54*
X174872914Y-132204462D02*
X172539462Y-134537914D01*
X173840538Y-131172086D02*
X174872914Y-132204462D01*
X171507086Y-133505538D02*
X173840538Y-131172086D01*
X172539462Y-134537914D02*
X171507086Y-133505538D01*
G04 #@! TD*
M02*
