G04 #@! TF.GenerationSoftware,KiCad,Pcbnew,5.0.2-bee76a0~70~ubuntu18.04.1*
G04 #@! TF.CreationDate,2019-05-15T21:37:28+02:00*
G04 #@! TF.ProjectId,networkScanner,6e657477-6f72-46b5-9363-616e6e65722e,rev?*
G04 #@! TF.SameCoordinates,Original*
G04 #@! TF.FileFunction,Other,Fab,Top*
%FSLAX46Y46*%
G04 Gerber Fmt 4.6, Leading zero omitted, Abs format (unit mm)*
G04 Created by KiCad (PCBNEW 5.0.2-bee76a0~70~ubuntu18.04.1) date Mi 15 Mai 2019 21:37:28 CEST*
%MOMM*%
%LPD*%
G01*
G04 APERTURE LIST*
%ADD10C,0.100000*%
%ADD11C,0.150000*%
%ADD12C,0.060000*%
%ADD13C,0.075000*%
%ADD14C,0.120000*%
%ADD15C,0.080000*%
G04 APERTURE END LIST*
D10*
G04 #@! TO.C,REF\002A\002A*
X206000000Y-140000000D02*
G75*
G03X206000000Y-140000000I-1000000J0D01*
G01*
X56000000Y-60000000D02*
G75*
G03X56000000Y-60000000I-1000000J0D01*
G01*
G04 #@! TO.C,U1*
X82500000Y-99000000D02*
X88500000Y-99000000D01*
X88500000Y-99000000D02*
X88500000Y-106000000D01*
X88500000Y-106000000D02*
X81500000Y-106000000D01*
X81500000Y-106000000D02*
X81500000Y-100000000D01*
X81500000Y-100000000D02*
X82500000Y-99000000D01*
G04 #@! TO.C,U2*
X167500000Y-99040000D02*
X173500000Y-99040000D01*
X173500000Y-99040000D02*
X173500000Y-106040000D01*
X173500000Y-106040000D02*
X166500000Y-106040000D01*
X166500000Y-106040000D02*
X166500000Y-100040000D01*
X166500000Y-100040000D02*
X167500000Y-99040000D01*
G04 #@! TO.C,J3*
X67730000Y-142270000D02*
X67730000Y-140365000D01*
X67730000Y-140365000D02*
X68365000Y-139730000D01*
X68365000Y-139730000D02*
X77890000Y-139730000D01*
X77890000Y-139730000D02*
X77890000Y-142270000D01*
X77890000Y-142270000D02*
X67730000Y-142270000D01*
G04 #@! TO.C,J4*
X160890000Y-142270000D02*
X150730000Y-142270000D01*
X160890000Y-139730000D02*
X160890000Y-142270000D01*
X151365000Y-139730000D02*
X160890000Y-139730000D01*
X150730000Y-140365000D02*
X151365000Y-139730000D01*
X150730000Y-142270000D02*
X150730000Y-140365000D01*
G04 #@! TO.C,J5*
X187500000Y-61000000D02*
X183500000Y-61000000D01*
X183500000Y-61000000D02*
X182500000Y-60000000D01*
X182500000Y-60000000D02*
X181500000Y-61000000D01*
X181500000Y-61000000D02*
X177500000Y-61000000D01*
X177500000Y-61000000D02*
X177500000Y-48000000D01*
X177500000Y-48000000D02*
X187500000Y-48000000D01*
X187500000Y-48000000D02*
X187500000Y-61000000D01*
G04 #@! TO.C,J6*
X200000000Y-48000000D02*
X200000000Y-61000000D01*
X190000000Y-48000000D02*
X200000000Y-48000000D01*
X190000000Y-61000000D02*
X190000000Y-48000000D01*
X194000000Y-61000000D02*
X190000000Y-61000000D01*
X195000000Y-60000000D02*
X194000000Y-61000000D01*
X196000000Y-61000000D02*
X195000000Y-60000000D01*
X200000000Y-61000000D02*
X196000000Y-61000000D01*
G04 #@! TO.C,U3*
X206360000Y-73880000D02*
X207360000Y-73880000D01*
X207360000Y-73880000D02*
X207360000Y-83880000D01*
X207360000Y-83880000D02*
X206360000Y-83880000D01*
X206360000Y-73880000D02*
X206360000Y-83880000D01*
X206360000Y-83880000D02*
X197110000Y-83880000D01*
X197110000Y-83880000D02*
X197110000Y-74880000D01*
X197110000Y-74880000D02*
X198110000Y-73880000D01*
X198110000Y-73880000D02*
X206360000Y-73880000D01*
X197220000Y-74770000D02*
X192410000Y-74770000D01*
X192410000Y-74770000D02*
X192410000Y-75370000D01*
X192410000Y-75370000D02*
X197110000Y-75370000D01*
X197110000Y-76040000D02*
X192410000Y-76040000D01*
X192410000Y-76040000D02*
X192410000Y-76640000D01*
X192410000Y-76640000D02*
X197110000Y-76640000D01*
X197110000Y-77310000D02*
X192410000Y-77310000D01*
X192410000Y-77310000D02*
X192410000Y-77910000D01*
X192410000Y-77910000D02*
X197110000Y-77910000D01*
X197110000Y-78580000D02*
X192410000Y-78580000D01*
X192410000Y-78580000D02*
X192410000Y-79180000D01*
X192410000Y-79180000D02*
X197110000Y-79180000D01*
X197110000Y-79850000D02*
X192410000Y-79850000D01*
X192410000Y-79850000D02*
X192410000Y-80450000D01*
X192410000Y-80450000D02*
X197110000Y-80450000D01*
X197110000Y-81120000D02*
X192410000Y-81120000D01*
X192410000Y-81120000D02*
X192410000Y-81720000D01*
X192410000Y-81720000D02*
X197110000Y-81720000D01*
X197110000Y-82390000D02*
X192410000Y-82390000D01*
X192410000Y-82390000D02*
X192410000Y-82990000D01*
X192410000Y-82990000D02*
X197110000Y-82990000D01*
G04 #@! TO.C,D1*
X175350000Y-69520000D02*
X175350000Y-67920000D01*
X175350000Y-67920000D02*
X178650000Y-67920000D01*
X178650000Y-67920000D02*
X178650000Y-69520000D01*
X178650000Y-69520000D02*
X175350000Y-69520000D01*
X176750000Y-68720000D02*
X176250000Y-68720000D01*
X176750000Y-68320000D02*
X177350000Y-68720000D01*
X176750000Y-69120000D02*
X176750000Y-68320000D01*
X177350000Y-68720000D02*
X176750000Y-69120000D01*
X177350000Y-68720000D02*
X177350000Y-68170000D01*
X177350000Y-68720000D02*
X177350000Y-69270000D01*
X177750000Y-68720000D02*
X177350000Y-68720000D01*
G04 #@! TO.C,D2*
X190450000Y-68720000D02*
X190050000Y-68720000D01*
X190050000Y-68720000D02*
X190050000Y-69270000D01*
X190050000Y-68720000D02*
X190050000Y-68170000D01*
X190050000Y-68720000D02*
X189450000Y-69120000D01*
X189450000Y-69120000D02*
X189450000Y-68320000D01*
X189450000Y-68320000D02*
X190050000Y-68720000D01*
X189450000Y-68720000D02*
X188950000Y-68720000D01*
X191350000Y-69520000D02*
X188050000Y-69520000D01*
X191350000Y-67920000D02*
X191350000Y-69520000D01*
X188050000Y-67920000D02*
X191350000Y-67920000D01*
X188050000Y-69520000D02*
X188050000Y-67920000D01*
G04 #@! TO.C,D3*
X182550000Y-78500000D02*
X184150000Y-78500000D01*
X184150000Y-78500000D02*
X184150000Y-81800000D01*
X184150000Y-81800000D02*
X182550000Y-81800000D01*
X182550000Y-81800000D02*
X182550000Y-78500000D01*
X183350000Y-79900000D02*
X183350000Y-79400000D01*
X183750000Y-79900000D02*
X183350000Y-80500000D01*
X182950000Y-79900000D02*
X183750000Y-79900000D01*
X183350000Y-80500000D02*
X182950000Y-79900000D01*
X183350000Y-80500000D02*
X183900000Y-80500000D01*
X183350000Y-80500000D02*
X182800000Y-80500000D01*
X183350000Y-80900000D02*
X183350000Y-80500000D01*
G04 #@! TO.C,Q1*
X180110000Y-63960000D02*
X180110000Y-66410000D01*
X180660000Y-63390000D02*
X181510000Y-63390000D01*
X180110000Y-63960000D02*
X180660000Y-63390000D01*
X181510000Y-63390000D02*
X181510000Y-66430000D01*
X180110000Y-66430000D02*
X181510000Y-66430000D01*
G04 #@! TO.C,Q2*
X192810000Y-63960000D02*
X192810000Y-66410000D01*
X193360000Y-63390000D02*
X194210000Y-63390000D01*
X192810000Y-63960000D02*
X193360000Y-63390000D01*
X194210000Y-63390000D02*
X194210000Y-66430000D01*
X192810000Y-66430000D02*
X194210000Y-66430000D01*
G04 #@! TO.C,Q3*
X186460000Y-83575000D02*
X187860000Y-83575000D01*
X187860000Y-80535000D02*
X187860000Y-83575000D01*
X186460000Y-81105000D02*
X187010000Y-80535000D01*
X187010000Y-80535000D02*
X187860000Y-80535000D01*
X186460000Y-81105000D02*
X186460000Y-83555000D01*
G04 #@! TO.C,R1*
X183750000Y-64985000D02*
X183750000Y-66585000D01*
X182950000Y-64985000D02*
X183750000Y-64985000D01*
X182950000Y-66585000D02*
X182950000Y-64985000D01*
X183750000Y-66585000D02*
X182950000Y-66585000D01*
G04 #@! TO.C,R2*
X176530000Y-66580000D02*
X174930000Y-66580000D01*
X176530000Y-65780000D02*
X176530000Y-66580000D01*
X174930000Y-65780000D02*
X176530000Y-65780000D01*
X174930000Y-66580000D02*
X174930000Y-65780000D01*
G04 #@! TO.C,R3*
X196450000Y-66585000D02*
X195650000Y-66585000D01*
X195650000Y-66585000D02*
X195650000Y-64985000D01*
X195650000Y-64985000D02*
X196450000Y-64985000D01*
X196450000Y-64985000D02*
X196450000Y-66585000D01*
G04 #@! TO.C,R4*
X187630000Y-66580000D02*
X187630000Y-65780000D01*
X187630000Y-65780000D02*
X189230000Y-65780000D01*
X189230000Y-65780000D02*
X189230000Y-66580000D01*
X189230000Y-66580000D02*
X187630000Y-66580000D01*
G04 #@! TO.C,R5*
X186360000Y-84995000D02*
X186360000Y-84195000D01*
X186360000Y-84195000D02*
X187960000Y-84195000D01*
X187960000Y-84195000D02*
X187960000Y-84995000D01*
X187960000Y-84995000D02*
X186360000Y-84995000D01*
G04 #@! TO.C,R6*
X184785000Y-74835000D02*
X183185000Y-74835000D01*
X184785000Y-74035000D02*
X184785000Y-74835000D01*
X183185000Y-74035000D02*
X184785000Y-74035000D01*
X183185000Y-74835000D02*
X183185000Y-74035000D01*
G04 #@! TO.C,REF\002A\002A*
X56000000Y-140000000D02*
G75*
G03X56000000Y-140000000I-1000000J0D01*
G01*
G04 #@! TO.C,C1*
X198920000Y-69520000D02*
X195720000Y-69520000D01*
X198920000Y-67920000D02*
X198920000Y-69520000D01*
X195720000Y-67920000D02*
X198920000Y-67920000D01*
X195720000Y-69520000D02*
X195720000Y-67920000D01*
G04 #@! TO.C,C2*
X195720000Y-87300000D02*
X195720000Y-85700000D01*
X195720000Y-85700000D02*
X198920000Y-85700000D01*
X198920000Y-85700000D02*
X198920000Y-87300000D01*
X198920000Y-87300000D02*
X195720000Y-87300000D01*
G04 #@! TO.C,C3*
X75000000Y-101270000D02*
X75000000Y-99670000D01*
X75800000Y-101270000D02*
X75000000Y-101270000D01*
X75800000Y-99670000D02*
X75800000Y-101270000D01*
X75000000Y-99670000D02*
X75800000Y-99670000D01*
G04 #@! TO.C,C4*
X88570000Y-109760000D02*
X88570000Y-108960000D01*
X88570000Y-108960000D02*
X90170000Y-108960000D01*
X90170000Y-108960000D02*
X90170000Y-109760000D01*
X90170000Y-109760000D02*
X88570000Y-109760000D01*
G04 #@! TO.C,C5*
X92310000Y-96735000D02*
X92310000Y-98335000D01*
X91510000Y-96735000D02*
X92310000Y-96735000D01*
X91510000Y-98335000D02*
X91510000Y-96735000D01*
X92310000Y-98335000D02*
X91510000Y-98335000D01*
G04 #@! TO.C,C6*
X80061000Y-94990000D02*
X81661000Y-94990000D01*
X80061000Y-95790000D02*
X80061000Y-94990000D01*
X81661000Y-95790000D02*
X80061000Y-95790000D01*
X81661000Y-94990000D02*
X81661000Y-95790000D01*
G04 #@! TO.C,C7*
X75000000Y-103480000D02*
X75800000Y-103480000D01*
X75800000Y-103480000D02*
X75800000Y-105080000D01*
X75800000Y-105080000D02*
X75000000Y-105080000D01*
X75000000Y-105080000D02*
X75000000Y-103480000D01*
G04 #@! TO.C,C8*
X160090000Y-101270000D02*
X160090000Y-99670000D01*
X160890000Y-101270000D02*
X160090000Y-101270000D01*
X160890000Y-99670000D02*
X160890000Y-101270000D01*
X160090000Y-99670000D02*
X160890000Y-99670000D01*
G04 #@! TO.C,C9*
X175260000Y-109760000D02*
X173660000Y-109760000D01*
X175260000Y-108960000D02*
X175260000Y-109760000D01*
X173660000Y-108960000D02*
X175260000Y-108960000D01*
X173660000Y-109760000D02*
X173660000Y-108960000D01*
G04 #@! TO.C,C10*
X177400000Y-98730000D02*
X176600000Y-98730000D01*
X176600000Y-98730000D02*
X176600000Y-97130000D01*
X176600000Y-97130000D02*
X177400000Y-97130000D01*
X177400000Y-97130000D02*
X177400000Y-98730000D01*
G04 #@! TO.C,C11*
X165165000Y-94990000D02*
X166765000Y-94990000D01*
X165165000Y-95790000D02*
X165165000Y-94990000D01*
X166765000Y-95790000D02*
X165165000Y-95790000D01*
X166765000Y-94990000D02*
X166765000Y-95790000D01*
G04 #@! TO.C,C12*
X160090000Y-103480000D02*
X160890000Y-103480000D01*
X160890000Y-103480000D02*
X160890000Y-105080000D01*
X160890000Y-105080000D02*
X160090000Y-105080000D01*
X160090000Y-105080000D02*
X160090000Y-103480000D01*
G04 #@! TO.C,D4*
X100530000Y-126470000D02*
X100530000Y-125270000D01*
X98530000Y-126470000D02*
X100530000Y-126470000D01*
X98530000Y-125570000D02*
X98530000Y-126470000D01*
X98830000Y-125270000D02*
X98530000Y-125570000D01*
X100530000Y-125270000D02*
X98830000Y-125270000D01*
G04 #@! TO.C,D5*
X100530000Y-127810000D02*
X98830000Y-127810000D01*
X98830000Y-127810000D02*
X98530000Y-128110000D01*
X98530000Y-128110000D02*
X98530000Y-129010000D01*
X98530000Y-129010000D02*
X100530000Y-129010000D01*
X100530000Y-129010000D02*
X100530000Y-127810000D01*
G04 #@! TO.C,D6*
X183325000Y-125270000D02*
X181625000Y-125270000D01*
X181625000Y-125270000D02*
X181325000Y-125570000D01*
X181325000Y-125570000D02*
X181325000Y-126470000D01*
X181325000Y-126470000D02*
X183325000Y-126470000D01*
X183325000Y-126470000D02*
X183325000Y-125270000D01*
G04 #@! TO.C,D7*
X183334000Y-129010000D02*
X183334000Y-127810000D01*
X181334000Y-129010000D02*
X183334000Y-129010000D01*
X181334000Y-128110000D02*
X181334000Y-129010000D01*
X181634000Y-127810000D02*
X181334000Y-128110000D01*
X183334000Y-127810000D02*
X181634000Y-127810000D01*
G04 #@! TO.C,D8*
X54565000Y-123930000D02*
X54565000Y-122730000D01*
X52565000Y-123930000D02*
X54565000Y-123930000D01*
X52565000Y-123030000D02*
X52565000Y-123930000D01*
X52865000Y-122730000D02*
X52565000Y-123030000D01*
X54565000Y-122730000D02*
X52865000Y-122730000D01*
G04 #@! TO.C,D9*
X54556000Y-126159000D02*
X52856000Y-126159000D01*
X52856000Y-126159000D02*
X52556000Y-126459000D01*
X52556000Y-126459000D02*
X52556000Y-127359000D01*
X52556000Y-127359000D02*
X54556000Y-127359000D01*
X54556000Y-127359000D02*
X54556000Y-126159000D01*
G04 #@! TO.C,D10*
X136090000Y-123930000D02*
X136090000Y-122730000D01*
X134090000Y-123930000D02*
X136090000Y-123930000D01*
X134090000Y-123030000D02*
X134090000Y-123930000D01*
X134390000Y-122730000D02*
X134090000Y-123030000D01*
X136090000Y-122730000D02*
X134390000Y-122730000D01*
G04 #@! TO.C,D11*
X136090000Y-126540000D02*
X134390000Y-126540000D01*
X134390000Y-126540000D02*
X134090000Y-126840000D01*
X134090000Y-126840000D02*
X134090000Y-127740000D01*
X134090000Y-127740000D02*
X136090000Y-127740000D01*
X136090000Y-127740000D02*
X136090000Y-126540000D01*
G04 #@! TO.C,J8*
X104365000Y-101230000D02*
X106270000Y-101230000D01*
X106270000Y-101230000D02*
X106270000Y-108850000D01*
X106270000Y-108850000D02*
X103730000Y-108850000D01*
X103730000Y-108850000D02*
X103730000Y-101865000D01*
X103730000Y-101865000D02*
X104365000Y-101230000D01*
G04 #@! TO.C,J9*
X164935000Y-76340000D02*
X164935000Y-74435000D01*
X164935000Y-74435000D02*
X170015000Y-74435000D01*
X170015000Y-74435000D02*
X170015000Y-76975000D01*
X170015000Y-76975000D02*
X165570000Y-76975000D01*
X165570000Y-76975000D02*
X164935000Y-76340000D01*
G04 #@! TO.C,J11*
X165570000Y-83960000D02*
X164935000Y-83325000D01*
X170015000Y-83960000D02*
X165570000Y-83960000D01*
X170015000Y-81420000D02*
X170015000Y-83960000D01*
X164935000Y-81420000D02*
X170015000Y-81420000D01*
X164935000Y-83325000D02*
X164935000Y-81420000D01*
G04 #@! TO.C,J13*
X186865000Y-101230000D02*
X188770000Y-101230000D01*
X188770000Y-101230000D02*
X188770000Y-108850000D01*
X188770000Y-108850000D02*
X186230000Y-108850000D01*
X186230000Y-108850000D02*
X186230000Y-101865000D01*
X186230000Y-101865000D02*
X186865000Y-101230000D01*
G04 #@! TO.C,J17*
X63770000Y-117615000D02*
X63135000Y-118250000D01*
X63770000Y-110630000D02*
X63770000Y-117615000D01*
X61230000Y-110630000D02*
X63770000Y-110630000D01*
X61230000Y-118250000D02*
X61230000Y-110630000D01*
X63135000Y-118250000D02*
X61230000Y-118250000D01*
G04 #@! TO.C,J18*
X146270000Y-117615000D02*
X145635000Y-118250000D01*
X146270000Y-110630000D02*
X146270000Y-117615000D01*
X143730000Y-110630000D02*
X146270000Y-110630000D01*
X143730000Y-118250000D02*
X143730000Y-110630000D01*
X145635000Y-118250000D02*
X143730000Y-118250000D01*
G04 #@! TO.C,R7*
X120650000Y-128810000D02*
X119050000Y-128810000D01*
X120650000Y-128010000D02*
X120650000Y-128810000D01*
X119050000Y-128010000D02*
X120650000Y-128010000D01*
X119050000Y-128810000D02*
X119050000Y-128010000D01*
G04 #@! TO.C,R8*
X120650000Y-131350000D02*
X119050000Y-131350000D01*
X120650000Y-130550000D02*
X120650000Y-131350000D01*
X119050000Y-130550000D02*
X120650000Y-130550000D01*
X119050000Y-131350000D02*
X119050000Y-130550000D01*
G04 #@! TO.C,R9*
X120650000Y-122460000D02*
X119050000Y-122460000D01*
X120650000Y-121660000D02*
X120650000Y-122460000D01*
X119050000Y-121660000D02*
X120650000Y-121660000D01*
X119050000Y-122460000D02*
X119050000Y-121660000D01*
G04 #@! TO.C,R10*
X119050000Y-125000000D02*
X119050000Y-124200000D01*
X119050000Y-124200000D02*
X120650000Y-124200000D01*
X120650000Y-124200000D02*
X120650000Y-125000000D01*
X120650000Y-125000000D02*
X119050000Y-125000000D01*
G04 #@! TO.C,R11*
X105410000Y-126270000D02*
X103810000Y-126270000D01*
X105410000Y-125470000D02*
X105410000Y-126270000D01*
X103810000Y-125470000D02*
X105410000Y-125470000D01*
X103810000Y-126270000D02*
X103810000Y-125470000D01*
G04 #@! TO.C,R12*
X103810000Y-128810000D02*
X103810000Y-128010000D01*
X103810000Y-128010000D02*
X105410000Y-128010000D01*
X105410000Y-128010000D02*
X105410000Y-128810000D01*
X105410000Y-128810000D02*
X103810000Y-128810000D01*
G04 #@! TO.C,R13*
X190020000Y-86100000D02*
X190020000Y-86900000D01*
X190020000Y-86900000D02*
X188420000Y-86900000D01*
X188420000Y-86900000D02*
X188420000Y-86100000D01*
X188420000Y-86100000D02*
X190020000Y-86100000D01*
G04 #@! TO.C,R14*
X184215000Y-86100000D02*
X185815000Y-86100000D01*
X184215000Y-86900000D02*
X184215000Y-86100000D01*
X185815000Y-86900000D02*
X184215000Y-86900000D01*
X185815000Y-86100000D02*
X185815000Y-86900000D01*
G04 #@! TO.C,R15*
X201600000Y-131350000D02*
X201600000Y-130550000D01*
X201600000Y-130550000D02*
X203200000Y-130550000D01*
X203200000Y-130550000D02*
X203200000Y-131350000D01*
X203200000Y-131350000D02*
X201600000Y-131350000D01*
G04 #@! TO.C,R16*
X201600000Y-128810000D02*
X201600000Y-128010000D01*
X201600000Y-128010000D02*
X203200000Y-128010000D01*
X203200000Y-128010000D02*
X203200000Y-128810000D01*
X203200000Y-128810000D02*
X201600000Y-128810000D01*
G04 #@! TO.C,R17*
X201600000Y-125000000D02*
X201600000Y-124200000D01*
X201600000Y-124200000D02*
X203200000Y-124200000D01*
X203200000Y-124200000D02*
X203200000Y-125000000D01*
X203200000Y-125000000D02*
X201600000Y-125000000D01*
G04 #@! TO.C,R18*
X203200000Y-122460000D02*
X201600000Y-122460000D01*
X203200000Y-121660000D02*
X203200000Y-122460000D01*
X201600000Y-121660000D02*
X203200000Y-121660000D01*
X201600000Y-122460000D02*
X201600000Y-121660000D01*
G04 #@! TO.C,R19*
X187960000Y-126270000D02*
X186360000Y-126270000D01*
X187960000Y-125470000D02*
X187960000Y-126270000D01*
X186360000Y-125470000D02*
X187960000Y-125470000D01*
X186360000Y-126270000D02*
X186360000Y-125470000D01*
G04 #@! TO.C,R20*
X186360000Y-128810000D02*
X186360000Y-128010000D01*
X186360000Y-128010000D02*
X187960000Y-128010000D01*
X187960000Y-128010000D02*
X187960000Y-128810000D01*
X187960000Y-128810000D02*
X186360000Y-128810000D01*
G04 #@! TO.C,R21*
X70790000Y-101340000D02*
X72390000Y-101340000D01*
X70790000Y-102140000D02*
X70790000Y-101340000D01*
X72390000Y-102140000D02*
X70790000Y-102140000D01*
X72390000Y-101340000D02*
X72390000Y-102140000D01*
G04 #@! TO.C,R22*
X58420000Y-123730000D02*
X56820000Y-123730000D01*
X58420000Y-122930000D02*
X58420000Y-123730000D01*
X56820000Y-122930000D02*
X58420000Y-122930000D01*
X56820000Y-123730000D02*
X56820000Y-122930000D01*
G04 #@! TO.C,R23*
X56820000Y-127159000D02*
X56820000Y-126359000D01*
X56820000Y-126359000D02*
X58420000Y-126359000D01*
X58420000Y-126359000D02*
X58420000Y-127159000D01*
X58420000Y-127159000D02*
X56820000Y-127159000D01*
G04 #@! TO.C,R24*
X84760000Y-94520000D02*
X84760000Y-93720000D01*
X84760000Y-93720000D02*
X86360000Y-93720000D01*
X86360000Y-93720000D02*
X86360000Y-94520000D01*
X86360000Y-94520000D02*
X84760000Y-94520000D01*
G04 #@! TO.C,R25*
X155880000Y-101340000D02*
X157480000Y-101340000D01*
X155880000Y-102140000D02*
X155880000Y-101340000D01*
X157480000Y-102140000D02*
X155880000Y-102140000D01*
X157480000Y-101340000D02*
X157480000Y-102140000D01*
G04 #@! TO.C,R26*
X140970000Y-123730000D02*
X139370000Y-123730000D01*
X140970000Y-122930000D02*
X140970000Y-123730000D01*
X139370000Y-122930000D02*
X140970000Y-122930000D01*
X139370000Y-123730000D02*
X139370000Y-122930000D01*
G04 #@! TO.C,R27*
X139370000Y-127540000D02*
X139370000Y-126740000D01*
X139370000Y-126740000D02*
X140970000Y-126740000D01*
X140970000Y-126740000D02*
X140970000Y-127540000D01*
X140970000Y-127540000D02*
X139370000Y-127540000D01*
G04 #@! TO.C,R28*
X169850000Y-94520000D02*
X169850000Y-93720000D01*
X169850000Y-93720000D02*
X171450000Y-93720000D01*
X171450000Y-93720000D02*
X171450000Y-94520000D01*
X171450000Y-94520000D02*
X169850000Y-94520000D01*
G04 #@! TO.C,R29*
X73330000Y-109760000D02*
X73330000Y-108960000D01*
X73330000Y-108960000D02*
X74930000Y-108960000D01*
X74930000Y-108960000D02*
X74930000Y-109760000D01*
X74930000Y-109760000D02*
X73330000Y-109760000D01*
G04 #@! TO.C,R30*
X74930000Y-112300000D02*
X73330000Y-112300000D01*
X74930000Y-111500000D02*
X74930000Y-112300000D01*
X73330000Y-111500000D02*
X74930000Y-111500000D01*
X73330000Y-112300000D02*
X73330000Y-111500000D01*
G04 #@! TO.C,R31*
X73330000Y-114840000D02*
X73330000Y-114040000D01*
X73330000Y-114040000D02*
X74930000Y-114040000D01*
X74930000Y-114040000D02*
X74930000Y-114840000D01*
X74930000Y-114840000D02*
X73330000Y-114840000D01*
G04 #@! TO.C,R32*
X74930000Y-117380000D02*
X73330000Y-117380000D01*
X74930000Y-116580000D02*
X74930000Y-117380000D01*
X73330000Y-116580000D02*
X74930000Y-116580000D01*
X73330000Y-117380000D02*
X73330000Y-116580000D01*
G04 #@! TO.C,R33*
X158420000Y-109760000D02*
X158420000Y-108960000D01*
X158420000Y-108960000D02*
X160020000Y-108960000D01*
X160020000Y-108960000D02*
X160020000Y-109760000D01*
X160020000Y-109760000D02*
X158420000Y-109760000D01*
G04 #@! TO.C,R34*
X160020000Y-112300000D02*
X158420000Y-112300000D01*
X160020000Y-111500000D02*
X160020000Y-112300000D01*
X158420000Y-111500000D02*
X160020000Y-111500000D01*
X158420000Y-112300000D02*
X158420000Y-111500000D01*
G04 #@! TO.C,R35*
X158420000Y-114840000D02*
X158420000Y-114040000D01*
X158420000Y-114040000D02*
X160020000Y-114040000D01*
X160020000Y-114040000D02*
X160020000Y-114840000D01*
X160020000Y-114840000D02*
X158420000Y-114840000D01*
G04 #@! TO.C,R36*
X160020000Y-117380000D02*
X158420000Y-117380000D01*
X160020000Y-116580000D02*
X160020000Y-117380000D01*
X158420000Y-116580000D02*
X160020000Y-116580000D01*
X158420000Y-117380000D02*
X158420000Y-116580000D01*
G04 #@! TO.C,J15*
X61865000Y-93730000D02*
X63770000Y-93730000D01*
X63770000Y-93730000D02*
X63770000Y-108970000D01*
X63770000Y-108970000D02*
X61230000Y-108970000D01*
X61230000Y-108970000D02*
X61230000Y-94365000D01*
X61230000Y-94365000D02*
X61865000Y-93730000D01*
G04 #@! TO.C,J16*
X143730000Y-94365000D02*
X144365000Y-93730000D01*
X143730000Y-108970000D02*
X143730000Y-94365000D01*
X146270000Y-108970000D02*
X143730000Y-108970000D01*
X146270000Y-93730000D02*
X146270000Y-108970000D01*
X144365000Y-93730000D02*
X146270000Y-93730000D01*
G04 #@! TO.C,R37*
X91488528Y-135112157D02*
X90357157Y-136243528D01*
X90922843Y-134546472D02*
X91488528Y-135112157D01*
X89791472Y-135677843D02*
X90922843Y-134546472D01*
X90357157Y-136243528D02*
X89791472Y-135677843D01*
G04 #@! TO.C,R38*
X91488528Y-137652157D02*
X90357157Y-138783528D01*
X90922843Y-137086472D02*
X91488528Y-137652157D01*
X89791472Y-138217843D02*
X90922843Y-137086472D01*
X90357157Y-138783528D02*
X89791472Y-138217843D01*
G04 #@! TO.C,R39*
X91488528Y-140192157D02*
X90357157Y-141323528D01*
X90922843Y-139626472D02*
X91488528Y-140192157D01*
X89791472Y-140757843D02*
X90922843Y-139626472D01*
X90357157Y-141323528D02*
X89791472Y-140757843D01*
G04 #@! TO.C,R40*
X90357157Y-122273528D02*
X89791472Y-121707843D01*
X89791472Y-121707843D02*
X90922843Y-120576472D01*
X90922843Y-120576472D02*
X91488528Y-121142157D01*
X91488528Y-121142157D02*
X90357157Y-122273528D01*
G04 #@! TO.C,R41*
X91488528Y-118602157D02*
X90357157Y-119733528D01*
X90922843Y-118036472D02*
X91488528Y-118602157D01*
X89791472Y-119167843D02*
X90922843Y-118036472D01*
X90357157Y-119733528D02*
X89791472Y-119167843D01*
G04 #@! TO.C,R42*
X90357157Y-117193528D02*
X89791472Y-116627843D01*
X89791472Y-116627843D02*
X90922843Y-115496472D01*
X90922843Y-115496472D02*
X91488528Y-116062157D01*
X91488528Y-116062157D02*
X90357157Y-117193528D01*
G04 #@! TO.C,R43*
X174673528Y-135112157D02*
X173542157Y-136243528D01*
X174107843Y-134546472D02*
X174673528Y-135112157D01*
X172976472Y-135677843D02*
X174107843Y-134546472D01*
X173542157Y-136243528D02*
X172976472Y-135677843D01*
G04 #@! TO.C,R44*
X174177157Y-138783528D02*
X173611472Y-138217843D01*
X173611472Y-138217843D02*
X174742843Y-137086472D01*
X174742843Y-137086472D02*
X175308528Y-137652157D01*
X175308528Y-137652157D02*
X174177157Y-138783528D01*
G04 #@! TO.C,R45*
X175308528Y-140192157D02*
X174177157Y-141323528D01*
X174742843Y-139626472D02*
X175308528Y-140192157D01*
X173611472Y-140757843D02*
X174742843Y-139626472D01*
X174177157Y-141323528D02*
X173611472Y-140757843D01*
G04 #@! TO.C,R46*
X174177157Y-122273528D02*
X173611472Y-121707843D01*
X173611472Y-121707843D02*
X174742843Y-120576472D01*
X174742843Y-120576472D02*
X175308528Y-121142157D01*
X175308528Y-121142157D02*
X174177157Y-122273528D01*
G04 #@! TO.C,R47*
X174177157Y-119733528D02*
X173611472Y-119167843D01*
X173611472Y-119167843D02*
X174742843Y-118036472D01*
X174742843Y-118036472D02*
X175308528Y-118602157D01*
X175308528Y-118602157D02*
X174177157Y-119733528D01*
G04 #@! TO.C,R48*
X174177157Y-117193528D02*
X173611472Y-116627843D01*
X173611472Y-116627843D02*
X174742843Y-115496472D01*
X174742843Y-115496472D02*
X175308528Y-116062157D01*
X175308528Y-116062157D02*
X174177157Y-117193528D01*
G04 #@! TO.C,J19*
X69050000Y-67450000D02*
X72860000Y-67450000D01*
X72860000Y-67450000D02*
X72860000Y-72530000D01*
X72860000Y-72530000D02*
X67780000Y-72530000D01*
X67780000Y-72530000D02*
X67780000Y-68720000D01*
X67780000Y-68720000D02*
X69050000Y-67450000D01*
G04 #@! TO.C,J20*
X119215000Y-96660000D02*
X117310000Y-96660000D01*
X117310000Y-96660000D02*
X117310000Y-91580000D01*
X117310000Y-91580000D02*
X119850000Y-91580000D01*
X119850000Y-91580000D02*
X119850000Y-96025000D01*
X119850000Y-96025000D02*
X119215000Y-96660000D01*
G04 #@! TO.C,J21*
X201130000Y-92215000D02*
X201765000Y-91580000D01*
X201130000Y-96660000D02*
X201130000Y-92215000D01*
X203670000Y-96660000D02*
X201130000Y-96660000D01*
X203670000Y-91580000D02*
X203670000Y-96660000D01*
X201765000Y-91580000D02*
X203670000Y-91580000D01*
G04 #@! TO.C,R49*
X122790000Y-95315000D02*
X121990000Y-95315000D01*
X121990000Y-95315000D02*
X121990000Y-93715000D01*
X121990000Y-93715000D02*
X122790000Y-93715000D01*
X122790000Y-93715000D02*
X122790000Y-95315000D01*
G04 #@! TO.C,R50*
X207880000Y-93320000D02*
X207880000Y-94920000D01*
X207080000Y-93320000D02*
X207880000Y-93320000D01*
X207080000Y-94920000D02*
X207080000Y-93320000D01*
X207880000Y-94920000D02*
X207080000Y-94920000D01*
G04 #@! TO.C,J7*
X101230000Y-133109000D02*
X102500000Y-131839000D01*
X101230000Y-144539000D02*
X101230000Y-133109000D01*
X106310000Y-144539000D02*
X101230000Y-144539000D01*
X106310000Y-131839000D02*
X106310000Y-144539000D01*
X102500000Y-131839000D02*
X106310000Y-131839000D01*
G04 #@! TO.C,J10*
X105499000Y-124219000D02*
X101689000Y-124219000D01*
X101689000Y-124219000D02*
X101689000Y-111519000D01*
X101689000Y-111519000D02*
X106769000Y-111519000D01*
X106769000Y-111519000D02*
X106769000Y-122949000D01*
X106769000Y-122949000D02*
X105499000Y-124219000D01*
G04 #@! TO.C,J12*
X185001000Y-131839000D02*
X188811000Y-131839000D01*
X188811000Y-131839000D02*
X188811000Y-144539000D01*
X188811000Y-144539000D02*
X183731000Y-144539000D01*
X183731000Y-144539000D02*
X183731000Y-133109000D01*
X183731000Y-133109000D02*
X185001000Y-131839000D01*
G04 #@! TO.C,J14*
X188770000Y-122949000D02*
X187500000Y-124219000D01*
X188770000Y-111519000D02*
X188770000Y-122949000D01*
X183690000Y-111519000D02*
X188770000Y-111519000D01*
X183690000Y-124219000D02*
X183690000Y-111519000D01*
X187500000Y-124219000D02*
X183690000Y-124219000D01*
G04 #@! TO.C,R51*
X91488528Y-123571439D02*
X90357157Y-124702810D01*
X90922843Y-123005754D02*
X91488528Y-123571439D01*
X89791472Y-124137125D02*
X90922843Y-123005754D01*
X90357157Y-124702810D02*
X89791472Y-124137125D01*
G04 #@! TO.C,R52*
X90357157Y-133703528D02*
X89791472Y-133137843D01*
X89791472Y-133137843D02*
X90922843Y-132006472D01*
X90922843Y-132006472D02*
X91488528Y-132572157D01*
X91488528Y-132572157D02*
X90357157Y-133703528D01*
G04 #@! TO.C,R53*
X174177157Y-124813528D02*
X173611472Y-124247843D01*
X173611472Y-124247843D02*
X174742843Y-123116472D01*
X174742843Y-123116472D02*
X175308528Y-123682157D01*
X175308528Y-123682157D02*
X174177157Y-124813528D01*
G04 #@! TO.C,R54*
X174038528Y-132572157D02*
X172907157Y-133703528D01*
X173472843Y-132006472D02*
X174038528Y-132572157D01*
X172341472Y-133137843D02*
X173472843Y-132006472D01*
X172907157Y-133703528D02*
X172341472Y-133137843D01*
G04 #@! TD*
G04 #@! TO.C,REF\002A\002A*
D11*
X144122666Y-90686380D02*
X143789333Y-90210190D01*
X143551238Y-90686380D02*
X143551238Y-89686380D01*
X143932190Y-89686380D01*
X144027428Y-89734000D01*
X144075047Y-89781619D01*
X144122666Y-89876857D01*
X144122666Y-90019714D01*
X144075047Y-90114952D01*
X144027428Y-90162571D01*
X143932190Y-90210190D01*
X143551238Y-90210190D01*
X144551238Y-90162571D02*
X144884571Y-90162571D01*
X145027428Y-90686380D02*
X144551238Y-90686380D01*
X144551238Y-89686380D01*
X145027428Y-89686380D01*
X145789333Y-90162571D02*
X145456000Y-90162571D01*
X145456000Y-90686380D02*
X145456000Y-89686380D01*
X145932190Y-89686380D01*
X146456000Y-89686380D02*
X146456000Y-89924476D01*
X146217904Y-89829238D02*
X146456000Y-89924476D01*
X146694095Y-89829238D01*
X146313142Y-90114952D02*
X146456000Y-89924476D01*
X146598857Y-90114952D01*
X147217904Y-89686380D02*
X147217904Y-89924476D01*
X146979809Y-89829238D02*
X147217904Y-89924476D01*
X147456000Y-89829238D01*
X147075047Y-90114952D02*
X147217904Y-89924476D01*
X147360761Y-90114952D01*
X193144666Y-148598380D02*
X192811333Y-148122190D01*
X192573238Y-148598380D02*
X192573238Y-147598380D01*
X192954190Y-147598380D01*
X193049428Y-147646000D01*
X193097047Y-147693619D01*
X193144666Y-147788857D01*
X193144666Y-147931714D01*
X193097047Y-148026952D01*
X193049428Y-148074571D01*
X192954190Y-148122190D01*
X192573238Y-148122190D01*
X193573238Y-148074571D02*
X193906571Y-148074571D01*
X194049428Y-148598380D02*
X193573238Y-148598380D01*
X193573238Y-147598380D01*
X194049428Y-147598380D01*
X194811333Y-148074571D02*
X194478000Y-148074571D01*
X194478000Y-148598380D02*
X194478000Y-147598380D01*
X194954190Y-147598380D01*
X195478000Y-147598380D02*
X195478000Y-147836476D01*
X195239904Y-147741238D02*
X195478000Y-147836476D01*
X195716095Y-147741238D01*
X195335142Y-148026952D02*
X195478000Y-147836476D01*
X195620857Y-148026952D01*
X196239904Y-147598380D02*
X196239904Y-147836476D01*
X196001809Y-147741238D02*
X196239904Y-147836476D01*
X196478000Y-147741238D01*
X196097047Y-148026952D02*
X196239904Y-147836476D01*
X196382761Y-148026952D01*
X144122666Y-148598380D02*
X143789333Y-148122190D01*
X143551238Y-148598380D02*
X143551238Y-147598380D01*
X143932190Y-147598380D01*
X144027428Y-147646000D01*
X144075047Y-147693619D01*
X144122666Y-147788857D01*
X144122666Y-147931714D01*
X144075047Y-148026952D01*
X144027428Y-148074571D01*
X143932190Y-148122190D01*
X143551238Y-148122190D01*
X144551238Y-148074571D02*
X144884571Y-148074571D01*
X145027428Y-148598380D02*
X144551238Y-148598380D01*
X144551238Y-147598380D01*
X145027428Y-147598380D01*
X145789333Y-148074571D02*
X145456000Y-148074571D01*
X145456000Y-148598380D02*
X145456000Y-147598380D01*
X145932190Y-147598380D01*
X146456000Y-147598380D02*
X146456000Y-147836476D01*
X146217904Y-147741238D02*
X146456000Y-147836476D01*
X146694095Y-147741238D01*
X146313142Y-148026952D02*
X146456000Y-147836476D01*
X146598857Y-148026952D01*
X147217904Y-147598380D02*
X147217904Y-147836476D01*
X146979809Y-147741238D02*
X147217904Y-147836476D01*
X147456000Y-147741238D01*
X147075047Y-148026952D02*
X147217904Y-147836476D01*
X147360761Y-148026952D01*
X193144666Y-90559380D02*
X192811333Y-90083190D01*
X192573238Y-90559380D02*
X192573238Y-89559380D01*
X192954190Y-89559380D01*
X193049428Y-89607000D01*
X193097047Y-89654619D01*
X193144666Y-89749857D01*
X193144666Y-89892714D01*
X193097047Y-89987952D01*
X193049428Y-90035571D01*
X192954190Y-90083190D01*
X192573238Y-90083190D01*
X193573238Y-90035571D02*
X193906571Y-90035571D01*
X194049428Y-90559380D02*
X193573238Y-90559380D01*
X193573238Y-89559380D01*
X194049428Y-89559380D01*
X194811333Y-90035571D02*
X194478000Y-90035571D01*
X194478000Y-90559380D02*
X194478000Y-89559380D01*
X194954190Y-89559380D01*
X195478000Y-89559380D02*
X195478000Y-89797476D01*
X195239904Y-89702238D02*
X195478000Y-89797476D01*
X195716095Y-89702238D01*
X195335142Y-89987952D02*
X195478000Y-89797476D01*
X195620857Y-89987952D01*
X196239904Y-89559380D02*
X196239904Y-89797476D01*
X196001809Y-89702238D02*
X196239904Y-89797476D01*
X196478000Y-89702238D01*
X196097047Y-89987952D02*
X196239904Y-89797476D01*
X196382761Y-89987952D01*
X203939666Y-145677380D02*
X203606333Y-145201190D01*
X203368238Y-145677380D02*
X203368238Y-144677380D01*
X203749190Y-144677380D01*
X203844428Y-144725000D01*
X203892047Y-144772619D01*
X203939666Y-144867857D01*
X203939666Y-145010714D01*
X203892047Y-145105952D01*
X203844428Y-145153571D01*
X203749190Y-145201190D01*
X203368238Y-145201190D01*
X204368238Y-145153571D02*
X204701571Y-145153571D01*
X204844428Y-145677380D02*
X204368238Y-145677380D01*
X204368238Y-144677380D01*
X204844428Y-144677380D01*
X205606333Y-145153571D02*
X205273000Y-145153571D01*
X205273000Y-145677380D02*
X205273000Y-144677380D01*
X205749190Y-144677380D01*
X206273000Y-144677380D02*
X206273000Y-144915476D01*
X206034904Y-144820238D02*
X206273000Y-144915476D01*
X206511095Y-144820238D01*
X206130142Y-145105952D02*
X206273000Y-144915476D01*
X206415857Y-145105952D01*
X207034904Y-144677380D02*
X207034904Y-144915476D01*
X206796809Y-144820238D02*
X207034904Y-144915476D01*
X207273000Y-144820238D01*
X206892047Y-145105952D02*
X207034904Y-144915476D01*
X207177761Y-145105952D01*
X110086666Y-90686380D02*
X109753333Y-90210190D01*
X109515238Y-90686380D02*
X109515238Y-89686380D01*
X109896190Y-89686380D01*
X109991428Y-89734000D01*
X110039047Y-89781619D01*
X110086666Y-89876857D01*
X110086666Y-90019714D01*
X110039047Y-90114952D01*
X109991428Y-90162571D01*
X109896190Y-90210190D01*
X109515238Y-90210190D01*
X110515238Y-90162571D02*
X110848571Y-90162571D01*
X110991428Y-90686380D02*
X110515238Y-90686380D01*
X110515238Y-89686380D01*
X110991428Y-89686380D01*
X111753333Y-90162571D02*
X111420000Y-90162571D01*
X111420000Y-90686380D02*
X111420000Y-89686380D01*
X111896190Y-89686380D01*
X112420000Y-89686380D02*
X112420000Y-89924476D01*
X112181904Y-89829238D02*
X112420000Y-89924476D01*
X112658095Y-89829238D01*
X112277142Y-90114952D02*
X112420000Y-89924476D01*
X112562857Y-90114952D01*
X113181904Y-89686380D02*
X113181904Y-89924476D01*
X112943809Y-89829238D02*
X113181904Y-89924476D01*
X113420000Y-89829238D01*
X113039047Y-90114952D02*
X113181904Y-89924476D01*
X113324761Y-90114952D01*
X110213666Y-148674380D02*
X109880333Y-148198190D01*
X109642238Y-148674380D02*
X109642238Y-147674380D01*
X110023190Y-147674380D01*
X110118428Y-147722000D01*
X110166047Y-147769619D01*
X110213666Y-147864857D01*
X110213666Y-148007714D01*
X110166047Y-148102952D01*
X110118428Y-148150571D01*
X110023190Y-148198190D01*
X109642238Y-148198190D01*
X110642238Y-148150571D02*
X110975571Y-148150571D01*
X111118428Y-148674380D02*
X110642238Y-148674380D01*
X110642238Y-147674380D01*
X111118428Y-147674380D01*
X111880333Y-148150571D02*
X111547000Y-148150571D01*
X111547000Y-148674380D02*
X111547000Y-147674380D01*
X112023190Y-147674380D01*
X112547000Y-147674380D02*
X112547000Y-147912476D01*
X112308904Y-147817238D02*
X112547000Y-147912476D01*
X112785095Y-147817238D01*
X112404142Y-148102952D02*
X112547000Y-147912476D01*
X112689857Y-148102952D01*
X113308904Y-147674380D02*
X113308904Y-147912476D01*
X113070809Y-147817238D02*
X113308904Y-147912476D01*
X113547000Y-147817238D01*
X113166047Y-148102952D02*
X113308904Y-147912476D01*
X113451761Y-148102952D01*
X61191666Y-148674380D02*
X60858333Y-148198190D01*
X60620238Y-148674380D02*
X60620238Y-147674380D01*
X61001190Y-147674380D01*
X61096428Y-147722000D01*
X61144047Y-147769619D01*
X61191666Y-147864857D01*
X61191666Y-148007714D01*
X61144047Y-148102952D01*
X61096428Y-148150571D01*
X61001190Y-148198190D01*
X60620238Y-148198190D01*
X61620238Y-148150571D02*
X61953571Y-148150571D01*
X62096428Y-148674380D02*
X61620238Y-148674380D01*
X61620238Y-147674380D01*
X62096428Y-147674380D01*
X62858333Y-148150571D02*
X62525000Y-148150571D01*
X62525000Y-148674380D02*
X62525000Y-147674380D01*
X63001190Y-147674380D01*
X63525000Y-147674380D02*
X63525000Y-147912476D01*
X63286904Y-147817238D02*
X63525000Y-147912476D01*
X63763095Y-147817238D01*
X63382142Y-148102952D02*
X63525000Y-147912476D01*
X63667857Y-148102952D01*
X64286904Y-147674380D02*
X64286904Y-147912476D01*
X64048809Y-147817238D02*
X64286904Y-147912476D01*
X64525000Y-147817238D01*
X64144047Y-148102952D02*
X64286904Y-147912476D01*
X64429761Y-148102952D01*
X53872666Y-145630380D02*
X53539333Y-145154190D01*
X53301238Y-145630380D02*
X53301238Y-144630380D01*
X53682190Y-144630380D01*
X53777428Y-144678000D01*
X53825047Y-144725619D01*
X53872666Y-144820857D01*
X53872666Y-144963714D01*
X53825047Y-145058952D01*
X53777428Y-145106571D01*
X53682190Y-145154190D01*
X53301238Y-145154190D01*
X54301238Y-145106571D02*
X54634571Y-145106571D01*
X54777428Y-145630380D02*
X54301238Y-145630380D01*
X54301238Y-144630380D01*
X54777428Y-144630380D01*
X55539333Y-145106571D02*
X55206000Y-145106571D01*
X55206000Y-145630380D02*
X55206000Y-144630380D01*
X55682190Y-144630380D01*
X56206000Y-144630380D02*
X56206000Y-144868476D01*
X55967904Y-144773238D02*
X56206000Y-144868476D01*
X56444095Y-144773238D01*
X56063142Y-145058952D02*
X56206000Y-144868476D01*
X56348857Y-145058952D01*
X56967904Y-144630380D02*
X56967904Y-144868476D01*
X56729809Y-144773238D02*
X56967904Y-144868476D01*
X57206000Y-144773238D01*
X56825047Y-145058952D02*
X56967904Y-144868476D01*
X57110761Y-145058952D01*
D12*
X204466666Y-140180952D02*
X204333333Y-139990476D01*
X204238095Y-140180952D02*
X204238095Y-139780952D01*
X204390476Y-139780952D01*
X204428571Y-139800000D01*
X204447619Y-139819047D01*
X204466666Y-139857142D01*
X204466666Y-139914285D01*
X204447619Y-139952380D01*
X204428571Y-139971428D01*
X204390476Y-139990476D01*
X204238095Y-139990476D01*
X204638095Y-139971428D02*
X204771428Y-139971428D01*
X204828571Y-140180952D02*
X204638095Y-140180952D01*
X204638095Y-139780952D01*
X204828571Y-139780952D01*
X205133333Y-139971428D02*
X205000000Y-139971428D01*
X205000000Y-140180952D02*
X205000000Y-139780952D01*
X205190476Y-139780952D01*
X205400000Y-139780952D02*
X205400000Y-139876190D01*
X205304761Y-139838095D02*
X205400000Y-139876190D01*
X205495238Y-139838095D01*
X205342857Y-139952380D02*
X205400000Y-139876190D01*
X205457142Y-139952380D01*
X205704761Y-139780952D02*
X205704761Y-139876190D01*
X205609523Y-139838095D02*
X205704761Y-139876190D01*
X205800000Y-139838095D01*
X205647619Y-139952380D02*
X205704761Y-139876190D01*
X205761904Y-139952380D01*
X54466666Y-60180952D02*
X54333333Y-59990476D01*
X54238095Y-60180952D02*
X54238095Y-59780952D01*
X54390476Y-59780952D01*
X54428571Y-59800000D01*
X54447619Y-59819047D01*
X54466666Y-59857142D01*
X54466666Y-59914285D01*
X54447619Y-59952380D01*
X54428571Y-59971428D01*
X54390476Y-59990476D01*
X54238095Y-59990476D01*
X54638095Y-59971428D02*
X54771428Y-59971428D01*
X54828571Y-60180952D02*
X54638095Y-60180952D01*
X54638095Y-59780952D01*
X54828571Y-59780952D01*
X55133333Y-59971428D02*
X55000000Y-59971428D01*
X55000000Y-60180952D02*
X55000000Y-59780952D01*
X55190476Y-59780952D01*
X55400000Y-59780952D02*
X55400000Y-59876190D01*
X55304761Y-59838095D02*
X55400000Y-59876190D01*
X55495238Y-59838095D01*
X55342857Y-59952380D02*
X55400000Y-59876190D01*
X55457142Y-59952380D01*
X55704761Y-59780952D02*
X55704761Y-59876190D01*
X55609523Y-59838095D02*
X55704761Y-59876190D01*
X55800000Y-59838095D01*
X55647619Y-59952380D02*
X55704761Y-59876190D01*
X55761904Y-59952380D01*
G04 #@! TO.C,U1*
D11*
X84238095Y-101952380D02*
X84238095Y-102761904D01*
X84285714Y-102857142D01*
X84333333Y-102904761D01*
X84428571Y-102952380D01*
X84619047Y-102952380D01*
X84714285Y-102904761D01*
X84761904Y-102857142D01*
X84809523Y-102761904D01*
X84809523Y-101952380D01*
X85809523Y-102952380D02*
X85238095Y-102952380D01*
X85523809Y-102952380D02*
X85523809Y-101952380D01*
X85428571Y-102095238D01*
X85333333Y-102190476D01*
X85238095Y-102238095D01*
G04 #@! TO.C,U2*
X169238095Y-101992380D02*
X169238095Y-102801904D01*
X169285714Y-102897142D01*
X169333333Y-102944761D01*
X169428571Y-102992380D01*
X169619047Y-102992380D01*
X169714285Y-102944761D01*
X169761904Y-102897142D01*
X169809523Y-102801904D01*
X169809523Y-101992380D01*
X170238095Y-102087619D02*
X170285714Y-102040000D01*
X170380952Y-101992380D01*
X170619047Y-101992380D01*
X170714285Y-102040000D01*
X170761904Y-102087619D01*
X170809523Y-102182857D01*
X170809523Y-102278095D01*
X170761904Y-102420952D01*
X170190476Y-102992380D01*
X170809523Y-102992380D01*
G04 #@! TO.C,J3*
X72476666Y-140452380D02*
X72476666Y-141166666D01*
X72429047Y-141309523D01*
X72333809Y-141404761D01*
X72190952Y-141452380D01*
X72095714Y-141452380D01*
X72857619Y-140452380D02*
X73476666Y-140452380D01*
X73143333Y-140833333D01*
X73286190Y-140833333D01*
X73381428Y-140880952D01*
X73429047Y-140928571D01*
X73476666Y-141023809D01*
X73476666Y-141261904D01*
X73429047Y-141357142D01*
X73381428Y-141404761D01*
X73286190Y-141452380D01*
X73000476Y-141452380D01*
X72905238Y-141404761D01*
X72857619Y-141357142D01*
G04 #@! TO.C,J4*
X155476666Y-140452380D02*
X155476666Y-141166666D01*
X155429047Y-141309523D01*
X155333809Y-141404761D01*
X155190952Y-141452380D01*
X155095714Y-141452380D01*
X156381428Y-140785714D02*
X156381428Y-141452380D01*
X156143333Y-140404761D02*
X155905238Y-141119047D01*
X156524285Y-141119047D01*
G04 #@! TO.C,J5*
X179738095Y-46452380D02*
X179738095Y-47166666D01*
X179690476Y-47309523D01*
X179595238Y-47404761D01*
X179452380Y-47452380D01*
X179357142Y-47452380D01*
X180642857Y-47452380D02*
X180642857Y-46928571D01*
X180595238Y-46833333D01*
X180500000Y-46785714D01*
X180309523Y-46785714D01*
X180214285Y-46833333D01*
X180642857Y-47404761D02*
X180547619Y-47452380D01*
X180309523Y-47452380D01*
X180214285Y-47404761D01*
X180166666Y-47309523D01*
X180166666Y-47214285D01*
X180214285Y-47119047D01*
X180309523Y-47071428D01*
X180547619Y-47071428D01*
X180642857Y-47023809D01*
X181547619Y-47404761D02*
X181452380Y-47452380D01*
X181261904Y-47452380D01*
X181166666Y-47404761D01*
X181119047Y-47357142D01*
X181071428Y-47261904D01*
X181071428Y-46976190D01*
X181119047Y-46880952D01*
X181166666Y-46833333D01*
X181261904Y-46785714D01*
X181452380Y-46785714D01*
X181547619Y-46833333D01*
X181976190Y-47452380D02*
X181976190Y-46452380D01*
X182071428Y-47071428D02*
X182357142Y-47452380D01*
X182357142Y-46785714D02*
X181976190Y-47166666D01*
X182785714Y-47071428D02*
X183547619Y-47071428D01*
X184023809Y-47452380D02*
X184023809Y-46452380D01*
X184261904Y-46452380D01*
X184404761Y-46500000D01*
X184500000Y-46595238D01*
X184547619Y-46690476D01*
X184595238Y-46880952D01*
X184595238Y-47023809D01*
X184547619Y-47214285D01*
X184500000Y-47309523D01*
X184404761Y-47404761D01*
X184261904Y-47452380D01*
X184023809Y-47452380D01*
X185595238Y-47357142D02*
X185547619Y-47404761D01*
X185404761Y-47452380D01*
X185309523Y-47452380D01*
X185166666Y-47404761D01*
X185071428Y-47309523D01*
X185023809Y-47214285D01*
X184976190Y-47023809D01*
X184976190Y-46880952D01*
X185023809Y-46690476D01*
X185071428Y-46595238D01*
X185166666Y-46500000D01*
X185309523Y-46452380D01*
X185404761Y-46452380D01*
X185547619Y-46500000D01*
X185595238Y-46547619D01*
X182166666Y-53952380D02*
X182166666Y-54666666D01*
X182119047Y-54809523D01*
X182023809Y-54904761D01*
X181880952Y-54952380D01*
X181785714Y-54952380D01*
X183119047Y-53952380D02*
X182642857Y-53952380D01*
X182595238Y-54428571D01*
X182642857Y-54380952D01*
X182738095Y-54333333D01*
X182976190Y-54333333D01*
X183071428Y-54380952D01*
X183119047Y-54428571D01*
X183166666Y-54523809D01*
X183166666Y-54761904D01*
X183119047Y-54857142D01*
X183071428Y-54904761D01*
X182976190Y-54952380D01*
X182738095Y-54952380D01*
X182642857Y-54904761D01*
X182595238Y-54857142D01*
G04 #@! TO.C,J6*
X192238095Y-46452380D02*
X192238095Y-47166666D01*
X192190476Y-47309523D01*
X192095238Y-47404761D01*
X191952380Y-47452380D01*
X191857142Y-47452380D01*
X193142857Y-47452380D02*
X193142857Y-46928571D01*
X193095238Y-46833333D01*
X193000000Y-46785714D01*
X192809523Y-46785714D01*
X192714285Y-46833333D01*
X193142857Y-47404761D02*
X193047619Y-47452380D01*
X192809523Y-47452380D01*
X192714285Y-47404761D01*
X192666666Y-47309523D01*
X192666666Y-47214285D01*
X192714285Y-47119047D01*
X192809523Y-47071428D01*
X193047619Y-47071428D01*
X193142857Y-47023809D01*
X194047619Y-47404761D02*
X193952380Y-47452380D01*
X193761904Y-47452380D01*
X193666666Y-47404761D01*
X193619047Y-47357142D01*
X193571428Y-47261904D01*
X193571428Y-46976190D01*
X193619047Y-46880952D01*
X193666666Y-46833333D01*
X193761904Y-46785714D01*
X193952380Y-46785714D01*
X194047619Y-46833333D01*
X194476190Y-47452380D02*
X194476190Y-46452380D01*
X194571428Y-47071428D02*
X194857142Y-47452380D01*
X194857142Y-46785714D02*
X194476190Y-47166666D01*
X195285714Y-47071428D02*
X196047619Y-47071428D01*
X196523809Y-47452380D02*
X196523809Y-46452380D01*
X196761904Y-46452380D01*
X196904761Y-46500000D01*
X197000000Y-46595238D01*
X197047619Y-46690476D01*
X197095238Y-46880952D01*
X197095238Y-47023809D01*
X197047619Y-47214285D01*
X197000000Y-47309523D01*
X196904761Y-47404761D01*
X196761904Y-47452380D01*
X196523809Y-47452380D01*
X198095238Y-47357142D02*
X198047619Y-47404761D01*
X197904761Y-47452380D01*
X197809523Y-47452380D01*
X197666666Y-47404761D01*
X197571428Y-47309523D01*
X197523809Y-47214285D01*
X197476190Y-47023809D01*
X197476190Y-46880952D01*
X197523809Y-46690476D01*
X197571428Y-46595238D01*
X197666666Y-46500000D01*
X197809523Y-46452380D01*
X197904761Y-46452380D01*
X198047619Y-46500000D01*
X198095238Y-46547619D01*
X194666666Y-53952380D02*
X194666666Y-54666666D01*
X194619047Y-54809523D01*
X194523809Y-54904761D01*
X194380952Y-54952380D01*
X194285714Y-54952380D01*
X195571428Y-53952380D02*
X195380952Y-53952380D01*
X195285714Y-54000000D01*
X195238095Y-54047619D01*
X195142857Y-54190476D01*
X195095238Y-54380952D01*
X195095238Y-54761904D01*
X195142857Y-54857142D01*
X195190476Y-54904761D01*
X195285714Y-54952380D01*
X195476190Y-54952380D01*
X195571428Y-54904761D01*
X195619047Y-54857142D01*
X195666666Y-54761904D01*
X195666666Y-54523809D01*
X195619047Y-54428571D01*
X195571428Y-54380952D01*
X195476190Y-54333333D01*
X195285714Y-54333333D01*
X195190476Y-54380952D01*
X195142857Y-54428571D01*
X195095238Y-54523809D01*
G04 #@! TO.C,U3*
X199098095Y-78332380D02*
X199098095Y-79141904D01*
X199145714Y-79237142D01*
X199193333Y-79284761D01*
X199288571Y-79332380D01*
X199479047Y-79332380D01*
X199574285Y-79284761D01*
X199621904Y-79237142D01*
X199669523Y-79141904D01*
X199669523Y-78332380D01*
X200050476Y-78332380D02*
X200669523Y-78332380D01*
X200336190Y-78713333D01*
X200479047Y-78713333D01*
X200574285Y-78760952D01*
X200621904Y-78808571D01*
X200669523Y-78903809D01*
X200669523Y-79141904D01*
X200621904Y-79237142D01*
X200574285Y-79284761D01*
X200479047Y-79332380D01*
X200193333Y-79332380D01*
X200098095Y-79284761D01*
X200050476Y-79237142D01*
G04 #@! TO.C,D1*
X176261904Y-70922380D02*
X176261904Y-69922380D01*
X176500000Y-69922380D01*
X176642857Y-69970000D01*
X176738095Y-70065238D01*
X176785714Y-70160476D01*
X176833333Y-70350952D01*
X176833333Y-70493809D01*
X176785714Y-70684285D01*
X176738095Y-70779523D01*
X176642857Y-70874761D01*
X176500000Y-70922380D01*
X176261904Y-70922380D01*
X177785714Y-70922380D02*
X177214285Y-70922380D01*
X177500000Y-70922380D02*
X177500000Y-69922380D01*
X177404761Y-70065238D01*
X177309523Y-70160476D01*
X177214285Y-70208095D01*
G04 #@! TO.C,D2*
X188961904Y-70922380D02*
X188961904Y-69922380D01*
X189200000Y-69922380D01*
X189342857Y-69970000D01*
X189438095Y-70065238D01*
X189485714Y-70160476D01*
X189533333Y-70350952D01*
X189533333Y-70493809D01*
X189485714Y-70684285D01*
X189438095Y-70779523D01*
X189342857Y-70874761D01*
X189200000Y-70922380D01*
X188961904Y-70922380D01*
X189914285Y-70017619D02*
X189961904Y-69970000D01*
X190057142Y-69922380D01*
X190295238Y-69922380D01*
X190390476Y-69970000D01*
X190438095Y-70017619D01*
X190485714Y-70112857D01*
X190485714Y-70208095D01*
X190438095Y-70350952D01*
X189866666Y-70922380D01*
X190485714Y-70922380D01*
G04 #@! TO.C,D3*
X182052380Y-80888095D02*
X181052380Y-80888095D01*
X181052380Y-80650000D01*
X181100000Y-80507142D01*
X181195238Y-80411904D01*
X181290476Y-80364285D01*
X181480952Y-80316666D01*
X181623809Y-80316666D01*
X181814285Y-80364285D01*
X181909523Y-80411904D01*
X182004761Y-80507142D01*
X182052380Y-80650000D01*
X182052380Y-80888095D01*
X181052380Y-79983333D02*
X181052380Y-79364285D01*
X181433333Y-79697619D01*
X181433333Y-79554761D01*
X181480952Y-79459523D01*
X181528571Y-79411904D01*
X181623809Y-79364285D01*
X181861904Y-79364285D01*
X181957142Y-79411904D01*
X182004761Y-79459523D01*
X182052380Y-79554761D01*
X182052380Y-79840476D01*
X182004761Y-79935714D01*
X181957142Y-79983333D01*
G04 #@! TO.C,Q1*
D13*
X181083809Y-64957619D02*
X181060000Y-65005238D01*
X181012380Y-65052857D01*
X180940952Y-65124285D01*
X180917142Y-65171904D01*
X180917142Y-65219523D01*
X181036190Y-65195714D02*
X181012380Y-65243333D01*
X180964761Y-65290952D01*
X180869523Y-65314761D01*
X180702857Y-65314761D01*
X180607619Y-65290952D01*
X180560000Y-65243333D01*
X180536190Y-65195714D01*
X180536190Y-65100476D01*
X180560000Y-65052857D01*
X180607619Y-65005238D01*
X180702857Y-64981428D01*
X180869523Y-64981428D01*
X180964761Y-65005238D01*
X181012380Y-65052857D01*
X181036190Y-65100476D01*
X181036190Y-65195714D01*
X181036190Y-64505238D02*
X181036190Y-64790952D01*
X181036190Y-64648095D02*
X180536190Y-64648095D01*
X180607619Y-64695714D01*
X180655238Y-64743333D01*
X180679047Y-64790952D01*
G04 #@! TO.C,Q2*
X193783809Y-64957619D02*
X193760000Y-65005238D01*
X193712380Y-65052857D01*
X193640952Y-65124285D01*
X193617142Y-65171904D01*
X193617142Y-65219523D01*
X193736190Y-65195714D02*
X193712380Y-65243333D01*
X193664761Y-65290952D01*
X193569523Y-65314761D01*
X193402857Y-65314761D01*
X193307619Y-65290952D01*
X193260000Y-65243333D01*
X193236190Y-65195714D01*
X193236190Y-65100476D01*
X193260000Y-65052857D01*
X193307619Y-65005238D01*
X193402857Y-64981428D01*
X193569523Y-64981428D01*
X193664761Y-65005238D01*
X193712380Y-65052857D01*
X193736190Y-65100476D01*
X193736190Y-65195714D01*
X193283809Y-64790952D02*
X193260000Y-64767142D01*
X193236190Y-64719523D01*
X193236190Y-64600476D01*
X193260000Y-64552857D01*
X193283809Y-64529047D01*
X193331428Y-64505238D01*
X193379047Y-64505238D01*
X193450476Y-64529047D01*
X193736190Y-64814761D01*
X193736190Y-64505238D01*
G04 #@! TO.C,Q3*
X187433809Y-82102619D02*
X187410000Y-82150238D01*
X187362380Y-82197857D01*
X187290952Y-82269285D01*
X187267142Y-82316904D01*
X187267142Y-82364523D01*
X187386190Y-82340714D02*
X187362380Y-82388333D01*
X187314761Y-82435952D01*
X187219523Y-82459761D01*
X187052857Y-82459761D01*
X186957619Y-82435952D01*
X186910000Y-82388333D01*
X186886190Y-82340714D01*
X186886190Y-82245476D01*
X186910000Y-82197857D01*
X186957619Y-82150238D01*
X187052857Y-82126428D01*
X187219523Y-82126428D01*
X187314761Y-82150238D01*
X187362380Y-82197857D01*
X187386190Y-82245476D01*
X187386190Y-82340714D01*
X186886190Y-81959761D02*
X186886190Y-81650238D01*
X187076666Y-81816904D01*
X187076666Y-81745476D01*
X187100476Y-81697857D01*
X187124285Y-81674047D01*
X187171904Y-81650238D01*
X187290952Y-81650238D01*
X187338571Y-81674047D01*
X187362380Y-81697857D01*
X187386190Y-81745476D01*
X187386190Y-81888333D01*
X187362380Y-81935952D01*
X187338571Y-81959761D01*
G04 #@! TO.C,R1*
D12*
X183530952Y-65851666D02*
X183340476Y-65985000D01*
X183530952Y-66080238D02*
X183130952Y-66080238D01*
X183130952Y-65927857D01*
X183150000Y-65889761D01*
X183169047Y-65870714D01*
X183207142Y-65851666D01*
X183264285Y-65851666D01*
X183302380Y-65870714D01*
X183321428Y-65889761D01*
X183340476Y-65927857D01*
X183340476Y-66080238D01*
X183530952Y-65470714D02*
X183530952Y-65699285D01*
X183530952Y-65585000D02*
X183130952Y-65585000D01*
X183188095Y-65623095D01*
X183226190Y-65661190D01*
X183245238Y-65699285D01*
G04 #@! TO.C,R2*
X175663333Y-66360952D02*
X175530000Y-66170476D01*
X175434761Y-66360952D02*
X175434761Y-65960952D01*
X175587142Y-65960952D01*
X175625238Y-65980000D01*
X175644285Y-65999047D01*
X175663333Y-66037142D01*
X175663333Y-66094285D01*
X175644285Y-66132380D01*
X175625238Y-66151428D01*
X175587142Y-66170476D01*
X175434761Y-66170476D01*
X175815714Y-65999047D02*
X175834761Y-65980000D01*
X175872857Y-65960952D01*
X175968095Y-65960952D01*
X176006190Y-65980000D01*
X176025238Y-65999047D01*
X176044285Y-66037142D01*
X176044285Y-66075238D01*
X176025238Y-66132380D01*
X175796666Y-66360952D01*
X176044285Y-66360952D01*
G04 #@! TO.C,R3*
X196230952Y-65851666D02*
X196040476Y-65985000D01*
X196230952Y-66080238D02*
X195830952Y-66080238D01*
X195830952Y-65927857D01*
X195850000Y-65889761D01*
X195869047Y-65870714D01*
X195907142Y-65851666D01*
X195964285Y-65851666D01*
X196002380Y-65870714D01*
X196021428Y-65889761D01*
X196040476Y-65927857D01*
X196040476Y-66080238D01*
X195830952Y-65718333D02*
X195830952Y-65470714D01*
X195983333Y-65604047D01*
X195983333Y-65546904D01*
X196002380Y-65508809D01*
X196021428Y-65489761D01*
X196059523Y-65470714D01*
X196154761Y-65470714D01*
X196192857Y-65489761D01*
X196211904Y-65508809D01*
X196230952Y-65546904D01*
X196230952Y-65661190D01*
X196211904Y-65699285D01*
X196192857Y-65718333D01*
G04 #@! TO.C,R4*
X188363333Y-66360952D02*
X188230000Y-66170476D01*
X188134761Y-66360952D02*
X188134761Y-65960952D01*
X188287142Y-65960952D01*
X188325238Y-65980000D01*
X188344285Y-65999047D01*
X188363333Y-66037142D01*
X188363333Y-66094285D01*
X188344285Y-66132380D01*
X188325238Y-66151428D01*
X188287142Y-66170476D01*
X188134761Y-66170476D01*
X188706190Y-66094285D02*
X188706190Y-66360952D01*
X188610952Y-65941904D02*
X188515714Y-66227619D01*
X188763333Y-66227619D01*
G04 #@! TO.C,R5*
X187093333Y-84775952D02*
X186960000Y-84585476D01*
X186864761Y-84775952D02*
X186864761Y-84375952D01*
X187017142Y-84375952D01*
X187055238Y-84395000D01*
X187074285Y-84414047D01*
X187093333Y-84452142D01*
X187093333Y-84509285D01*
X187074285Y-84547380D01*
X187055238Y-84566428D01*
X187017142Y-84585476D01*
X186864761Y-84585476D01*
X187455238Y-84375952D02*
X187264761Y-84375952D01*
X187245714Y-84566428D01*
X187264761Y-84547380D01*
X187302857Y-84528333D01*
X187398095Y-84528333D01*
X187436190Y-84547380D01*
X187455238Y-84566428D01*
X187474285Y-84604523D01*
X187474285Y-84699761D01*
X187455238Y-84737857D01*
X187436190Y-84756904D01*
X187398095Y-84775952D01*
X187302857Y-84775952D01*
X187264761Y-84756904D01*
X187245714Y-84737857D01*
G04 #@! TO.C,R6*
X183918333Y-74615952D02*
X183785000Y-74425476D01*
X183689761Y-74615952D02*
X183689761Y-74215952D01*
X183842142Y-74215952D01*
X183880238Y-74235000D01*
X183899285Y-74254047D01*
X183918333Y-74292142D01*
X183918333Y-74349285D01*
X183899285Y-74387380D01*
X183880238Y-74406428D01*
X183842142Y-74425476D01*
X183689761Y-74425476D01*
X184261190Y-74215952D02*
X184185000Y-74215952D01*
X184146904Y-74235000D01*
X184127857Y-74254047D01*
X184089761Y-74311190D01*
X184070714Y-74387380D01*
X184070714Y-74539761D01*
X184089761Y-74577857D01*
X184108809Y-74596904D01*
X184146904Y-74615952D01*
X184223095Y-74615952D01*
X184261190Y-74596904D01*
X184280238Y-74577857D01*
X184299285Y-74539761D01*
X184299285Y-74444523D01*
X184280238Y-74406428D01*
X184261190Y-74387380D01*
X184223095Y-74368333D01*
X184146904Y-74368333D01*
X184108809Y-74387380D01*
X184089761Y-74406428D01*
X184070714Y-74444523D01*
G04 #@! TO.C,REF\002A\002A*
X54466666Y-140180952D02*
X54333333Y-139990476D01*
X54238095Y-140180952D02*
X54238095Y-139780952D01*
X54390476Y-139780952D01*
X54428571Y-139800000D01*
X54447619Y-139819047D01*
X54466666Y-139857142D01*
X54466666Y-139914285D01*
X54447619Y-139952380D01*
X54428571Y-139971428D01*
X54390476Y-139990476D01*
X54238095Y-139990476D01*
X54638095Y-139971428D02*
X54771428Y-139971428D01*
X54828571Y-140180952D02*
X54638095Y-140180952D01*
X54638095Y-139780952D01*
X54828571Y-139780952D01*
X55133333Y-139971428D02*
X55000000Y-139971428D01*
X55000000Y-140180952D02*
X55000000Y-139780952D01*
X55190476Y-139780952D01*
X55400000Y-139780952D02*
X55400000Y-139876190D01*
X55304761Y-139838095D02*
X55400000Y-139876190D01*
X55495238Y-139838095D01*
X55342857Y-139952380D02*
X55400000Y-139876190D01*
X55457142Y-139952380D01*
X55704761Y-139780952D02*
X55704761Y-139876190D01*
X55609523Y-139838095D02*
X55704761Y-139876190D01*
X55800000Y-139838095D01*
X55647619Y-139952380D02*
X55704761Y-139876190D01*
X55761904Y-139952380D01*
G04 #@! TO.C,C1*
D14*
X197186666Y-69005714D02*
X197148571Y-69043809D01*
X197034285Y-69081904D01*
X196958095Y-69081904D01*
X196843809Y-69043809D01*
X196767619Y-68967619D01*
X196729523Y-68891428D01*
X196691428Y-68739047D01*
X196691428Y-68624761D01*
X196729523Y-68472380D01*
X196767619Y-68396190D01*
X196843809Y-68320000D01*
X196958095Y-68281904D01*
X197034285Y-68281904D01*
X197148571Y-68320000D01*
X197186666Y-68358095D01*
X197948571Y-69081904D02*
X197491428Y-69081904D01*
X197720000Y-69081904D02*
X197720000Y-68281904D01*
X197643809Y-68396190D01*
X197567619Y-68472380D01*
X197491428Y-68510476D01*
G04 #@! TO.C,C2*
X197186666Y-86785714D02*
X197148571Y-86823809D01*
X197034285Y-86861904D01*
X196958095Y-86861904D01*
X196843809Y-86823809D01*
X196767619Y-86747619D01*
X196729523Y-86671428D01*
X196691428Y-86519047D01*
X196691428Y-86404761D01*
X196729523Y-86252380D01*
X196767619Y-86176190D01*
X196843809Y-86100000D01*
X196958095Y-86061904D01*
X197034285Y-86061904D01*
X197148571Y-86100000D01*
X197186666Y-86138095D01*
X197491428Y-86138095D02*
X197529523Y-86100000D01*
X197605714Y-86061904D01*
X197796190Y-86061904D01*
X197872380Y-86100000D01*
X197910476Y-86138095D01*
X197948571Y-86214285D01*
X197948571Y-86290476D01*
X197910476Y-86404761D01*
X197453333Y-86861904D01*
X197948571Y-86861904D01*
G04 #@! TO.C,C3*
D12*
X75542857Y-100536666D02*
X75561904Y-100555714D01*
X75580952Y-100612857D01*
X75580952Y-100650952D01*
X75561904Y-100708095D01*
X75523809Y-100746190D01*
X75485714Y-100765238D01*
X75409523Y-100784285D01*
X75352380Y-100784285D01*
X75276190Y-100765238D01*
X75238095Y-100746190D01*
X75200000Y-100708095D01*
X75180952Y-100650952D01*
X75180952Y-100612857D01*
X75200000Y-100555714D01*
X75219047Y-100536666D01*
X75180952Y-100403333D02*
X75180952Y-100155714D01*
X75333333Y-100289047D01*
X75333333Y-100231904D01*
X75352380Y-100193809D01*
X75371428Y-100174761D01*
X75409523Y-100155714D01*
X75504761Y-100155714D01*
X75542857Y-100174761D01*
X75561904Y-100193809D01*
X75580952Y-100231904D01*
X75580952Y-100346190D01*
X75561904Y-100384285D01*
X75542857Y-100403333D01*
G04 #@! TO.C,C4*
X89303333Y-109502857D02*
X89284285Y-109521904D01*
X89227142Y-109540952D01*
X89189047Y-109540952D01*
X89131904Y-109521904D01*
X89093809Y-109483809D01*
X89074761Y-109445714D01*
X89055714Y-109369523D01*
X89055714Y-109312380D01*
X89074761Y-109236190D01*
X89093809Y-109198095D01*
X89131904Y-109160000D01*
X89189047Y-109140952D01*
X89227142Y-109140952D01*
X89284285Y-109160000D01*
X89303333Y-109179047D01*
X89646190Y-109274285D02*
X89646190Y-109540952D01*
X89550952Y-109121904D02*
X89455714Y-109407619D01*
X89703333Y-109407619D01*
G04 #@! TO.C,C5*
X92052857Y-97601666D02*
X92071904Y-97620714D01*
X92090952Y-97677857D01*
X92090952Y-97715952D01*
X92071904Y-97773095D01*
X92033809Y-97811190D01*
X91995714Y-97830238D01*
X91919523Y-97849285D01*
X91862380Y-97849285D01*
X91786190Y-97830238D01*
X91748095Y-97811190D01*
X91710000Y-97773095D01*
X91690952Y-97715952D01*
X91690952Y-97677857D01*
X91710000Y-97620714D01*
X91729047Y-97601666D01*
X91690952Y-97239761D02*
X91690952Y-97430238D01*
X91881428Y-97449285D01*
X91862380Y-97430238D01*
X91843333Y-97392142D01*
X91843333Y-97296904D01*
X91862380Y-97258809D01*
X91881428Y-97239761D01*
X91919523Y-97220714D01*
X92014761Y-97220714D01*
X92052857Y-97239761D01*
X92071904Y-97258809D01*
X92090952Y-97296904D01*
X92090952Y-97392142D01*
X92071904Y-97430238D01*
X92052857Y-97449285D01*
G04 #@! TO.C,C6*
X80794333Y-95532857D02*
X80775285Y-95551904D01*
X80718142Y-95570952D01*
X80680047Y-95570952D01*
X80622904Y-95551904D01*
X80584809Y-95513809D01*
X80565761Y-95475714D01*
X80546714Y-95399523D01*
X80546714Y-95342380D01*
X80565761Y-95266190D01*
X80584809Y-95228095D01*
X80622904Y-95190000D01*
X80680047Y-95170952D01*
X80718142Y-95170952D01*
X80775285Y-95190000D01*
X80794333Y-95209047D01*
X81137190Y-95170952D02*
X81061000Y-95170952D01*
X81022904Y-95190000D01*
X81003857Y-95209047D01*
X80965761Y-95266190D01*
X80946714Y-95342380D01*
X80946714Y-95494761D01*
X80965761Y-95532857D01*
X80984809Y-95551904D01*
X81022904Y-95570952D01*
X81099095Y-95570952D01*
X81137190Y-95551904D01*
X81156238Y-95532857D01*
X81175285Y-95494761D01*
X81175285Y-95399523D01*
X81156238Y-95361428D01*
X81137190Y-95342380D01*
X81099095Y-95323333D01*
X81022904Y-95323333D01*
X80984809Y-95342380D01*
X80965761Y-95361428D01*
X80946714Y-95399523D01*
G04 #@! TO.C,C7*
X75542857Y-104346666D02*
X75561904Y-104365714D01*
X75580952Y-104422857D01*
X75580952Y-104460952D01*
X75561904Y-104518095D01*
X75523809Y-104556190D01*
X75485714Y-104575238D01*
X75409523Y-104594285D01*
X75352380Y-104594285D01*
X75276190Y-104575238D01*
X75238095Y-104556190D01*
X75200000Y-104518095D01*
X75180952Y-104460952D01*
X75180952Y-104422857D01*
X75200000Y-104365714D01*
X75219047Y-104346666D01*
X75180952Y-104213333D02*
X75180952Y-103946666D01*
X75580952Y-104118095D01*
G04 #@! TO.C,C9*
X174393333Y-109502857D02*
X174374285Y-109521904D01*
X174317142Y-109540952D01*
X174279047Y-109540952D01*
X174221904Y-109521904D01*
X174183809Y-109483809D01*
X174164761Y-109445714D01*
X174145714Y-109369523D01*
X174145714Y-109312380D01*
X174164761Y-109236190D01*
X174183809Y-109198095D01*
X174221904Y-109160000D01*
X174279047Y-109140952D01*
X174317142Y-109140952D01*
X174374285Y-109160000D01*
X174393333Y-109179047D01*
X174583809Y-109540952D02*
X174660000Y-109540952D01*
X174698095Y-109521904D01*
X174717142Y-109502857D01*
X174755238Y-109445714D01*
X174774285Y-109369523D01*
X174774285Y-109217142D01*
X174755238Y-109179047D01*
X174736190Y-109160000D01*
X174698095Y-109140952D01*
X174621904Y-109140952D01*
X174583809Y-109160000D01*
X174564761Y-109179047D01*
X174545714Y-109217142D01*
X174545714Y-109312380D01*
X174564761Y-109350476D01*
X174583809Y-109369523D01*
X174621904Y-109388571D01*
X174698095Y-109388571D01*
X174736190Y-109369523D01*
X174755238Y-109350476D01*
X174774285Y-109312380D01*
G04 #@! TO.C,C10*
X177142857Y-98187142D02*
X177161904Y-98206190D01*
X177180952Y-98263333D01*
X177180952Y-98301428D01*
X177161904Y-98358571D01*
X177123809Y-98396666D01*
X177085714Y-98415714D01*
X177009523Y-98434761D01*
X176952380Y-98434761D01*
X176876190Y-98415714D01*
X176838095Y-98396666D01*
X176800000Y-98358571D01*
X176780952Y-98301428D01*
X176780952Y-98263333D01*
X176800000Y-98206190D01*
X176819047Y-98187142D01*
X177180952Y-97806190D02*
X177180952Y-98034761D01*
X177180952Y-97920476D02*
X176780952Y-97920476D01*
X176838095Y-97958571D01*
X176876190Y-97996666D01*
X176895238Y-98034761D01*
X176780952Y-97558571D02*
X176780952Y-97520476D01*
X176800000Y-97482380D01*
X176819047Y-97463333D01*
X176857142Y-97444285D01*
X176933333Y-97425238D01*
X177028571Y-97425238D01*
X177104761Y-97444285D01*
X177142857Y-97463333D01*
X177161904Y-97482380D01*
X177180952Y-97520476D01*
X177180952Y-97558571D01*
X177161904Y-97596666D01*
X177142857Y-97615714D01*
X177104761Y-97634761D01*
X177028571Y-97653809D01*
X176933333Y-97653809D01*
X176857142Y-97634761D01*
X176819047Y-97615714D01*
X176800000Y-97596666D01*
X176780952Y-97558571D01*
G04 #@! TO.C,C11*
X165707857Y-95532857D02*
X165688809Y-95551904D01*
X165631666Y-95570952D01*
X165593571Y-95570952D01*
X165536428Y-95551904D01*
X165498333Y-95513809D01*
X165479285Y-95475714D01*
X165460238Y-95399523D01*
X165460238Y-95342380D01*
X165479285Y-95266190D01*
X165498333Y-95228095D01*
X165536428Y-95190000D01*
X165593571Y-95170952D01*
X165631666Y-95170952D01*
X165688809Y-95190000D01*
X165707857Y-95209047D01*
X166088809Y-95570952D02*
X165860238Y-95570952D01*
X165974523Y-95570952D02*
X165974523Y-95170952D01*
X165936428Y-95228095D01*
X165898333Y-95266190D01*
X165860238Y-95285238D01*
X166469761Y-95570952D02*
X166241190Y-95570952D01*
X166355476Y-95570952D02*
X166355476Y-95170952D01*
X166317380Y-95228095D01*
X166279285Y-95266190D01*
X166241190Y-95285238D01*
G04 #@! TO.C,C12*
X160632857Y-104537142D02*
X160651904Y-104556190D01*
X160670952Y-104613333D01*
X160670952Y-104651428D01*
X160651904Y-104708571D01*
X160613809Y-104746666D01*
X160575714Y-104765714D01*
X160499523Y-104784761D01*
X160442380Y-104784761D01*
X160366190Y-104765714D01*
X160328095Y-104746666D01*
X160290000Y-104708571D01*
X160270952Y-104651428D01*
X160270952Y-104613333D01*
X160290000Y-104556190D01*
X160309047Y-104537142D01*
X160670952Y-104156190D02*
X160670952Y-104384761D01*
X160670952Y-104270476D02*
X160270952Y-104270476D01*
X160328095Y-104308571D01*
X160366190Y-104346666D01*
X160385238Y-104384761D01*
X160309047Y-104003809D02*
X160290000Y-103984761D01*
X160270952Y-103946666D01*
X160270952Y-103851428D01*
X160290000Y-103813333D01*
X160309047Y-103794285D01*
X160347142Y-103775238D01*
X160385238Y-103775238D01*
X160442380Y-103794285D01*
X160670952Y-104022857D01*
X160670952Y-103775238D01*
G04 #@! TO.C,D4*
D15*
X99160952Y-126096190D02*
X99160952Y-125596190D01*
X99280000Y-125596190D01*
X99351428Y-125620000D01*
X99399047Y-125667619D01*
X99422857Y-125715238D01*
X99446666Y-125810476D01*
X99446666Y-125881904D01*
X99422857Y-125977142D01*
X99399047Y-126024761D01*
X99351428Y-126072380D01*
X99280000Y-126096190D01*
X99160952Y-126096190D01*
X99875238Y-125762857D02*
X99875238Y-126096190D01*
X99756190Y-125572380D02*
X99637142Y-125929523D01*
X99946666Y-125929523D01*
G04 #@! TO.C,D5*
X99160952Y-128636190D02*
X99160952Y-128136190D01*
X99280000Y-128136190D01*
X99351428Y-128160000D01*
X99399047Y-128207619D01*
X99422857Y-128255238D01*
X99446666Y-128350476D01*
X99446666Y-128421904D01*
X99422857Y-128517142D01*
X99399047Y-128564761D01*
X99351428Y-128612380D01*
X99280000Y-128636190D01*
X99160952Y-128636190D01*
X99899047Y-128136190D02*
X99660952Y-128136190D01*
X99637142Y-128374285D01*
X99660952Y-128350476D01*
X99708571Y-128326666D01*
X99827619Y-128326666D01*
X99875238Y-128350476D01*
X99899047Y-128374285D01*
X99922857Y-128421904D01*
X99922857Y-128540952D01*
X99899047Y-128588571D01*
X99875238Y-128612380D01*
X99827619Y-128636190D01*
X99708571Y-128636190D01*
X99660952Y-128612380D01*
X99637142Y-128588571D01*
G04 #@! TO.C,D6*
X181955952Y-126096190D02*
X181955952Y-125596190D01*
X182075000Y-125596190D01*
X182146428Y-125620000D01*
X182194047Y-125667619D01*
X182217857Y-125715238D01*
X182241666Y-125810476D01*
X182241666Y-125881904D01*
X182217857Y-125977142D01*
X182194047Y-126024761D01*
X182146428Y-126072380D01*
X182075000Y-126096190D01*
X181955952Y-126096190D01*
X182670238Y-125596190D02*
X182575000Y-125596190D01*
X182527380Y-125620000D01*
X182503571Y-125643809D01*
X182455952Y-125715238D01*
X182432142Y-125810476D01*
X182432142Y-126000952D01*
X182455952Y-126048571D01*
X182479761Y-126072380D01*
X182527380Y-126096190D01*
X182622619Y-126096190D01*
X182670238Y-126072380D01*
X182694047Y-126048571D01*
X182717857Y-126000952D01*
X182717857Y-125881904D01*
X182694047Y-125834285D01*
X182670238Y-125810476D01*
X182622619Y-125786666D01*
X182527380Y-125786666D01*
X182479761Y-125810476D01*
X182455952Y-125834285D01*
X182432142Y-125881904D01*
G04 #@! TO.C,D7*
X181964952Y-128636190D02*
X181964952Y-128136190D01*
X182084000Y-128136190D01*
X182155428Y-128160000D01*
X182203047Y-128207619D01*
X182226857Y-128255238D01*
X182250666Y-128350476D01*
X182250666Y-128421904D01*
X182226857Y-128517142D01*
X182203047Y-128564761D01*
X182155428Y-128612380D01*
X182084000Y-128636190D01*
X181964952Y-128636190D01*
X182417333Y-128136190D02*
X182750666Y-128136190D01*
X182536380Y-128636190D01*
G04 #@! TO.C,D8*
X53195952Y-123556190D02*
X53195952Y-123056190D01*
X53315000Y-123056190D01*
X53386428Y-123080000D01*
X53434047Y-123127619D01*
X53457857Y-123175238D01*
X53481666Y-123270476D01*
X53481666Y-123341904D01*
X53457857Y-123437142D01*
X53434047Y-123484761D01*
X53386428Y-123532380D01*
X53315000Y-123556190D01*
X53195952Y-123556190D01*
X53767380Y-123270476D02*
X53719761Y-123246666D01*
X53695952Y-123222857D01*
X53672142Y-123175238D01*
X53672142Y-123151428D01*
X53695952Y-123103809D01*
X53719761Y-123080000D01*
X53767380Y-123056190D01*
X53862619Y-123056190D01*
X53910238Y-123080000D01*
X53934047Y-123103809D01*
X53957857Y-123151428D01*
X53957857Y-123175238D01*
X53934047Y-123222857D01*
X53910238Y-123246666D01*
X53862619Y-123270476D01*
X53767380Y-123270476D01*
X53719761Y-123294285D01*
X53695952Y-123318095D01*
X53672142Y-123365714D01*
X53672142Y-123460952D01*
X53695952Y-123508571D01*
X53719761Y-123532380D01*
X53767380Y-123556190D01*
X53862619Y-123556190D01*
X53910238Y-123532380D01*
X53934047Y-123508571D01*
X53957857Y-123460952D01*
X53957857Y-123365714D01*
X53934047Y-123318095D01*
X53910238Y-123294285D01*
X53862619Y-123270476D01*
G04 #@! TO.C,D9*
X53186952Y-126985190D02*
X53186952Y-126485190D01*
X53306000Y-126485190D01*
X53377428Y-126509000D01*
X53425047Y-126556619D01*
X53448857Y-126604238D01*
X53472666Y-126699476D01*
X53472666Y-126770904D01*
X53448857Y-126866142D01*
X53425047Y-126913761D01*
X53377428Y-126961380D01*
X53306000Y-126985190D01*
X53186952Y-126985190D01*
X53710761Y-126985190D02*
X53806000Y-126985190D01*
X53853619Y-126961380D01*
X53877428Y-126937571D01*
X53925047Y-126866142D01*
X53948857Y-126770904D01*
X53948857Y-126580428D01*
X53925047Y-126532809D01*
X53901238Y-126509000D01*
X53853619Y-126485190D01*
X53758380Y-126485190D01*
X53710761Y-126509000D01*
X53686952Y-126532809D01*
X53663142Y-126580428D01*
X53663142Y-126699476D01*
X53686952Y-126747095D01*
X53710761Y-126770904D01*
X53758380Y-126794714D01*
X53853619Y-126794714D01*
X53901238Y-126770904D01*
X53925047Y-126747095D01*
X53948857Y-126699476D01*
G04 #@! TO.C,D10*
X134482857Y-123556190D02*
X134482857Y-123056190D01*
X134601904Y-123056190D01*
X134673333Y-123080000D01*
X134720952Y-123127619D01*
X134744761Y-123175238D01*
X134768571Y-123270476D01*
X134768571Y-123341904D01*
X134744761Y-123437142D01*
X134720952Y-123484761D01*
X134673333Y-123532380D01*
X134601904Y-123556190D01*
X134482857Y-123556190D01*
X135244761Y-123556190D02*
X134959047Y-123556190D01*
X135101904Y-123556190D02*
X135101904Y-123056190D01*
X135054285Y-123127619D01*
X135006666Y-123175238D01*
X134959047Y-123199047D01*
X135554285Y-123056190D02*
X135601904Y-123056190D01*
X135649523Y-123080000D01*
X135673333Y-123103809D01*
X135697142Y-123151428D01*
X135720952Y-123246666D01*
X135720952Y-123365714D01*
X135697142Y-123460952D01*
X135673333Y-123508571D01*
X135649523Y-123532380D01*
X135601904Y-123556190D01*
X135554285Y-123556190D01*
X135506666Y-123532380D01*
X135482857Y-123508571D01*
X135459047Y-123460952D01*
X135435238Y-123365714D01*
X135435238Y-123246666D01*
X135459047Y-123151428D01*
X135482857Y-123103809D01*
X135506666Y-123080000D01*
X135554285Y-123056190D01*
G04 #@! TO.C,D11*
X134482857Y-127366190D02*
X134482857Y-126866190D01*
X134601904Y-126866190D01*
X134673333Y-126890000D01*
X134720952Y-126937619D01*
X134744761Y-126985238D01*
X134768571Y-127080476D01*
X134768571Y-127151904D01*
X134744761Y-127247142D01*
X134720952Y-127294761D01*
X134673333Y-127342380D01*
X134601904Y-127366190D01*
X134482857Y-127366190D01*
X135244761Y-127366190D02*
X134959047Y-127366190D01*
X135101904Y-127366190D02*
X135101904Y-126866190D01*
X135054285Y-126937619D01*
X135006666Y-126985238D01*
X134959047Y-127009047D01*
X135720952Y-127366190D02*
X135435238Y-127366190D01*
X135578095Y-127366190D02*
X135578095Y-126866190D01*
X135530476Y-126937619D01*
X135482857Y-126985238D01*
X135435238Y-127009047D01*
G04 #@! TO.C,J8*
D11*
X104452380Y-105373333D02*
X105166666Y-105373333D01*
X105309523Y-105420952D01*
X105404761Y-105516190D01*
X105452380Y-105659047D01*
X105452380Y-105754285D01*
X104880952Y-104754285D02*
X104833333Y-104849523D01*
X104785714Y-104897142D01*
X104690476Y-104944761D01*
X104642857Y-104944761D01*
X104547619Y-104897142D01*
X104500000Y-104849523D01*
X104452380Y-104754285D01*
X104452380Y-104563809D01*
X104500000Y-104468571D01*
X104547619Y-104420952D01*
X104642857Y-104373333D01*
X104690476Y-104373333D01*
X104785714Y-104420952D01*
X104833333Y-104468571D01*
X104880952Y-104563809D01*
X104880952Y-104754285D01*
X104928571Y-104849523D01*
X104976190Y-104897142D01*
X105071428Y-104944761D01*
X105261904Y-104944761D01*
X105357142Y-104897142D01*
X105404761Y-104849523D01*
X105452380Y-104754285D01*
X105452380Y-104563809D01*
X105404761Y-104468571D01*
X105357142Y-104420952D01*
X105261904Y-104373333D01*
X105071428Y-104373333D01*
X104976190Y-104420952D01*
X104928571Y-104468571D01*
X104880952Y-104563809D01*
G04 #@! TO.C,J9*
X167141666Y-75157380D02*
X167141666Y-75871666D01*
X167094047Y-76014523D01*
X166998809Y-76109761D01*
X166855952Y-76157380D01*
X166760714Y-76157380D01*
X167665476Y-76157380D02*
X167855952Y-76157380D01*
X167951190Y-76109761D01*
X167998809Y-76062142D01*
X168094047Y-75919285D01*
X168141666Y-75728809D01*
X168141666Y-75347857D01*
X168094047Y-75252619D01*
X168046428Y-75205000D01*
X167951190Y-75157380D01*
X167760714Y-75157380D01*
X167665476Y-75205000D01*
X167617857Y-75252619D01*
X167570238Y-75347857D01*
X167570238Y-75585952D01*
X167617857Y-75681190D01*
X167665476Y-75728809D01*
X167760714Y-75776428D01*
X167951190Y-75776428D01*
X168046428Y-75728809D01*
X168094047Y-75681190D01*
X168141666Y-75585952D01*
G04 #@! TO.C,J11*
X166665476Y-82142380D02*
X166665476Y-82856666D01*
X166617857Y-82999523D01*
X166522619Y-83094761D01*
X166379761Y-83142380D01*
X166284523Y-83142380D01*
X167665476Y-83142380D02*
X167094047Y-83142380D01*
X167379761Y-83142380D02*
X167379761Y-82142380D01*
X167284523Y-82285238D01*
X167189285Y-82380476D01*
X167094047Y-82428095D01*
X168617857Y-83142380D02*
X168046428Y-83142380D01*
X168332142Y-83142380D02*
X168332142Y-82142380D01*
X168236904Y-82285238D01*
X168141666Y-82380476D01*
X168046428Y-82428095D01*
G04 #@! TO.C,J13*
X186952380Y-105849523D02*
X187666666Y-105849523D01*
X187809523Y-105897142D01*
X187904761Y-105992380D01*
X187952380Y-106135238D01*
X187952380Y-106230476D01*
X187952380Y-104849523D02*
X187952380Y-105420952D01*
X187952380Y-105135238D02*
X186952380Y-105135238D01*
X187095238Y-105230476D01*
X187190476Y-105325714D01*
X187238095Y-105420952D01*
X186952380Y-104516190D02*
X186952380Y-103897142D01*
X187333333Y-104230476D01*
X187333333Y-104087619D01*
X187380952Y-103992380D01*
X187428571Y-103944761D01*
X187523809Y-103897142D01*
X187761904Y-103897142D01*
X187857142Y-103944761D01*
X187904761Y-103992380D01*
X187952380Y-104087619D01*
X187952380Y-104373333D01*
X187904761Y-104468571D01*
X187857142Y-104516190D01*
G04 #@! TO.C,J17*
X61952380Y-115249523D02*
X62666666Y-115249523D01*
X62809523Y-115297142D01*
X62904761Y-115392380D01*
X62952380Y-115535238D01*
X62952380Y-115630476D01*
X62952380Y-114249523D02*
X62952380Y-114820952D01*
X62952380Y-114535238D02*
X61952380Y-114535238D01*
X62095238Y-114630476D01*
X62190476Y-114725714D01*
X62238095Y-114820952D01*
X61952380Y-113916190D02*
X61952380Y-113249523D01*
X62952380Y-113678095D01*
G04 #@! TO.C,J18*
X144452380Y-115249523D02*
X145166666Y-115249523D01*
X145309523Y-115297142D01*
X145404761Y-115392380D01*
X145452380Y-115535238D01*
X145452380Y-115630476D01*
X145452380Y-114249523D02*
X145452380Y-114820952D01*
X145452380Y-114535238D02*
X144452380Y-114535238D01*
X144595238Y-114630476D01*
X144690476Y-114725714D01*
X144738095Y-114820952D01*
X144880952Y-113678095D02*
X144833333Y-113773333D01*
X144785714Y-113820952D01*
X144690476Y-113868571D01*
X144642857Y-113868571D01*
X144547619Y-113820952D01*
X144500000Y-113773333D01*
X144452380Y-113678095D01*
X144452380Y-113487619D01*
X144500000Y-113392380D01*
X144547619Y-113344761D01*
X144642857Y-113297142D01*
X144690476Y-113297142D01*
X144785714Y-113344761D01*
X144833333Y-113392380D01*
X144880952Y-113487619D01*
X144880952Y-113678095D01*
X144928571Y-113773333D01*
X144976190Y-113820952D01*
X145071428Y-113868571D01*
X145261904Y-113868571D01*
X145357142Y-113820952D01*
X145404761Y-113773333D01*
X145452380Y-113678095D01*
X145452380Y-113487619D01*
X145404761Y-113392380D01*
X145357142Y-113344761D01*
X145261904Y-113297142D01*
X145071428Y-113297142D01*
X144976190Y-113344761D01*
X144928571Y-113392380D01*
X144880952Y-113487619D01*
G04 #@! TO.C,R7*
D12*
X119783333Y-128590952D02*
X119650000Y-128400476D01*
X119554761Y-128590952D02*
X119554761Y-128190952D01*
X119707142Y-128190952D01*
X119745238Y-128210000D01*
X119764285Y-128229047D01*
X119783333Y-128267142D01*
X119783333Y-128324285D01*
X119764285Y-128362380D01*
X119745238Y-128381428D01*
X119707142Y-128400476D01*
X119554761Y-128400476D01*
X119916666Y-128190952D02*
X120183333Y-128190952D01*
X120011904Y-128590952D01*
G04 #@! TO.C,R8*
X119783333Y-131130952D02*
X119650000Y-130940476D01*
X119554761Y-131130952D02*
X119554761Y-130730952D01*
X119707142Y-130730952D01*
X119745238Y-130750000D01*
X119764285Y-130769047D01*
X119783333Y-130807142D01*
X119783333Y-130864285D01*
X119764285Y-130902380D01*
X119745238Y-130921428D01*
X119707142Y-130940476D01*
X119554761Y-130940476D01*
X120011904Y-130902380D02*
X119973809Y-130883333D01*
X119954761Y-130864285D01*
X119935714Y-130826190D01*
X119935714Y-130807142D01*
X119954761Y-130769047D01*
X119973809Y-130750000D01*
X120011904Y-130730952D01*
X120088095Y-130730952D01*
X120126190Y-130750000D01*
X120145238Y-130769047D01*
X120164285Y-130807142D01*
X120164285Y-130826190D01*
X120145238Y-130864285D01*
X120126190Y-130883333D01*
X120088095Y-130902380D01*
X120011904Y-130902380D01*
X119973809Y-130921428D01*
X119954761Y-130940476D01*
X119935714Y-130978571D01*
X119935714Y-131054761D01*
X119954761Y-131092857D01*
X119973809Y-131111904D01*
X120011904Y-131130952D01*
X120088095Y-131130952D01*
X120126190Y-131111904D01*
X120145238Y-131092857D01*
X120164285Y-131054761D01*
X120164285Y-130978571D01*
X120145238Y-130940476D01*
X120126190Y-130921428D01*
X120088095Y-130902380D01*
G04 #@! TO.C,R9*
X119783333Y-122240952D02*
X119650000Y-122050476D01*
X119554761Y-122240952D02*
X119554761Y-121840952D01*
X119707142Y-121840952D01*
X119745238Y-121860000D01*
X119764285Y-121879047D01*
X119783333Y-121917142D01*
X119783333Y-121974285D01*
X119764285Y-122012380D01*
X119745238Y-122031428D01*
X119707142Y-122050476D01*
X119554761Y-122050476D01*
X119973809Y-122240952D02*
X120050000Y-122240952D01*
X120088095Y-122221904D01*
X120107142Y-122202857D01*
X120145238Y-122145714D01*
X120164285Y-122069523D01*
X120164285Y-121917142D01*
X120145238Y-121879047D01*
X120126190Y-121860000D01*
X120088095Y-121840952D01*
X120011904Y-121840952D01*
X119973809Y-121860000D01*
X119954761Y-121879047D01*
X119935714Y-121917142D01*
X119935714Y-122012380D01*
X119954761Y-122050476D01*
X119973809Y-122069523D01*
X120011904Y-122088571D01*
X120088095Y-122088571D01*
X120126190Y-122069523D01*
X120145238Y-122050476D01*
X120164285Y-122012380D01*
G04 #@! TO.C,R10*
X119592857Y-124780952D02*
X119459523Y-124590476D01*
X119364285Y-124780952D02*
X119364285Y-124380952D01*
X119516666Y-124380952D01*
X119554761Y-124400000D01*
X119573809Y-124419047D01*
X119592857Y-124457142D01*
X119592857Y-124514285D01*
X119573809Y-124552380D01*
X119554761Y-124571428D01*
X119516666Y-124590476D01*
X119364285Y-124590476D01*
X119973809Y-124780952D02*
X119745238Y-124780952D01*
X119859523Y-124780952D02*
X119859523Y-124380952D01*
X119821428Y-124438095D01*
X119783333Y-124476190D01*
X119745238Y-124495238D01*
X120221428Y-124380952D02*
X120259523Y-124380952D01*
X120297619Y-124400000D01*
X120316666Y-124419047D01*
X120335714Y-124457142D01*
X120354761Y-124533333D01*
X120354761Y-124628571D01*
X120335714Y-124704761D01*
X120316666Y-124742857D01*
X120297619Y-124761904D01*
X120259523Y-124780952D01*
X120221428Y-124780952D01*
X120183333Y-124761904D01*
X120164285Y-124742857D01*
X120145238Y-124704761D01*
X120126190Y-124628571D01*
X120126190Y-124533333D01*
X120145238Y-124457142D01*
X120164285Y-124419047D01*
X120183333Y-124400000D01*
X120221428Y-124380952D01*
G04 #@! TO.C,R11*
X104352857Y-126050952D02*
X104219523Y-125860476D01*
X104124285Y-126050952D02*
X104124285Y-125650952D01*
X104276666Y-125650952D01*
X104314761Y-125670000D01*
X104333809Y-125689047D01*
X104352857Y-125727142D01*
X104352857Y-125784285D01*
X104333809Y-125822380D01*
X104314761Y-125841428D01*
X104276666Y-125860476D01*
X104124285Y-125860476D01*
X104733809Y-126050952D02*
X104505238Y-126050952D01*
X104619523Y-126050952D02*
X104619523Y-125650952D01*
X104581428Y-125708095D01*
X104543333Y-125746190D01*
X104505238Y-125765238D01*
X105114761Y-126050952D02*
X104886190Y-126050952D01*
X105000476Y-126050952D02*
X105000476Y-125650952D01*
X104962380Y-125708095D01*
X104924285Y-125746190D01*
X104886190Y-125765238D01*
G04 #@! TO.C,R12*
X104352857Y-128590952D02*
X104219523Y-128400476D01*
X104124285Y-128590952D02*
X104124285Y-128190952D01*
X104276666Y-128190952D01*
X104314761Y-128210000D01*
X104333809Y-128229047D01*
X104352857Y-128267142D01*
X104352857Y-128324285D01*
X104333809Y-128362380D01*
X104314761Y-128381428D01*
X104276666Y-128400476D01*
X104124285Y-128400476D01*
X104733809Y-128590952D02*
X104505238Y-128590952D01*
X104619523Y-128590952D02*
X104619523Y-128190952D01*
X104581428Y-128248095D01*
X104543333Y-128286190D01*
X104505238Y-128305238D01*
X104886190Y-128229047D02*
X104905238Y-128210000D01*
X104943333Y-128190952D01*
X105038571Y-128190952D01*
X105076666Y-128210000D01*
X105095714Y-128229047D01*
X105114761Y-128267142D01*
X105114761Y-128305238D01*
X105095714Y-128362380D01*
X104867142Y-128590952D01*
X105114761Y-128590952D01*
G04 #@! TO.C,R13*
X188962857Y-86680952D02*
X188829523Y-86490476D01*
X188734285Y-86680952D02*
X188734285Y-86280952D01*
X188886666Y-86280952D01*
X188924761Y-86300000D01*
X188943809Y-86319047D01*
X188962857Y-86357142D01*
X188962857Y-86414285D01*
X188943809Y-86452380D01*
X188924761Y-86471428D01*
X188886666Y-86490476D01*
X188734285Y-86490476D01*
X189343809Y-86680952D02*
X189115238Y-86680952D01*
X189229523Y-86680952D02*
X189229523Y-86280952D01*
X189191428Y-86338095D01*
X189153333Y-86376190D01*
X189115238Y-86395238D01*
X189477142Y-86280952D02*
X189724761Y-86280952D01*
X189591428Y-86433333D01*
X189648571Y-86433333D01*
X189686666Y-86452380D01*
X189705714Y-86471428D01*
X189724761Y-86509523D01*
X189724761Y-86604761D01*
X189705714Y-86642857D01*
X189686666Y-86661904D01*
X189648571Y-86680952D01*
X189534285Y-86680952D01*
X189496190Y-86661904D01*
X189477142Y-86642857D01*
G04 #@! TO.C,R14*
X184757857Y-86680952D02*
X184624523Y-86490476D01*
X184529285Y-86680952D02*
X184529285Y-86280952D01*
X184681666Y-86280952D01*
X184719761Y-86300000D01*
X184738809Y-86319047D01*
X184757857Y-86357142D01*
X184757857Y-86414285D01*
X184738809Y-86452380D01*
X184719761Y-86471428D01*
X184681666Y-86490476D01*
X184529285Y-86490476D01*
X185138809Y-86680952D02*
X184910238Y-86680952D01*
X185024523Y-86680952D02*
X185024523Y-86280952D01*
X184986428Y-86338095D01*
X184948333Y-86376190D01*
X184910238Y-86395238D01*
X185481666Y-86414285D02*
X185481666Y-86680952D01*
X185386428Y-86261904D02*
X185291190Y-86547619D01*
X185538809Y-86547619D01*
G04 #@! TO.C,R15*
X202142857Y-131130952D02*
X202009523Y-130940476D01*
X201914285Y-131130952D02*
X201914285Y-130730952D01*
X202066666Y-130730952D01*
X202104761Y-130750000D01*
X202123809Y-130769047D01*
X202142857Y-130807142D01*
X202142857Y-130864285D01*
X202123809Y-130902380D01*
X202104761Y-130921428D01*
X202066666Y-130940476D01*
X201914285Y-130940476D01*
X202523809Y-131130952D02*
X202295238Y-131130952D01*
X202409523Y-131130952D02*
X202409523Y-130730952D01*
X202371428Y-130788095D01*
X202333333Y-130826190D01*
X202295238Y-130845238D01*
X202885714Y-130730952D02*
X202695238Y-130730952D01*
X202676190Y-130921428D01*
X202695238Y-130902380D01*
X202733333Y-130883333D01*
X202828571Y-130883333D01*
X202866666Y-130902380D01*
X202885714Y-130921428D01*
X202904761Y-130959523D01*
X202904761Y-131054761D01*
X202885714Y-131092857D01*
X202866666Y-131111904D01*
X202828571Y-131130952D01*
X202733333Y-131130952D01*
X202695238Y-131111904D01*
X202676190Y-131092857D01*
G04 #@! TO.C,R16*
X202142857Y-128590952D02*
X202009523Y-128400476D01*
X201914285Y-128590952D02*
X201914285Y-128190952D01*
X202066666Y-128190952D01*
X202104761Y-128210000D01*
X202123809Y-128229047D01*
X202142857Y-128267142D01*
X202142857Y-128324285D01*
X202123809Y-128362380D01*
X202104761Y-128381428D01*
X202066666Y-128400476D01*
X201914285Y-128400476D01*
X202523809Y-128590952D02*
X202295238Y-128590952D01*
X202409523Y-128590952D02*
X202409523Y-128190952D01*
X202371428Y-128248095D01*
X202333333Y-128286190D01*
X202295238Y-128305238D01*
X202866666Y-128190952D02*
X202790476Y-128190952D01*
X202752380Y-128210000D01*
X202733333Y-128229047D01*
X202695238Y-128286190D01*
X202676190Y-128362380D01*
X202676190Y-128514761D01*
X202695238Y-128552857D01*
X202714285Y-128571904D01*
X202752380Y-128590952D01*
X202828571Y-128590952D01*
X202866666Y-128571904D01*
X202885714Y-128552857D01*
X202904761Y-128514761D01*
X202904761Y-128419523D01*
X202885714Y-128381428D01*
X202866666Y-128362380D01*
X202828571Y-128343333D01*
X202752380Y-128343333D01*
X202714285Y-128362380D01*
X202695238Y-128381428D01*
X202676190Y-128419523D01*
G04 #@! TO.C,R17*
X202142857Y-124780952D02*
X202009523Y-124590476D01*
X201914285Y-124780952D02*
X201914285Y-124380952D01*
X202066666Y-124380952D01*
X202104761Y-124400000D01*
X202123809Y-124419047D01*
X202142857Y-124457142D01*
X202142857Y-124514285D01*
X202123809Y-124552380D01*
X202104761Y-124571428D01*
X202066666Y-124590476D01*
X201914285Y-124590476D01*
X202523809Y-124780952D02*
X202295238Y-124780952D01*
X202409523Y-124780952D02*
X202409523Y-124380952D01*
X202371428Y-124438095D01*
X202333333Y-124476190D01*
X202295238Y-124495238D01*
X202657142Y-124380952D02*
X202923809Y-124380952D01*
X202752380Y-124780952D01*
G04 #@! TO.C,R18*
X202142857Y-122240952D02*
X202009523Y-122050476D01*
X201914285Y-122240952D02*
X201914285Y-121840952D01*
X202066666Y-121840952D01*
X202104761Y-121860000D01*
X202123809Y-121879047D01*
X202142857Y-121917142D01*
X202142857Y-121974285D01*
X202123809Y-122012380D01*
X202104761Y-122031428D01*
X202066666Y-122050476D01*
X201914285Y-122050476D01*
X202523809Y-122240952D02*
X202295238Y-122240952D01*
X202409523Y-122240952D02*
X202409523Y-121840952D01*
X202371428Y-121898095D01*
X202333333Y-121936190D01*
X202295238Y-121955238D01*
X202752380Y-122012380D02*
X202714285Y-121993333D01*
X202695238Y-121974285D01*
X202676190Y-121936190D01*
X202676190Y-121917142D01*
X202695238Y-121879047D01*
X202714285Y-121860000D01*
X202752380Y-121840952D01*
X202828571Y-121840952D01*
X202866666Y-121860000D01*
X202885714Y-121879047D01*
X202904761Y-121917142D01*
X202904761Y-121936190D01*
X202885714Y-121974285D01*
X202866666Y-121993333D01*
X202828571Y-122012380D01*
X202752380Y-122012380D01*
X202714285Y-122031428D01*
X202695238Y-122050476D01*
X202676190Y-122088571D01*
X202676190Y-122164761D01*
X202695238Y-122202857D01*
X202714285Y-122221904D01*
X202752380Y-122240952D01*
X202828571Y-122240952D01*
X202866666Y-122221904D01*
X202885714Y-122202857D01*
X202904761Y-122164761D01*
X202904761Y-122088571D01*
X202885714Y-122050476D01*
X202866666Y-122031428D01*
X202828571Y-122012380D01*
G04 #@! TO.C,R19*
X186902857Y-126050952D02*
X186769523Y-125860476D01*
X186674285Y-126050952D02*
X186674285Y-125650952D01*
X186826666Y-125650952D01*
X186864761Y-125670000D01*
X186883809Y-125689047D01*
X186902857Y-125727142D01*
X186902857Y-125784285D01*
X186883809Y-125822380D01*
X186864761Y-125841428D01*
X186826666Y-125860476D01*
X186674285Y-125860476D01*
X187283809Y-126050952D02*
X187055238Y-126050952D01*
X187169523Y-126050952D02*
X187169523Y-125650952D01*
X187131428Y-125708095D01*
X187093333Y-125746190D01*
X187055238Y-125765238D01*
X187474285Y-126050952D02*
X187550476Y-126050952D01*
X187588571Y-126031904D01*
X187607619Y-126012857D01*
X187645714Y-125955714D01*
X187664761Y-125879523D01*
X187664761Y-125727142D01*
X187645714Y-125689047D01*
X187626666Y-125670000D01*
X187588571Y-125650952D01*
X187512380Y-125650952D01*
X187474285Y-125670000D01*
X187455238Y-125689047D01*
X187436190Y-125727142D01*
X187436190Y-125822380D01*
X187455238Y-125860476D01*
X187474285Y-125879523D01*
X187512380Y-125898571D01*
X187588571Y-125898571D01*
X187626666Y-125879523D01*
X187645714Y-125860476D01*
X187664761Y-125822380D01*
G04 #@! TO.C,R20*
X186902857Y-128590952D02*
X186769523Y-128400476D01*
X186674285Y-128590952D02*
X186674285Y-128190952D01*
X186826666Y-128190952D01*
X186864761Y-128210000D01*
X186883809Y-128229047D01*
X186902857Y-128267142D01*
X186902857Y-128324285D01*
X186883809Y-128362380D01*
X186864761Y-128381428D01*
X186826666Y-128400476D01*
X186674285Y-128400476D01*
X187055238Y-128229047D02*
X187074285Y-128210000D01*
X187112380Y-128190952D01*
X187207619Y-128190952D01*
X187245714Y-128210000D01*
X187264761Y-128229047D01*
X187283809Y-128267142D01*
X187283809Y-128305238D01*
X187264761Y-128362380D01*
X187036190Y-128590952D01*
X187283809Y-128590952D01*
X187531428Y-128190952D02*
X187569523Y-128190952D01*
X187607619Y-128210000D01*
X187626666Y-128229047D01*
X187645714Y-128267142D01*
X187664761Y-128343333D01*
X187664761Y-128438571D01*
X187645714Y-128514761D01*
X187626666Y-128552857D01*
X187607619Y-128571904D01*
X187569523Y-128590952D01*
X187531428Y-128590952D01*
X187493333Y-128571904D01*
X187474285Y-128552857D01*
X187455238Y-128514761D01*
X187436190Y-128438571D01*
X187436190Y-128343333D01*
X187455238Y-128267142D01*
X187474285Y-128229047D01*
X187493333Y-128210000D01*
X187531428Y-128190952D01*
G04 #@! TO.C,R21*
X71332857Y-101920952D02*
X71199523Y-101730476D01*
X71104285Y-101920952D02*
X71104285Y-101520952D01*
X71256666Y-101520952D01*
X71294761Y-101540000D01*
X71313809Y-101559047D01*
X71332857Y-101597142D01*
X71332857Y-101654285D01*
X71313809Y-101692380D01*
X71294761Y-101711428D01*
X71256666Y-101730476D01*
X71104285Y-101730476D01*
X71485238Y-101559047D02*
X71504285Y-101540000D01*
X71542380Y-101520952D01*
X71637619Y-101520952D01*
X71675714Y-101540000D01*
X71694761Y-101559047D01*
X71713809Y-101597142D01*
X71713809Y-101635238D01*
X71694761Y-101692380D01*
X71466190Y-101920952D01*
X71713809Y-101920952D01*
X72094761Y-101920952D02*
X71866190Y-101920952D01*
X71980476Y-101920952D02*
X71980476Y-101520952D01*
X71942380Y-101578095D01*
X71904285Y-101616190D01*
X71866190Y-101635238D01*
G04 #@! TO.C,R22*
X57362857Y-123510952D02*
X57229523Y-123320476D01*
X57134285Y-123510952D02*
X57134285Y-123110952D01*
X57286666Y-123110952D01*
X57324761Y-123130000D01*
X57343809Y-123149047D01*
X57362857Y-123187142D01*
X57362857Y-123244285D01*
X57343809Y-123282380D01*
X57324761Y-123301428D01*
X57286666Y-123320476D01*
X57134285Y-123320476D01*
X57515238Y-123149047D02*
X57534285Y-123130000D01*
X57572380Y-123110952D01*
X57667619Y-123110952D01*
X57705714Y-123130000D01*
X57724761Y-123149047D01*
X57743809Y-123187142D01*
X57743809Y-123225238D01*
X57724761Y-123282380D01*
X57496190Y-123510952D01*
X57743809Y-123510952D01*
X57896190Y-123149047D02*
X57915238Y-123130000D01*
X57953333Y-123110952D01*
X58048571Y-123110952D01*
X58086666Y-123130000D01*
X58105714Y-123149047D01*
X58124761Y-123187142D01*
X58124761Y-123225238D01*
X58105714Y-123282380D01*
X57877142Y-123510952D01*
X58124761Y-123510952D01*
G04 #@! TO.C,R23*
X57362857Y-126939952D02*
X57229523Y-126749476D01*
X57134285Y-126939952D02*
X57134285Y-126539952D01*
X57286666Y-126539952D01*
X57324761Y-126559000D01*
X57343809Y-126578047D01*
X57362857Y-126616142D01*
X57362857Y-126673285D01*
X57343809Y-126711380D01*
X57324761Y-126730428D01*
X57286666Y-126749476D01*
X57134285Y-126749476D01*
X57515238Y-126578047D02*
X57534285Y-126559000D01*
X57572380Y-126539952D01*
X57667619Y-126539952D01*
X57705714Y-126559000D01*
X57724761Y-126578047D01*
X57743809Y-126616142D01*
X57743809Y-126654238D01*
X57724761Y-126711380D01*
X57496190Y-126939952D01*
X57743809Y-126939952D01*
X57877142Y-126539952D02*
X58124761Y-126539952D01*
X57991428Y-126692333D01*
X58048571Y-126692333D01*
X58086666Y-126711380D01*
X58105714Y-126730428D01*
X58124761Y-126768523D01*
X58124761Y-126863761D01*
X58105714Y-126901857D01*
X58086666Y-126920904D01*
X58048571Y-126939952D01*
X57934285Y-126939952D01*
X57896190Y-126920904D01*
X57877142Y-126901857D01*
G04 #@! TO.C,R24*
X85302857Y-94300952D02*
X85169523Y-94110476D01*
X85074285Y-94300952D02*
X85074285Y-93900952D01*
X85226666Y-93900952D01*
X85264761Y-93920000D01*
X85283809Y-93939047D01*
X85302857Y-93977142D01*
X85302857Y-94034285D01*
X85283809Y-94072380D01*
X85264761Y-94091428D01*
X85226666Y-94110476D01*
X85074285Y-94110476D01*
X85455238Y-93939047D02*
X85474285Y-93920000D01*
X85512380Y-93900952D01*
X85607619Y-93900952D01*
X85645714Y-93920000D01*
X85664761Y-93939047D01*
X85683809Y-93977142D01*
X85683809Y-94015238D01*
X85664761Y-94072380D01*
X85436190Y-94300952D01*
X85683809Y-94300952D01*
X86026666Y-94034285D02*
X86026666Y-94300952D01*
X85931428Y-93881904D02*
X85836190Y-94167619D01*
X86083809Y-94167619D01*
G04 #@! TO.C,R25*
X156422857Y-101920952D02*
X156289523Y-101730476D01*
X156194285Y-101920952D02*
X156194285Y-101520952D01*
X156346666Y-101520952D01*
X156384761Y-101540000D01*
X156403809Y-101559047D01*
X156422857Y-101597142D01*
X156422857Y-101654285D01*
X156403809Y-101692380D01*
X156384761Y-101711428D01*
X156346666Y-101730476D01*
X156194285Y-101730476D01*
X156575238Y-101559047D02*
X156594285Y-101540000D01*
X156632380Y-101520952D01*
X156727619Y-101520952D01*
X156765714Y-101540000D01*
X156784761Y-101559047D01*
X156803809Y-101597142D01*
X156803809Y-101635238D01*
X156784761Y-101692380D01*
X156556190Y-101920952D01*
X156803809Y-101920952D01*
X157165714Y-101520952D02*
X156975238Y-101520952D01*
X156956190Y-101711428D01*
X156975238Y-101692380D01*
X157013333Y-101673333D01*
X157108571Y-101673333D01*
X157146666Y-101692380D01*
X157165714Y-101711428D01*
X157184761Y-101749523D01*
X157184761Y-101844761D01*
X157165714Y-101882857D01*
X157146666Y-101901904D01*
X157108571Y-101920952D01*
X157013333Y-101920952D01*
X156975238Y-101901904D01*
X156956190Y-101882857D01*
G04 #@! TO.C,R26*
X139912857Y-123510952D02*
X139779523Y-123320476D01*
X139684285Y-123510952D02*
X139684285Y-123110952D01*
X139836666Y-123110952D01*
X139874761Y-123130000D01*
X139893809Y-123149047D01*
X139912857Y-123187142D01*
X139912857Y-123244285D01*
X139893809Y-123282380D01*
X139874761Y-123301428D01*
X139836666Y-123320476D01*
X139684285Y-123320476D01*
X140065238Y-123149047D02*
X140084285Y-123130000D01*
X140122380Y-123110952D01*
X140217619Y-123110952D01*
X140255714Y-123130000D01*
X140274761Y-123149047D01*
X140293809Y-123187142D01*
X140293809Y-123225238D01*
X140274761Y-123282380D01*
X140046190Y-123510952D01*
X140293809Y-123510952D01*
X140636666Y-123110952D02*
X140560476Y-123110952D01*
X140522380Y-123130000D01*
X140503333Y-123149047D01*
X140465238Y-123206190D01*
X140446190Y-123282380D01*
X140446190Y-123434761D01*
X140465238Y-123472857D01*
X140484285Y-123491904D01*
X140522380Y-123510952D01*
X140598571Y-123510952D01*
X140636666Y-123491904D01*
X140655714Y-123472857D01*
X140674761Y-123434761D01*
X140674761Y-123339523D01*
X140655714Y-123301428D01*
X140636666Y-123282380D01*
X140598571Y-123263333D01*
X140522380Y-123263333D01*
X140484285Y-123282380D01*
X140465238Y-123301428D01*
X140446190Y-123339523D01*
G04 #@! TO.C,R27*
X139912857Y-127320952D02*
X139779523Y-127130476D01*
X139684285Y-127320952D02*
X139684285Y-126920952D01*
X139836666Y-126920952D01*
X139874761Y-126940000D01*
X139893809Y-126959047D01*
X139912857Y-126997142D01*
X139912857Y-127054285D01*
X139893809Y-127092380D01*
X139874761Y-127111428D01*
X139836666Y-127130476D01*
X139684285Y-127130476D01*
X140065238Y-126959047D02*
X140084285Y-126940000D01*
X140122380Y-126920952D01*
X140217619Y-126920952D01*
X140255714Y-126940000D01*
X140274761Y-126959047D01*
X140293809Y-126997142D01*
X140293809Y-127035238D01*
X140274761Y-127092380D01*
X140046190Y-127320952D01*
X140293809Y-127320952D01*
X140427142Y-126920952D02*
X140693809Y-126920952D01*
X140522380Y-127320952D01*
G04 #@! TO.C,R28*
X170392857Y-94300952D02*
X170259523Y-94110476D01*
X170164285Y-94300952D02*
X170164285Y-93900952D01*
X170316666Y-93900952D01*
X170354761Y-93920000D01*
X170373809Y-93939047D01*
X170392857Y-93977142D01*
X170392857Y-94034285D01*
X170373809Y-94072380D01*
X170354761Y-94091428D01*
X170316666Y-94110476D01*
X170164285Y-94110476D01*
X170545238Y-93939047D02*
X170564285Y-93920000D01*
X170602380Y-93900952D01*
X170697619Y-93900952D01*
X170735714Y-93920000D01*
X170754761Y-93939047D01*
X170773809Y-93977142D01*
X170773809Y-94015238D01*
X170754761Y-94072380D01*
X170526190Y-94300952D01*
X170773809Y-94300952D01*
X171002380Y-94072380D02*
X170964285Y-94053333D01*
X170945238Y-94034285D01*
X170926190Y-93996190D01*
X170926190Y-93977142D01*
X170945238Y-93939047D01*
X170964285Y-93920000D01*
X171002380Y-93900952D01*
X171078571Y-93900952D01*
X171116666Y-93920000D01*
X171135714Y-93939047D01*
X171154761Y-93977142D01*
X171154761Y-93996190D01*
X171135714Y-94034285D01*
X171116666Y-94053333D01*
X171078571Y-94072380D01*
X171002380Y-94072380D01*
X170964285Y-94091428D01*
X170945238Y-94110476D01*
X170926190Y-94148571D01*
X170926190Y-94224761D01*
X170945238Y-94262857D01*
X170964285Y-94281904D01*
X171002380Y-94300952D01*
X171078571Y-94300952D01*
X171116666Y-94281904D01*
X171135714Y-94262857D01*
X171154761Y-94224761D01*
X171154761Y-94148571D01*
X171135714Y-94110476D01*
X171116666Y-94091428D01*
X171078571Y-94072380D01*
G04 #@! TO.C,R29*
X73872857Y-109540952D02*
X73739523Y-109350476D01*
X73644285Y-109540952D02*
X73644285Y-109140952D01*
X73796666Y-109140952D01*
X73834761Y-109160000D01*
X73853809Y-109179047D01*
X73872857Y-109217142D01*
X73872857Y-109274285D01*
X73853809Y-109312380D01*
X73834761Y-109331428D01*
X73796666Y-109350476D01*
X73644285Y-109350476D01*
X74025238Y-109179047D02*
X74044285Y-109160000D01*
X74082380Y-109140952D01*
X74177619Y-109140952D01*
X74215714Y-109160000D01*
X74234761Y-109179047D01*
X74253809Y-109217142D01*
X74253809Y-109255238D01*
X74234761Y-109312380D01*
X74006190Y-109540952D01*
X74253809Y-109540952D01*
X74444285Y-109540952D02*
X74520476Y-109540952D01*
X74558571Y-109521904D01*
X74577619Y-109502857D01*
X74615714Y-109445714D01*
X74634761Y-109369523D01*
X74634761Y-109217142D01*
X74615714Y-109179047D01*
X74596666Y-109160000D01*
X74558571Y-109140952D01*
X74482380Y-109140952D01*
X74444285Y-109160000D01*
X74425238Y-109179047D01*
X74406190Y-109217142D01*
X74406190Y-109312380D01*
X74425238Y-109350476D01*
X74444285Y-109369523D01*
X74482380Y-109388571D01*
X74558571Y-109388571D01*
X74596666Y-109369523D01*
X74615714Y-109350476D01*
X74634761Y-109312380D01*
G04 #@! TO.C,R30*
X73872857Y-112080952D02*
X73739523Y-111890476D01*
X73644285Y-112080952D02*
X73644285Y-111680952D01*
X73796666Y-111680952D01*
X73834761Y-111700000D01*
X73853809Y-111719047D01*
X73872857Y-111757142D01*
X73872857Y-111814285D01*
X73853809Y-111852380D01*
X73834761Y-111871428D01*
X73796666Y-111890476D01*
X73644285Y-111890476D01*
X74006190Y-111680952D02*
X74253809Y-111680952D01*
X74120476Y-111833333D01*
X74177619Y-111833333D01*
X74215714Y-111852380D01*
X74234761Y-111871428D01*
X74253809Y-111909523D01*
X74253809Y-112004761D01*
X74234761Y-112042857D01*
X74215714Y-112061904D01*
X74177619Y-112080952D01*
X74063333Y-112080952D01*
X74025238Y-112061904D01*
X74006190Y-112042857D01*
X74501428Y-111680952D02*
X74539523Y-111680952D01*
X74577619Y-111700000D01*
X74596666Y-111719047D01*
X74615714Y-111757142D01*
X74634761Y-111833333D01*
X74634761Y-111928571D01*
X74615714Y-112004761D01*
X74596666Y-112042857D01*
X74577619Y-112061904D01*
X74539523Y-112080952D01*
X74501428Y-112080952D01*
X74463333Y-112061904D01*
X74444285Y-112042857D01*
X74425238Y-112004761D01*
X74406190Y-111928571D01*
X74406190Y-111833333D01*
X74425238Y-111757142D01*
X74444285Y-111719047D01*
X74463333Y-111700000D01*
X74501428Y-111680952D01*
G04 #@! TO.C,R31*
X73872857Y-114620952D02*
X73739523Y-114430476D01*
X73644285Y-114620952D02*
X73644285Y-114220952D01*
X73796666Y-114220952D01*
X73834761Y-114240000D01*
X73853809Y-114259047D01*
X73872857Y-114297142D01*
X73872857Y-114354285D01*
X73853809Y-114392380D01*
X73834761Y-114411428D01*
X73796666Y-114430476D01*
X73644285Y-114430476D01*
X74006190Y-114220952D02*
X74253809Y-114220952D01*
X74120476Y-114373333D01*
X74177619Y-114373333D01*
X74215714Y-114392380D01*
X74234761Y-114411428D01*
X74253809Y-114449523D01*
X74253809Y-114544761D01*
X74234761Y-114582857D01*
X74215714Y-114601904D01*
X74177619Y-114620952D01*
X74063333Y-114620952D01*
X74025238Y-114601904D01*
X74006190Y-114582857D01*
X74634761Y-114620952D02*
X74406190Y-114620952D01*
X74520476Y-114620952D02*
X74520476Y-114220952D01*
X74482380Y-114278095D01*
X74444285Y-114316190D01*
X74406190Y-114335238D01*
G04 #@! TO.C,R32*
X73872857Y-117160952D02*
X73739523Y-116970476D01*
X73644285Y-117160952D02*
X73644285Y-116760952D01*
X73796666Y-116760952D01*
X73834761Y-116780000D01*
X73853809Y-116799047D01*
X73872857Y-116837142D01*
X73872857Y-116894285D01*
X73853809Y-116932380D01*
X73834761Y-116951428D01*
X73796666Y-116970476D01*
X73644285Y-116970476D01*
X74006190Y-116760952D02*
X74253809Y-116760952D01*
X74120476Y-116913333D01*
X74177619Y-116913333D01*
X74215714Y-116932380D01*
X74234761Y-116951428D01*
X74253809Y-116989523D01*
X74253809Y-117084761D01*
X74234761Y-117122857D01*
X74215714Y-117141904D01*
X74177619Y-117160952D01*
X74063333Y-117160952D01*
X74025238Y-117141904D01*
X74006190Y-117122857D01*
X74406190Y-116799047D02*
X74425238Y-116780000D01*
X74463333Y-116760952D01*
X74558571Y-116760952D01*
X74596666Y-116780000D01*
X74615714Y-116799047D01*
X74634761Y-116837142D01*
X74634761Y-116875238D01*
X74615714Y-116932380D01*
X74387142Y-117160952D01*
X74634761Y-117160952D01*
G04 #@! TO.C,R33*
X158962857Y-109540952D02*
X158829523Y-109350476D01*
X158734285Y-109540952D02*
X158734285Y-109140952D01*
X158886666Y-109140952D01*
X158924761Y-109160000D01*
X158943809Y-109179047D01*
X158962857Y-109217142D01*
X158962857Y-109274285D01*
X158943809Y-109312380D01*
X158924761Y-109331428D01*
X158886666Y-109350476D01*
X158734285Y-109350476D01*
X159096190Y-109140952D02*
X159343809Y-109140952D01*
X159210476Y-109293333D01*
X159267619Y-109293333D01*
X159305714Y-109312380D01*
X159324761Y-109331428D01*
X159343809Y-109369523D01*
X159343809Y-109464761D01*
X159324761Y-109502857D01*
X159305714Y-109521904D01*
X159267619Y-109540952D01*
X159153333Y-109540952D01*
X159115238Y-109521904D01*
X159096190Y-109502857D01*
X159477142Y-109140952D02*
X159724761Y-109140952D01*
X159591428Y-109293333D01*
X159648571Y-109293333D01*
X159686666Y-109312380D01*
X159705714Y-109331428D01*
X159724761Y-109369523D01*
X159724761Y-109464761D01*
X159705714Y-109502857D01*
X159686666Y-109521904D01*
X159648571Y-109540952D01*
X159534285Y-109540952D01*
X159496190Y-109521904D01*
X159477142Y-109502857D01*
G04 #@! TO.C,R34*
X158962857Y-112080952D02*
X158829523Y-111890476D01*
X158734285Y-112080952D02*
X158734285Y-111680952D01*
X158886666Y-111680952D01*
X158924761Y-111700000D01*
X158943809Y-111719047D01*
X158962857Y-111757142D01*
X158962857Y-111814285D01*
X158943809Y-111852380D01*
X158924761Y-111871428D01*
X158886666Y-111890476D01*
X158734285Y-111890476D01*
X159096190Y-111680952D02*
X159343809Y-111680952D01*
X159210476Y-111833333D01*
X159267619Y-111833333D01*
X159305714Y-111852380D01*
X159324761Y-111871428D01*
X159343809Y-111909523D01*
X159343809Y-112004761D01*
X159324761Y-112042857D01*
X159305714Y-112061904D01*
X159267619Y-112080952D01*
X159153333Y-112080952D01*
X159115238Y-112061904D01*
X159096190Y-112042857D01*
X159686666Y-111814285D02*
X159686666Y-112080952D01*
X159591428Y-111661904D02*
X159496190Y-111947619D01*
X159743809Y-111947619D01*
G04 #@! TO.C,R35*
X158962857Y-114620952D02*
X158829523Y-114430476D01*
X158734285Y-114620952D02*
X158734285Y-114220952D01*
X158886666Y-114220952D01*
X158924761Y-114240000D01*
X158943809Y-114259047D01*
X158962857Y-114297142D01*
X158962857Y-114354285D01*
X158943809Y-114392380D01*
X158924761Y-114411428D01*
X158886666Y-114430476D01*
X158734285Y-114430476D01*
X159096190Y-114220952D02*
X159343809Y-114220952D01*
X159210476Y-114373333D01*
X159267619Y-114373333D01*
X159305714Y-114392380D01*
X159324761Y-114411428D01*
X159343809Y-114449523D01*
X159343809Y-114544761D01*
X159324761Y-114582857D01*
X159305714Y-114601904D01*
X159267619Y-114620952D01*
X159153333Y-114620952D01*
X159115238Y-114601904D01*
X159096190Y-114582857D01*
X159705714Y-114220952D02*
X159515238Y-114220952D01*
X159496190Y-114411428D01*
X159515238Y-114392380D01*
X159553333Y-114373333D01*
X159648571Y-114373333D01*
X159686666Y-114392380D01*
X159705714Y-114411428D01*
X159724761Y-114449523D01*
X159724761Y-114544761D01*
X159705714Y-114582857D01*
X159686666Y-114601904D01*
X159648571Y-114620952D01*
X159553333Y-114620952D01*
X159515238Y-114601904D01*
X159496190Y-114582857D01*
G04 #@! TO.C,R36*
X158962857Y-117160952D02*
X158829523Y-116970476D01*
X158734285Y-117160952D02*
X158734285Y-116760952D01*
X158886666Y-116760952D01*
X158924761Y-116780000D01*
X158943809Y-116799047D01*
X158962857Y-116837142D01*
X158962857Y-116894285D01*
X158943809Y-116932380D01*
X158924761Y-116951428D01*
X158886666Y-116970476D01*
X158734285Y-116970476D01*
X159096190Y-116760952D02*
X159343809Y-116760952D01*
X159210476Y-116913333D01*
X159267619Y-116913333D01*
X159305714Y-116932380D01*
X159324761Y-116951428D01*
X159343809Y-116989523D01*
X159343809Y-117084761D01*
X159324761Y-117122857D01*
X159305714Y-117141904D01*
X159267619Y-117160952D01*
X159153333Y-117160952D01*
X159115238Y-117141904D01*
X159096190Y-117122857D01*
X159686666Y-116760952D02*
X159610476Y-116760952D01*
X159572380Y-116780000D01*
X159553333Y-116799047D01*
X159515238Y-116856190D01*
X159496190Y-116932380D01*
X159496190Y-117084761D01*
X159515238Y-117122857D01*
X159534285Y-117141904D01*
X159572380Y-117160952D01*
X159648571Y-117160952D01*
X159686666Y-117141904D01*
X159705714Y-117122857D01*
X159724761Y-117084761D01*
X159724761Y-116989523D01*
X159705714Y-116951428D01*
X159686666Y-116932380D01*
X159648571Y-116913333D01*
X159572380Y-116913333D01*
X159534285Y-116932380D01*
X159515238Y-116951428D01*
X159496190Y-116989523D01*
G04 #@! TO.C,J15*
D11*
X61952380Y-102159523D02*
X62666666Y-102159523D01*
X62809523Y-102207142D01*
X62904761Y-102302380D01*
X62952380Y-102445238D01*
X62952380Y-102540476D01*
X62952380Y-101159523D02*
X62952380Y-101730952D01*
X62952380Y-101445238D02*
X61952380Y-101445238D01*
X62095238Y-101540476D01*
X62190476Y-101635714D01*
X62238095Y-101730952D01*
X61952380Y-100254761D02*
X61952380Y-100730952D01*
X62428571Y-100778571D01*
X62380952Y-100730952D01*
X62333333Y-100635714D01*
X62333333Y-100397619D01*
X62380952Y-100302380D01*
X62428571Y-100254761D01*
X62523809Y-100207142D01*
X62761904Y-100207142D01*
X62857142Y-100254761D01*
X62904761Y-100302380D01*
X62952380Y-100397619D01*
X62952380Y-100635714D01*
X62904761Y-100730952D01*
X62857142Y-100778571D01*
G04 #@! TO.C,J16*
X144452380Y-102159523D02*
X145166666Y-102159523D01*
X145309523Y-102207142D01*
X145404761Y-102302380D01*
X145452380Y-102445238D01*
X145452380Y-102540476D01*
X145452380Y-101159523D02*
X145452380Y-101730952D01*
X145452380Y-101445238D02*
X144452380Y-101445238D01*
X144595238Y-101540476D01*
X144690476Y-101635714D01*
X144738095Y-101730952D01*
X144452380Y-100302380D02*
X144452380Y-100492857D01*
X144500000Y-100588095D01*
X144547619Y-100635714D01*
X144690476Y-100730952D01*
X144880952Y-100778571D01*
X145261904Y-100778571D01*
X145357142Y-100730952D01*
X145404761Y-100683333D01*
X145452380Y-100588095D01*
X145452380Y-100397619D01*
X145404761Y-100302380D01*
X145357142Y-100254761D01*
X145261904Y-100207142D01*
X145023809Y-100207142D01*
X144928571Y-100254761D01*
X144880952Y-100302380D01*
X144833333Y-100397619D01*
X144833333Y-100588095D01*
X144880952Y-100683333D01*
X144928571Y-100730952D01*
X145023809Y-100778571D01*
G04 #@! TO.C,R37*
D12*
X90586125Y-135704780D02*
X90357157Y-135664374D01*
X90424500Y-135866404D02*
X90141658Y-135583561D01*
X90249407Y-135475812D01*
X90289813Y-135462343D01*
X90316751Y-135462343D01*
X90357157Y-135475812D01*
X90397563Y-135516218D01*
X90411032Y-135556624D01*
X90411032Y-135583561D01*
X90397563Y-135623967D01*
X90289813Y-135731717D01*
X90397563Y-135327656D02*
X90572656Y-135152563D01*
X90586125Y-135354593D01*
X90626531Y-135314187D01*
X90666937Y-135300719D01*
X90693874Y-135300719D01*
X90734280Y-135314187D01*
X90801624Y-135381531D01*
X90815093Y-135421937D01*
X90815093Y-135448874D01*
X90801624Y-135489280D01*
X90720812Y-135570093D01*
X90680406Y-135583561D01*
X90653468Y-135583561D01*
X90666937Y-135058282D02*
X90855499Y-134869720D01*
X91017123Y-135273781D01*
G04 #@! TO.C,R38*
X90586125Y-138244780D02*
X90357157Y-138204374D01*
X90424500Y-138406404D02*
X90141658Y-138123561D01*
X90249407Y-138015812D01*
X90289813Y-138002343D01*
X90316751Y-138002343D01*
X90357157Y-138015812D01*
X90397563Y-138056218D01*
X90411032Y-138096624D01*
X90411032Y-138123561D01*
X90397563Y-138163967D01*
X90289813Y-138271717D01*
X90397563Y-137867656D02*
X90572656Y-137692563D01*
X90586125Y-137894593D01*
X90626531Y-137854187D01*
X90666937Y-137840719D01*
X90693874Y-137840719D01*
X90734280Y-137854187D01*
X90801624Y-137921531D01*
X90815093Y-137961937D01*
X90815093Y-137988874D01*
X90801624Y-138029280D01*
X90720812Y-138110093D01*
X90680406Y-138123561D01*
X90653468Y-138123561D01*
X90855499Y-137652157D02*
X90815093Y-137665625D01*
X90788155Y-137665625D01*
X90747749Y-137652157D01*
X90734280Y-137638688D01*
X90720812Y-137598282D01*
X90720812Y-137571345D01*
X90734280Y-137530938D01*
X90788155Y-137477064D01*
X90828561Y-137463595D01*
X90855499Y-137463595D01*
X90895905Y-137477064D01*
X90909374Y-137490532D01*
X90922842Y-137530938D01*
X90922842Y-137557876D01*
X90909374Y-137598282D01*
X90855499Y-137652157D01*
X90842030Y-137692563D01*
X90842030Y-137719500D01*
X90855499Y-137759906D01*
X90909374Y-137813781D01*
X90949780Y-137827250D01*
X90976717Y-137827250D01*
X91017123Y-137813781D01*
X91070998Y-137759906D01*
X91084467Y-137719500D01*
X91084467Y-137692563D01*
X91070998Y-137652157D01*
X91017123Y-137598282D01*
X90976717Y-137584813D01*
X90949780Y-137584813D01*
X90909374Y-137598282D01*
G04 #@! TO.C,R39*
X90586125Y-140784780D02*
X90357157Y-140744374D01*
X90424500Y-140946404D02*
X90141658Y-140663561D01*
X90249407Y-140555812D01*
X90289813Y-140542343D01*
X90316751Y-140542343D01*
X90357157Y-140555812D01*
X90397563Y-140596218D01*
X90411032Y-140636624D01*
X90411032Y-140663561D01*
X90397563Y-140703967D01*
X90289813Y-140811717D01*
X90397563Y-140407656D02*
X90572656Y-140232563D01*
X90586125Y-140434593D01*
X90626531Y-140394187D01*
X90666937Y-140380719D01*
X90693874Y-140380719D01*
X90734280Y-140394187D01*
X90801624Y-140461531D01*
X90815093Y-140501937D01*
X90815093Y-140528874D01*
X90801624Y-140569280D01*
X90720812Y-140650093D01*
X90680406Y-140663561D01*
X90653468Y-140663561D01*
X90990186Y-140380719D02*
X91044061Y-140326844D01*
X91057529Y-140286438D01*
X91057529Y-140259500D01*
X91044061Y-140192157D01*
X91003654Y-140124813D01*
X90895905Y-140017064D01*
X90855499Y-140003595D01*
X90828561Y-140003595D01*
X90788155Y-140017064D01*
X90734280Y-140070938D01*
X90720812Y-140111345D01*
X90720812Y-140138282D01*
X90734280Y-140178688D01*
X90801624Y-140246032D01*
X90842030Y-140259500D01*
X90868967Y-140259500D01*
X90909374Y-140246032D01*
X90963248Y-140192157D01*
X90976717Y-140151751D01*
X90976717Y-140124813D01*
X90963248Y-140084407D01*
G04 #@! TO.C,R40*
X90586125Y-121734780D02*
X90357157Y-121694374D01*
X90424500Y-121896404D02*
X90141658Y-121613561D01*
X90249407Y-121505812D01*
X90289813Y-121492343D01*
X90316751Y-121492343D01*
X90357157Y-121505812D01*
X90397563Y-121546218D01*
X90411032Y-121586624D01*
X90411032Y-121613561D01*
X90397563Y-121653967D01*
X90289813Y-121761717D01*
X90640000Y-121303781D02*
X90828561Y-121492343D01*
X90464906Y-121263375D02*
X90599593Y-121532749D01*
X90774687Y-121357656D01*
X90747749Y-121007470D02*
X90774687Y-120980532D01*
X90815093Y-120967064D01*
X90842030Y-120967064D01*
X90882436Y-120980532D01*
X90949780Y-121020938D01*
X91017123Y-121088282D01*
X91057529Y-121155625D01*
X91070998Y-121196032D01*
X91070998Y-121222969D01*
X91057529Y-121263375D01*
X91030592Y-121290312D01*
X90990186Y-121303781D01*
X90963248Y-121303781D01*
X90922842Y-121290312D01*
X90855499Y-121249906D01*
X90788155Y-121182563D01*
X90747749Y-121115219D01*
X90734280Y-121074813D01*
X90734280Y-121047876D01*
X90747749Y-121007470D01*
G04 #@! TO.C,R41*
X90586125Y-119194780D02*
X90357157Y-119154374D01*
X90424500Y-119356404D02*
X90141658Y-119073561D01*
X90249407Y-118965812D01*
X90289813Y-118952343D01*
X90316751Y-118952343D01*
X90357157Y-118965812D01*
X90397563Y-119006218D01*
X90411032Y-119046624D01*
X90411032Y-119073561D01*
X90397563Y-119113967D01*
X90289813Y-119221717D01*
X90640000Y-118763781D02*
X90828561Y-118952343D01*
X90464906Y-118723375D02*
X90599593Y-118992749D01*
X90774687Y-118817656D01*
X91124873Y-118656032D02*
X90963248Y-118817656D01*
X91044061Y-118736844D02*
X90761218Y-118454001D01*
X90774687Y-118521345D01*
X90774687Y-118575219D01*
X90761218Y-118615625D01*
G04 #@! TO.C,R42*
X90586125Y-116654780D02*
X90357157Y-116614374D01*
X90424500Y-116816404D02*
X90141658Y-116533561D01*
X90249407Y-116425812D01*
X90289813Y-116412343D01*
X90316751Y-116412343D01*
X90357157Y-116425812D01*
X90397563Y-116466218D01*
X90411032Y-116506624D01*
X90411032Y-116533561D01*
X90397563Y-116573967D01*
X90289813Y-116681717D01*
X90640000Y-116223781D02*
X90828561Y-116412343D01*
X90464906Y-116183375D02*
X90599593Y-116452749D01*
X90774687Y-116277656D01*
X90707343Y-116021751D02*
X90707343Y-115994813D01*
X90720812Y-115954407D01*
X90788155Y-115887064D01*
X90828561Y-115873595D01*
X90855499Y-115873595D01*
X90895905Y-115887064D01*
X90922842Y-115914001D01*
X90949780Y-115967876D01*
X90949780Y-116291125D01*
X91124873Y-116116032D01*
G04 #@! TO.C,R43*
X173771125Y-135704780D02*
X173542157Y-135664374D01*
X173609500Y-135866404D02*
X173326658Y-135583561D01*
X173434407Y-135475812D01*
X173474813Y-135462343D01*
X173501751Y-135462343D01*
X173542157Y-135475812D01*
X173582563Y-135516218D01*
X173596032Y-135556624D01*
X173596032Y-135583561D01*
X173582563Y-135623967D01*
X173474813Y-135731717D01*
X173824999Y-135273781D02*
X174013561Y-135462343D01*
X173649906Y-135233375D02*
X173784593Y-135502749D01*
X173959687Y-135327656D01*
X173851937Y-135058282D02*
X174027030Y-134883189D01*
X174040499Y-135085219D01*
X174080905Y-135044813D01*
X174121311Y-135031345D01*
X174148248Y-135031345D01*
X174188654Y-135044813D01*
X174255998Y-135112157D01*
X174269467Y-135152563D01*
X174269467Y-135179500D01*
X174255998Y-135219906D01*
X174175186Y-135300719D01*
X174134780Y-135314187D01*
X174107842Y-135314187D01*
G04 #@! TO.C,R44*
X174406125Y-138244780D02*
X174177157Y-138204374D01*
X174244500Y-138406404D02*
X173961658Y-138123561D01*
X174069407Y-138015812D01*
X174109813Y-138002343D01*
X174136751Y-138002343D01*
X174177157Y-138015812D01*
X174217563Y-138056218D01*
X174231032Y-138096624D01*
X174231032Y-138123561D01*
X174217563Y-138163967D01*
X174109813Y-138271717D01*
X174459999Y-137813781D02*
X174648561Y-138002343D01*
X174284906Y-137773375D02*
X174419593Y-138042749D01*
X174594687Y-137867656D01*
X174729374Y-137544407D02*
X174917935Y-137732969D01*
X174554280Y-137504001D02*
X174688967Y-137773375D01*
X174864061Y-137598282D01*
G04 #@! TO.C,R45*
X174406125Y-140784780D02*
X174177157Y-140744374D01*
X174244500Y-140946404D02*
X173961658Y-140663561D01*
X174069407Y-140555812D01*
X174109813Y-140542343D01*
X174136751Y-140542343D01*
X174177157Y-140555812D01*
X174217563Y-140596218D01*
X174231032Y-140636624D01*
X174231032Y-140663561D01*
X174217563Y-140703967D01*
X174109813Y-140811717D01*
X174459999Y-140353781D02*
X174648561Y-140542343D01*
X174284906Y-140313375D02*
X174419593Y-140582749D01*
X174594687Y-140407656D01*
X174648561Y-139976658D02*
X174513874Y-140111345D01*
X174635093Y-140259500D01*
X174635093Y-140232563D01*
X174648561Y-140192157D01*
X174715905Y-140124813D01*
X174756311Y-140111345D01*
X174783248Y-140111345D01*
X174823654Y-140124813D01*
X174890998Y-140192157D01*
X174904467Y-140232563D01*
X174904467Y-140259500D01*
X174890998Y-140299906D01*
X174823654Y-140367250D01*
X174783248Y-140380719D01*
X174756311Y-140380719D01*
G04 #@! TO.C,R46*
X174406125Y-121734780D02*
X174177157Y-121694374D01*
X174244500Y-121896404D02*
X173961658Y-121613561D01*
X174069407Y-121505812D01*
X174109813Y-121492343D01*
X174136751Y-121492343D01*
X174177157Y-121505812D01*
X174217563Y-121546218D01*
X174231032Y-121586624D01*
X174231032Y-121613561D01*
X174217563Y-121653967D01*
X174109813Y-121761717D01*
X174460000Y-121303781D02*
X174648561Y-121492343D01*
X174284906Y-121263375D02*
X174419593Y-121532749D01*
X174594687Y-121357656D01*
X174635093Y-120940126D02*
X174581218Y-120994001D01*
X174567749Y-121034407D01*
X174567749Y-121061345D01*
X174581218Y-121128688D01*
X174621624Y-121196032D01*
X174729374Y-121303781D01*
X174769780Y-121317250D01*
X174796717Y-121317250D01*
X174837123Y-121303781D01*
X174890998Y-121249906D01*
X174904467Y-121209500D01*
X174904467Y-121182563D01*
X174890998Y-121142157D01*
X174823654Y-121074813D01*
X174783248Y-121061345D01*
X174756311Y-121061345D01*
X174715905Y-121074813D01*
X174662030Y-121128688D01*
X174648561Y-121169094D01*
X174648561Y-121196032D01*
X174662030Y-121236438D01*
G04 #@! TO.C,R47*
X174406125Y-119194780D02*
X174177157Y-119154374D01*
X174244500Y-119356404D02*
X173961658Y-119073561D01*
X174069407Y-118965812D01*
X174109813Y-118952343D01*
X174136751Y-118952343D01*
X174177157Y-118965812D01*
X174217563Y-119006218D01*
X174231032Y-119046624D01*
X174231032Y-119073561D01*
X174217563Y-119113967D01*
X174109813Y-119221717D01*
X174460000Y-118763781D02*
X174648561Y-118952343D01*
X174284906Y-118723375D02*
X174419593Y-118992749D01*
X174594687Y-118817656D01*
X174486937Y-118548282D02*
X174675499Y-118359720D01*
X174837123Y-118763781D01*
G04 #@! TO.C,R48*
X174406125Y-116654780D02*
X174177157Y-116614374D01*
X174244500Y-116816404D02*
X173961658Y-116533561D01*
X174069407Y-116425812D01*
X174109813Y-116412343D01*
X174136751Y-116412343D01*
X174177157Y-116425812D01*
X174217563Y-116466218D01*
X174231032Y-116506624D01*
X174231032Y-116533561D01*
X174217563Y-116573967D01*
X174109813Y-116681717D01*
X174460000Y-116223781D02*
X174648561Y-116412343D01*
X174284906Y-116183375D02*
X174419593Y-116452749D01*
X174594687Y-116277656D01*
X174675499Y-116062157D02*
X174635093Y-116075625D01*
X174608155Y-116075625D01*
X174567749Y-116062157D01*
X174554280Y-116048688D01*
X174540812Y-116008282D01*
X174540812Y-115981345D01*
X174554280Y-115940938D01*
X174608155Y-115887064D01*
X174648561Y-115873595D01*
X174675499Y-115873595D01*
X174715905Y-115887064D01*
X174729374Y-115900532D01*
X174742842Y-115940938D01*
X174742842Y-115967876D01*
X174729374Y-116008282D01*
X174675499Y-116062157D01*
X174662030Y-116102563D01*
X174662030Y-116129500D01*
X174675499Y-116169906D01*
X174729374Y-116223781D01*
X174769780Y-116237250D01*
X174796717Y-116237250D01*
X174837123Y-116223781D01*
X174890998Y-116169906D01*
X174904467Y-116129500D01*
X174904467Y-116102563D01*
X174890998Y-116062157D01*
X174837123Y-116008282D01*
X174796717Y-115994813D01*
X174769780Y-115994813D01*
X174729374Y-116008282D01*
G04 #@! TO.C,J19*
D11*
X69772380Y-70799523D02*
X70486666Y-70799523D01*
X70629523Y-70847142D01*
X70724761Y-70942380D01*
X70772380Y-71085238D01*
X70772380Y-71180476D01*
X70772380Y-69799523D02*
X70772380Y-70370952D01*
X70772380Y-70085238D02*
X69772380Y-70085238D01*
X69915238Y-70180476D01*
X70010476Y-70275714D01*
X70058095Y-70370952D01*
X70772380Y-69323333D02*
X70772380Y-69132857D01*
X70724761Y-69037619D01*
X70677142Y-68990000D01*
X70534285Y-68894761D01*
X70343809Y-68847142D01*
X69962857Y-68847142D01*
X69867619Y-68894761D01*
X69820000Y-68942380D01*
X69772380Y-69037619D01*
X69772380Y-69228095D01*
X69820000Y-69323333D01*
X69867619Y-69370952D01*
X69962857Y-69418571D01*
X70200952Y-69418571D01*
X70296190Y-69370952D01*
X70343809Y-69323333D01*
X70391428Y-69228095D01*
X70391428Y-69037619D01*
X70343809Y-68942380D01*
X70296190Y-68894761D01*
X70200952Y-68847142D01*
G04 #@! TO.C,J20*
X118032380Y-94929523D02*
X118746666Y-94929523D01*
X118889523Y-94977142D01*
X118984761Y-95072380D01*
X119032380Y-95215238D01*
X119032380Y-95310476D01*
X118127619Y-94500952D02*
X118080000Y-94453333D01*
X118032380Y-94358095D01*
X118032380Y-94120000D01*
X118080000Y-94024761D01*
X118127619Y-93977142D01*
X118222857Y-93929523D01*
X118318095Y-93929523D01*
X118460952Y-93977142D01*
X119032380Y-94548571D01*
X119032380Y-93929523D01*
X118032380Y-93310476D02*
X118032380Y-93215238D01*
X118080000Y-93120000D01*
X118127619Y-93072380D01*
X118222857Y-93024761D01*
X118413333Y-92977142D01*
X118651428Y-92977142D01*
X118841904Y-93024761D01*
X118937142Y-93072380D01*
X118984761Y-93120000D01*
X119032380Y-93215238D01*
X119032380Y-93310476D01*
X118984761Y-93405714D01*
X118937142Y-93453333D01*
X118841904Y-93500952D01*
X118651428Y-93548571D01*
X118413333Y-93548571D01*
X118222857Y-93500952D01*
X118127619Y-93453333D01*
X118080000Y-93405714D01*
X118032380Y-93310476D01*
G04 #@! TO.C,J21*
X196566666Y-98077142D02*
X196519047Y-98124761D01*
X196376190Y-98172380D01*
X196280952Y-98172380D01*
X196138095Y-98124761D01*
X196042857Y-98029523D01*
X195995238Y-97934285D01*
X195947619Y-97743809D01*
X195947619Y-97600952D01*
X195995238Y-97410476D01*
X196042857Y-97315238D01*
X196138095Y-97220000D01*
X196280952Y-97172380D01*
X196376190Y-97172380D01*
X196519047Y-97220000D01*
X196566666Y-97267619D01*
X197138095Y-98172380D02*
X197042857Y-98124761D01*
X196995238Y-98077142D01*
X196947619Y-97981904D01*
X196947619Y-97696190D01*
X196995238Y-97600952D01*
X197042857Y-97553333D01*
X197138095Y-97505714D01*
X197280952Y-97505714D01*
X197376190Y-97553333D01*
X197423809Y-97600952D01*
X197471428Y-97696190D01*
X197471428Y-97981904D01*
X197423809Y-98077142D01*
X197376190Y-98124761D01*
X197280952Y-98172380D01*
X197138095Y-98172380D01*
X197900000Y-97505714D02*
X197900000Y-98172380D01*
X197900000Y-97600952D02*
X197947619Y-97553333D01*
X198042857Y-97505714D01*
X198185714Y-97505714D01*
X198280952Y-97553333D01*
X198328571Y-97648571D01*
X198328571Y-98172380D01*
X198804761Y-97505714D02*
X198804761Y-98172380D01*
X198804761Y-97600952D02*
X198852380Y-97553333D01*
X198947619Y-97505714D01*
X199090476Y-97505714D01*
X199185714Y-97553333D01*
X199233333Y-97648571D01*
X199233333Y-98172380D01*
X199471428Y-98267619D02*
X200233333Y-98267619D01*
X200661904Y-97172380D02*
X200757142Y-97172380D01*
X200852380Y-97220000D01*
X200900000Y-97267619D01*
X200947619Y-97362857D01*
X200995238Y-97553333D01*
X200995238Y-97791428D01*
X200947619Y-97981904D01*
X200900000Y-98077142D01*
X200852380Y-98124761D01*
X200757142Y-98172380D01*
X200661904Y-98172380D01*
X200566666Y-98124761D01*
X200519047Y-98077142D01*
X200471428Y-97981904D01*
X200423809Y-97791428D01*
X200423809Y-97553333D01*
X200471428Y-97362857D01*
X200519047Y-97267619D01*
X200566666Y-97220000D01*
X200661904Y-97172380D01*
X201947619Y-98172380D02*
X201376190Y-98172380D01*
X201661904Y-98172380D02*
X201661904Y-97172380D01*
X201566666Y-97315238D01*
X201471428Y-97410476D01*
X201376190Y-97458095D01*
X202280952Y-98172380D02*
X202804761Y-97505714D01*
X202280952Y-97505714D02*
X202804761Y-98172380D01*
X203376190Y-97172380D02*
X203471428Y-97172380D01*
X203566666Y-97220000D01*
X203614285Y-97267619D01*
X203661904Y-97362857D01*
X203709523Y-97553333D01*
X203709523Y-97791428D01*
X203661904Y-97981904D01*
X203614285Y-98077142D01*
X203566666Y-98124761D01*
X203471428Y-98172380D01*
X203376190Y-98172380D01*
X203280952Y-98124761D01*
X203233333Y-98077142D01*
X203185714Y-97981904D01*
X203138095Y-97791428D01*
X203138095Y-97553333D01*
X203185714Y-97362857D01*
X203233333Y-97267619D01*
X203280952Y-97220000D01*
X203376190Y-97172380D01*
X204090476Y-97267619D02*
X204138095Y-97220000D01*
X204233333Y-97172380D01*
X204471428Y-97172380D01*
X204566666Y-97220000D01*
X204614285Y-97267619D01*
X204661904Y-97362857D01*
X204661904Y-97458095D01*
X204614285Y-97600952D01*
X204042857Y-98172380D01*
X204661904Y-98172380D01*
X204852380Y-98267619D02*
X205614285Y-98267619D01*
X205852380Y-98172380D02*
X205852380Y-97172380D01*
X206185714Y-97886666D01*
X206519047Y-97172380D01*
X206519047Y-98172380D01*
X207423809Y-98172380D02*
X207423809Y-97648571D01*
X207376190Y-97553333D01*
X207280952Y-97505714D01*
X207090476Y-97505714D01*
X206995238Y-97553333D01*
X207423809Y-98124761D02*
X207328571Y-98172380D01*
X207090476Y-98172380D01*
X206995238Y-98124761D01*
X206947619Y-98029523D01*
X206947619Y-97934285D01*
X206995238Y-97839047D01*
X207090476Y-97791428D01*
X207328571Y-97791428D01*
X207423809Y-97743809D01*
X208042857Y-98172380D02*
X207947619Y-98124761D01*
X207900000Y-98029523D01*
X207900000Y-97172380D01*
X208804761Y-98124761D02*
X208709523Y-98172380D01*
X208519047Y-98172380D01*
X208423809Y-98124761D01*
X208376190Y-98029523D01*
X208376190Y-97648571D01*
X208423809Y-97553333D01*
X208519047Y-97505714D01*
X208709523Y-97505714D01*
X208804761Y-97553333D01*
X208852380Y-97648571D01*
X208852380Y-97743809D01*
X208376190Y-97839047D01*
X201852380Y-94929523D02*
X202566666Y-94929523D01*
X202709523Y-94977142D01*
X202804761Y-95072380D01*
X202852380Y-95215238D01*
X202852380Y-95310476D01*
X201947619Y-94500952D02*
X201900000Y-94453333D01*
X201852380Y-94358095D01*
X201852380Y-94120000D01*
X201900000Y-94024761D01*
X201947619Y-93977142D01*
X202042857Y-93929523D01*
X202138095Y-93929523D01*
X202280952Y-93977142D01*
X202852380Y-94548571D01*
X202852380Y-93929523D01*
X202852380Y-92977142D02*
X202852380Y-93548571D01*
X202852380Y-93262857D02*
X201852380Y-93262857D01*
X201995238Y-93358095D01*
X202090476Y-93453333D01*
X202138095Y-93548571D01*
G04 #@! TO.C,R49*
X123272380Y-95062619D02*
X123272380Y-94967380D01*
X123320000Y-94872142D01*
X123367619Y-94824523D01*
X123462857Y-94776904D01*
X123653333Y-94729285D01*
X123891428Y-94729285D01*
X124081904Y-94776904D01*
X124177142Y-94824523D01*
X124224761Y-94872142D01*
X124272380Y-94967380D01*
X124272380Y-95062619D01*
X124224761Y-95157857D01*
X124177142Y-95205476D01*
X124081904Y-95253095D01*
X123891428Y-95300714D01*
X123653333Y-95300714D01*
X123462857Y-95253095D01*
X123367619Y-95205476D01*
X123320000Y-95157857D01*
X123272380Y-95062619D01*
X124272380Y-93729285D02*
X123796190Y-94062619D01*
X124272380Y-94300714D02*
X123272380Y-94300714D01*
X123272380Y-93919761D01*
X123320000Y-93824523D01*
X123367619Y-93776904D01*
X123462857Y-93729285D01*
X123605714Y-93729285D01*
X123700952Y-93776904D01*
X123748571Y-93824523D01*
X123796190Y-93919761D01*
X123796190Y-94300714D01*
D12*
X122570952Y-94772142D02*
X122380476Y-94905476D01*
X122570952Y-95000714D02*
X122170952Y-95000714D01*
X122170952Y-94848333D01*
X122190000Y-94810238D01*
X122209047Y-94791190D01*
X122247142Y-94772142D01*
X122304285Y-94772142D01*
X122342380Y-94791190D01*
X122361428Y-94810238D01*
X122380476Y-94848333D01*
X122380476Y-95000714D01*
X122304285Y-94429285D02*
X122570952Y-94429285D01*
X122151904Y-94524523D02*
X122437619Y-94619761D01*
X122437619Y-94372142D01*
X122570952Y-94200714D02*
X122570952Y-94124523D01*
X122551904Y-94086428D01*
X122532857Y-94067380D01*
X122475714Y-94029285D01*
X122399523Y-94010238D01*
X122247142Y-94010238D01*
X122209047Y-94029285D01*
X122190000Y-94048333D01*
X122170952Y-94086428D01*
X122170952Y-94162619D01*
X122190000Y-94200714D01*
X122209047Y-94219761D01*
X122247142Y-94238809D01*
X122342380Y-94238809D01*
X122380476Y-94219761D01*
X122399523Y-94200714D01*
X122418571Y-94162619D01*
X122418571Y-94086428D01*
X122399523Y-94048333D01*
X122380476Y-94029285D01*
X122342380Y-94010238D01*
G04 #@! TO.C,R50*
D11*
X208362380Y-94667619D02*
X208362380Y-94572380D01*
X208410000Y-94477142D01*
X208457619Y-94429523D01*
X208552857Y-94381904D01*
X208743333Y-94334285D01*
X208981428Y-94334285D01*
X209171904Y-94381904D01*
X209267142Y-94429523D01*
X209314761Y-94477142D01*
X209362380Y-94572380D01*
X209362380Y-94667619D01*
X209314761Y-94762857D01*
X209267142Y-94810476D01*
X209171904Y-94858095D01*
X208981428Y-94905714D01*
X208743333Y-94905714D01*
X208552857Y-94858095D01*
X208457619Y-94810476D01*
X208410000Y-94762857D01*
X208362380Y-94667619D01*
X209362380Y-93334285D02*
X208886190Y-93667619D01*
X209362380Y-93905714D02*
X208362380Y-93905714D01*
X208362380Y-93524761D01*
X208410000Y-93429523D01*
X208457619Y-93381904D01*
X208552857Y-93334285D01*
X208695714Y-93334285D01*
X208790952Y-93381904D01*
X208838571Y-93429523D01*
X208886190Y-93524761D01*
X208886190Y-93905714D01*
D12*
X207660952Y-94377142D02*
X207470476Y-94510476D01*
X207660952Y-94605714D02*
X207260952Y-94605714D01*
X207260952Y-94453333D01*
X207280000Y-94415238D01*
X207299047Y-94396190D01*
X207337142Y-94377142D01*
X207394285Y-94377142D01*
X207432380Y-94396190D01*
X207451428Y-94415238D01*
X207470476Y-94453333D01*
X207470476Y-94605714D01*
X207260952Y-94015238D02*
X207260952Y-94205714D01*
X207451428Y-94224761D01*
X207432380Y-94205714D01*
X207413333Y-94167619D01*
X207413333Y-94072380D01*
X207432380Y-94034285D01*
X207451428Y-94015238D01*
X207489523Y-93996190D01*
X207584761Y-93996190D01*
X207622857Y-94015238D01*
X207641904Y-94034285D01*
X207660952Y-94072380D01*
X207660952Y-94167619D01*
X207641904Y-94205714D01*
X207622857Y-94224761D01*
X207260952Y-93748571D02*
X207260952Y-93710476D01*
X207280000Y-93672380D01*
X207299047Y-93653333D01*
X207337142Y-93634285D01*
X207413333Y-93615238D01*
X207508571Y-93615238D01*
X207584761Y-93634285D01*
X207622857Y-93653333D01*
X207641904Y-93672380D01*
X207660952Y-93710476D01*
X207660952Y-93748571D01*
X207641904Y-93786666D01*
X207622857Y-93805714D01*
X207584761Y-93824761D01*
X207508571Y-93843809D01*
X207413333Y-93843809D01*
X207337142Y-93824761D01*
X207299047Y-93805714D01*
X207280000Y-93786666D01*
X207260952Y-93748571D01*
G04 #@! TO.C,REF\002A\002A*
D11*
X54046666Y-55456380D02*
X53713333Y-54980190D01*
X53475238Y-55456380D02*
X53475238Y-54456380D01*
X53856190Y-54456380D01*
X53951428Y-54504000D01*
X53999047Y-54551619D01*
X54046666Y-54646857D01*
X54046666Y-54789714D01*
X53999047Y-54884952D01*
X53951428Y-54932571D01*
X53856190Y-54980190D01*
X53475238Y-54980190D01*
X54475238Y-54932571D02*
X54808571Y-54932571D01*
X54951428Y-55456380D02*
X54475238Y-55456380D01*
X54475238Y-54456380D01*
X54951428Y-54456380D01*
X55713333Y-54932571D02*
X55380000Y-54932571D01*
X55380000Y-55456380D02*
X55380000Y-54456380D01*
X55856190Y-54456380D01*
X56380000Y-54456380D02*
X56380000Y-54694476D01*
X56141904Y-54599238D02*
X56380000Y-54694476D01*
X56618095Y-54599238D01*
X56237142Y-54884952D02*
X56380000Y-54694476D01*
X56522857Y-54884952D01*
X57141904Y-54456380D02*
X57141904Y-54694476D01*
X56903809Y-54599238D02*
X57141904Y-54694476D01*
X57380000Y-54599238D01*
X56999047Y-54884952D02*
X57141904Y-54694476D01*
X57284761Y-54884952D01*
G04 #@! TO.C,J7*
X103222380Y-138522333D02*
X103936666Y-138522333D01*
X104079523Y-138569952D01*
X104174761Y-138665190D01*
X104222380Y-138808047D01*
X104222380Y-138903285D01*
X103222380Y-138141380D02*
X103222380Y-137474714D01*
X104222380Y-137903285D01*
G04 #@! TO.C,J10*
X103681380Y-118678523D02*
X104395666Y-118678523D01*
X104538523Y-118726142D01*
X104633761Y-118821380D01*
X104681380Y-118964238D01*
X104681380Y-119059476D01*
X104681380Y-117678523D02*
X104681380Y-118249952D01*
X104681380Y-117964238D02*
X103681380Y-117964238D01*
X103824238Y-118059476D01*
X103919476Y-118154714D01*
X103967095Y-118249952D01*
X103681380Y-117059476D02*
X103681380Y-116964238D01*
X103729000Y-116869000D01*
X103776619Y-116821380D01*
X103871857Y-116773761D01*
X104062333Y-116726142D01*
X104300428Y-116726142D01*
X104490904Y-116773761D01*
X104586142Y-116821380D01*
X104633761Y-116869000D01*
X104681380Y-116964238D01*
X104681380Y-117059476D01*
X104633761Y-117154714D01*
X104586142Y-117202333D01*
X104490904Y-117249952D01*
X104300428Y-117297571D01*
X104062333Y-117297571D01*
X103871857Y-117249952D01*
X103776619Y-117202333D01*
X103729000Y-117154714D01*
X103681380Y-117059476D01*
G04 #@! TO.C,J12*
X185723380Y-138998523D02*
X186437666Y-138998523D01*
X186580523Y-139046142D01*
X186675761Y-139141380D01*
X186723380Y-139284238D01*
X186723380Y-139379476D01*
X186723380Y-137998523D02*
X186723380Y-138569952D01*
X186723380Y-138284238D02*
X185723380Y-138284238D01*
X185866238Y-138379476D01*
X185961476Y-138474714D01*
X186009095Y-138569952D01*
X185818619Y-137617571D02*
X185771000Y-137569952D01*
X185723380Y-137474714D01*
X185723380Y-137236619D01*
X185771000Y-137141380D01*
X185818619Y-137093761D01*
X185913857Y-137046142D01*
X186009095Y-137046142D01*
X186151952Y-137093761D01*
X186723380Y-137665190D01*
X186723380Y-137046142D01*
G04 #@! TO.C,J14*
X185682380Y-118678523D02*
X186396666Y-118678523D01*
X186539523Y-118726142D01*
X186634761Y-118821380D01*
X186682380Y-118964238D01*
X186682380Y-119059476D01*
X186682380Y-117678523D02*
X186682380Y-118249952D01*
X186682380Y-117964238D02*
X185682380Y-117964238D01*
X185825238Y-118059476D01*
X185920476Y-118154714D01*
X185968095Y-118249952D01*
X186015714Y-116821380D02*
X186682380Y-116821380D01*
X185634761Y-117059476D02*
X186349047Y-117297571D01*
X186349047Y-116678523D01*
G04 #@! TO.C,R51*
D12*
X90586125Y-124164062D02*
X90357157Y-124123656D01*
X90424500Y-124325686D02*
X90141658Y-124042843D01*
X90249407Y-123935094D01*
X90289813Y-123921625D01*
X90316751Y-123921625D01*
X90357157Y-123935094D01*
X90397563Y-123975500D01*
X90411032Y-124015906D01*
X90411032Y-124042843D01*
X90397563Y-124083249D01*
X90289813Y-124190999D01*
X90559187Y-123625314D02*
X90424500Y-123760001D01*
X90545719Y-123908156D01*
X90545719Y-123881219D01*
X90559187Y-123840813D01*
X90626531Y-123773469D01*
X90666937Y-123760001D01*
X90693874Y-123760001D01*
X90734280Y-123773469D01*
X90801624Y-123840813D01*
X90815093Y-123881219D01*
X90815093Y-123908156D01*
X90801624Y-123948562D01*
X90734280Y-124015906D01*
X90693874Y-124029375D01*
X90666937Y-124029375D01*
X91124873Y-123625314D02*
X90963248Y-123786938D01*
X91044061Y-123706126D02*
X90761218Y-123423283D01*
X90774687Y-123490627D01*
X90774687Y-123544501D01*
X90761218Y-123584907D01*
G04 #@! TO.C,R52*
X90586125Y-133164780D02*
X90357157Y-133124374D01*
X90424500Y-133326404D02*
X90141658Y-133043561D01*
X90249407Y-132935812D01*
X90289813Y-132922343D01*
X90316751Y-132922343D01*
X90357157Y-132935812D01*
X90397563Y-132976218D01*
X90411032Y-133016624D01*
X90411032Y-133043561D01*
X90397563Y-133083967D01*
X90289813Y-133191717D01*
X90559187Y-132626032D02*
X90424500Y-132760719D01*
X90545719Y-132908874D01*
X90545719Y-132881937D01*
X90559187Y-132841531D01*
X90626531Y-132774187D01*
X90666937Y-132760719D01*
X90693874Y-132760719D01*
X90734280Y-132774187D01*
X90801624Y-132841531D01*
X90815093Y-132881937D01*
X90815093Y-132908874D01*
X90801624Y-132949280D01*
X90734280Y-133016624D01*
X90693874Y-133030093D01*
X90666937Y-133030093D01*
X90707343Y-132531751D02*
X90707343Y-132504813D01*
X90720812Y-132464407D01*
X90788155Y-132397064D01*
X90828561Y-132383595D01*
X90855499Y-132383595D01*
X90895905Y-132397064D01*
X90922842Y-132424001D01*
X90949780Y-132477876D01*
X90949780Y-132801125D01*
X91124873Y-132626032D01*
G04 #@! TO.C,R53*
X174406125Y-124274780D02*
X174177157Y-124234374D01*
X174244500Y-124436404D02*
X173961658Y-124153561D01*
X174069407Y-124045812D01*
X174109813Y-124032343D01*
X174136751Y-124032343D01*
X174177157Y-124045812D01*
X174217563Y-124086218D01*
X174231032Y-124126624D01*
X174231032Y-124153561D01*
X174217563Y-124193967D01*
X174109813Y-124301717D01*
X174379187Y-123736032D02*
X174244500Y-123870719D01*
X174365719Y-124018874D01*
X174365719Y-123991937D01*
X174379187Y-123951531D01*
X174446531Y-123884187D01*
X174486937Y-123870719D01*
X174513874Y-123870719D01*
X174554280Y-123884187D01*
X174621624Y-123951531D01*
X174635093Y-123991937D01*
X174635093Y-124018874D01*
X174621624Y-124059280D01*
X174554280Y-124126624D01*
X174513874Y-124140093D01*
X174486937Y-124140093D01*
X174486937Y-123628282D02*
X174662030Y-123453189D01*
X174675499Y-123655219D01*
X174715905Y-123614813D01*
X174756311Y-123601345D01*
X174783248Y-123601345D01*
X174823654Y-123614813D01*
X174890998Y-123682157D01*
X174904467Y-123722563D01*
X174904467Y-123749500D01*
X174890998Y-123789906D01*
X174810186Y-123870719D01*
X174769780Y-123884187D01*
X174742842Y-123884187D01*
G04 #@! TO.C,R54*
X173136125Y-133164780D02*
X172907157Y-133124374D01*
X172974500Y-133326404D02*
X172691658Y-133043561D01*
X172799407Y-132935812D01*
X172839813Y-132922343D01*
X172866751Y-132922343D01*
X172907157Y-132935812D01*
X172947563Y-132976218D01*
X172961032Y-133016624D01*
X172961032Y-133043561D01*
X172947563Y-133083967D01*
X172839813Y-133191717D01*
X173109187Y-132626032D02*
X172974500Y-132760719D01*
X173095719Y-132908874D01*
X173095719Y-132881937D01*
X173109187Y-132841531D01*
X173176531Y-132774187D01*
X173216937Y-132760719D01*
X173243874Y-132760719D01*
X173284280Y-132774187D01*
X173351624Y-132841531D01*
X173365093Y-132881937D01*
X173365093Y-132908874D01*
X173351624Y-132949280D01*
X173284280Y-133016624D01*
X173243874Y-133030093D01*
X173216937Y-133030093D01*
X173459374Y-132464407D02*
X173647935Y-132652969D01*
X173284280Y-132424001D02*
X173418967Y-132693375D01*
X173594061Y-132518282D01*
G04 #@! TD*
M02*
